<svg xmlns="http://www.w3.org/2000/svg" viewBox="0 0 50 50"><defs><style>.cls-1{fill:#5b5b5b;}</style></defs><g id="Layer_2" data-name="Layer 2"><g id="Layer_1-2" data-name="Layer 1"><path class="cls-1" d="M24.92,25.7h0a.19.19,0,0,1-.14-.09l-.41-.56a.21.21,0,0,1,.05-.3l.56-.41a.21.21,0,0,1,.3.05l.41.56a.21.21,0,0,1-.05.3l-.56.41A.2.2,0,0,1,24.92,25.7Zm.16-1.39a.28.28,0,0,0-.13,0l-.55.41a.19.19,0,0,0,0,.28l.41.56a.2.2,0,0,0,.13.09.29.29,0,0,0,.16,0l.55-.41a.2.2,0,0,0,0-.29l-.41-.55a.2.2,0,0,0-.13-.09Z"/><path class="cls-1" d="M24.86,25.77H24.8a.23.23,0,0,1-.15-.12L24.27,25a.24.24,0,0,1,.09-.33l.66-.38a.24.24,0,0,1,.33.08l.38.67a.24.24,0,0,1-.08.33l-.67.38A.28.28,0,0,1,24.86,25.77Zm.28-1.52a.2.2,0,0,0-.11,0l-.67.38a.22.22,0,0,0-.08.31l.38.67a.21.21,0,0,0,.14.1.2.2,0,0,0,.17,0l.67-.38a.22.22,0,0,0,.08-.31l-.38-.67A.23.23,0,0,0,25.14,24.25Z"/><path class="cls-1" d="M24.78,25.83a.15.15,0,0,1-.09,0,.23.23,0,0,1-.15-.14l-.35-.78a.26.26,0,0,1,.14-.35l.78-.35a.26.26,0,0,1,.35.14l.35.78a.28.28,0,0,1-.14.35l-.78.35Zm.44-1.65-.11,0-.78.35a.27.27,0,0,0-.13.34l.35.78a.25.25,0,0,0,.14.13.34.34,0,0,0,.2,0l.78-.35a.27.27,0,0,0,.13-.34l-.35-.78A.26.26,0,0,0,25.22,24.18Z"/><path class="cls-1" d="M24.7,25.9a.33.33,0,0,1-.14,0,.31.31,0,0,1-.15-.17l-.29-.9a.26.26,0,0,1,0-.23.31.31,0,0,1,.17-.15l.9-.29a.3.3,0,0,1,.38.19l.29.9a.26.26,0,0,1,0,.23.31.31,0,0,1-.17.15l-.9.29Zm.6-1.78h-.08l-.9.3a.26.26,0,0,0-.17.14.31.31,0,0,0,0,.21l.3.9a.26.26,0,0,0,.14.17.31.31,0,0,0,.21,0l.9-.3a.26.26,0,0,0,.17-.14.31.31,0,0,0,0-.21l-.3-.9A.29.29,0,0,0,25.3,24.12Z"/><path class="cls-1" d="M24.59,26a.32.32,0,0,1-.18-.06.34.34,0,0,1-.14-.21l-.22-1a.33.33,0,0,1,.05-.25.34.34,0,0,1,.21-.14l1-.22a.33.33,0,0,1,.39.26l.22,1a.33.33,0,0,1-.26.39l-1,.22Zm.82-1.9h-.07l-1,.22a.3.3,0,0,0-.2.13.34.34,0,0,0,0,.24l.22,1a.3.3,0,0,0,.13.2.34.34,0,0,0,.24,0l1-.22a.3.3,0,0,0,.24-.37l-.22-1A.31.31,0,0,0,25.41,24.06Z"/><path class="cls-1" d="M24.48,26a.37.37,0,0,1-.37-.33L24,24.52a.36.36,0,0,1,.08-.27.35.35,0,0,1,.25-.14L25.48,24h0a.37.37,0,0,1,.37.33L26,25.48a.38.38,0,0,1-.33.41L24.52,26Zm1-2h0l-1.16.12a.36.36,0,0,0-.23.13.34.34,0,0,0-.08.26l.12,1.16a.36.36,0,0,0,.13.23.34.34,0,0,0,.26.08l1.16-.12a.35.35,0,0,0,.31-.39l-.12-1.16A.35.35,0,0,0,25.52,24Z"/><path class="cls-1" d="M25.65,26.06h-1.3a.41.41,0,0,1-.41-.41v-1.3h0a.41.41,0,0,1,.41-.41h1.3a.41.41,0,0,1,.41.41v1.3a.41.41,0,0,1-.41.41ZM24.35,24a.41.41,0,0,0-.39.39v1.3a.41.41,0,0,0,.39.39h1.3a.41.41,0,0,0,.39-.39v-1.3a.4.4,0,0,0-.39-.39Z"/><path class="cls-1" d="M25.64,26.25h-.05l-1.43-.15a.53.53,0,0,1-.31-.17.52.52,0,0,1-.1-.34l.15-1.43h0a.47.47,0,0,1,.51-.41l1.43.15a.48.48,0,0,1,.41.51l-.15,1.43a.53.53,0,0,1-.17.31A.48.48,0,0,1,25.64,26.25Zm-1.28-2.47a.42.42,0,0,0-.43.38l-.15,1.44a.44.44,0,0,0,.09.31.45.45,0,0,0,.29.16l1.44.15a.44.44,0,0,0,.31-.09.45.45,0,0,0,.16-.29l.15-1.44a.43.43,0,0,0-.38-.47l-1.44-.15Z"/><path class="cls-1" d="M25.62,26.46h-.11l-1.57-.34a.51.51,0,0,1-.32-.22.56.56,0,0,1-.07-.38l.34-1.57a.51.51,0,0,1,.6-.39l1.57.34a.51.51,0,0,1,.39.6l-.34,1.57A.51.51,0,0,1,25.62,26.46ZM23.91,24l-.33,1.57a.49.49,0,0,0,.37.57l1.57.33a.49.49,0,0,0,.57-.37l.33-1.57a.49.49,0,0,0-.37-.57l-1.57-.33a.49.49,0,0,0-.57.37Z"/><path class="cls-1" d="M25.57,26.69a.51.51,0,0,1-.17,0l-1.7-.55a.58.58,0,0,1-.36-.71l.55-1.7a.58.58,0,0,1,.71-.36l1.7.55a.58.58,0,0,1,.36.71l-.55,1.7A.58.58,0,0,1,25.57,26.69Zm-1.65-3-.55,1.7a.55.55,0,0,0,0,.4.58.58,0,0,0,.31.27l1.7.55a.53.53,0,0,0,.67-.34l.55-1.7a.53.53,0,0,0-.34-.67l-1.7-.55a.53.53,0,0,0-.67.34Z"/><path class="cls-1" d="M25.5,26.93a.74.74,0,0,1-.25-.05l-1.81-.81a.62.62,0,0,1-.32-.82l.81-1.81a.62.62,0,0,1,.82-.32l1.81.81a.62.62,0,0,1,.32.82l-.81,1.81A.62.62,0,0,1,25.5,26.93ZM24,23.45l-.81,1.81a.59.59,0,0,0,0,.45.59.59,0,0,0,.31.33l1.81.81a.59.59,0,0,0,.78-.3l.81-1.81a.59.59,0,0,0-.3-.78l-1.81-.81a.59.59,0,0,0-.78.3Z"/><path class="cls-1" d="M25.4,27.2a.64.64,0,0,1-.35-.1L23.15,26a.68.68,0,0,1-.32-.42.66.66,0,0,1,.07-.53l1.1-1.9A.69.69,0,0,1,25,22.9l1.9,1.1a.69.69,0,0,1,.25.95L26,26.85A.69.69,0,0,1,25.4,27.2Zm-1.37-4-1.1,1.9a.68.68,0,0,0-.07.5.69.69,0,0,0,.31.4l1.9,1.1a.66.66,0,0,0,.9-.24l1.1-1.9a.66.66,0,0,0-.24-.9l-1.9-1.1a.66.66,0,0,0-.9.24Z"/><path class="cls-1" d="M25.27,27.48a.74.74,0,0,1-.45-.15l-2-1.43a.77.77,0,0,1-.17-1.08l1.43-2a.77.77,0,0,1,1.08-.17l2,1.43a.77.77,0,0,1,.17,1.08l-1.43,2A.79.79,0,0,1,25.27,27.48Zm-.54-4.92a.73.73,0,0,0-.59.3l-1.44,2a.75.75,0,0,0-.13.54.73.73,0,0,0,.29.48l2,1.44a.74.74,0,0,0,1-.16l1.44-2a.74.74,0,0,0-.16-1l-2-1.44A.76.76,0,0,0,24.73,22.56Z"/><path class="cls-1" d="M25.1,27.77a.83.83,0,0,1-.57-.22l-2-1.81a.85.85,0,0,1-.28-.59.8.8,0,0,1,.22-.62l1.81-2a.86.86,0,0,1,1.21-.06l2,1.81a.86.86,0,0,1,.06,1.21l-1.81,2A.84.84,0,0,1,25.1,27.77Zm-.2-5.5a.8.8,0,0,0-.6.27l-1.82,2a.83.83,0,0,0-.21.58.79.79,0,0,0,.27.56l2,1.82a.81.81,0,0,0,1.14-.06l1.82-2a.81.81,0,0,0-.06-1.14l-2-1.82A.8.8,0,0,0,24.9,22.27Z"/><path class="cls-1" d="M24.89,28.08a1,1,0,0,1-.71-.31l-2-2.24a1,1,0,0,1-.24-.69.92.92,0,0,1,.31-.66l2.24-2a1,1,0,0,1,1.35.07l2,2.24a1,1,0,0,1-.07,1.35l-2.24,2A1,1,0,0,1,24.89,28.08ZM25.11,22a.87.87,0,0,0-.6.23l-2.24,2a.88.88,0,0,0-.3.62.91.91,0,0,0,.23.65l2,2.24a.9.9,0,0,0,1.27.07l2.24-2a.9.9,0,0,0,.07-1.27l-2-2.24A.89.89,0,0,0,25.11,22Z"/><path class="cls-1" d="M24.63,28.4a1.05,1.05,0,0,1-.86-.44l-2-2.71a1.11,1.11,0,0,1-.19-.79,1.08,1.08,0,0,1,.43-.69l2.71-2a1.06,1.06,0,0,1,1.48.24l2,2.71A1.06,1.06,0,0,1,28,26.23l-2.71,2A1.09,1.09,0,0,1,24.63,28.4Zm.15-6.55-2.71,2a1,1,0,0,0-.4.65,1,1,0,0,0,.18.75l2,2.71a1,1,0,0,0,1.4.22l2.71-2a1,1,0,0,0,.22-1.4l-2-2.71a1,1,0,0,0-1.4-.22Z"/><path class="cls-1" d="M24.32,28.72a1.17,1.17,0,0,1-1-.59l-1.86-3.22a1.17,1.17,0,0,1,.43-1.61l3.22-1.86a1.18,1.18,0,0,1,1.61.43l1.86,3.22a1.18,1.18,0,0,1-.43,1.61l-3.22,1.86A1.16,1.16,0,0,1,24.32,28.72Zm.8-7.23L21.9,23.35a1.11,1.11,0,0,0-.52.68,1.1,1.1,0,0,0,.11.85l1.86,3.22a1.13,1.13,0,0,0,1.53.41l3.22-1.86a1.12,1.12,0,0,0,.41-1.53L26.65,21.9a1.12,1.12,0,0,0-1.53-.41Z"/><path class="cls-1" d="M24,29a1.29,1.29,0,0,1-1.19-.78l-1.69-3.78a1.31,1.31,0,0,1,.67-1.72l3.78-1.69a1.31,1.31,0,0,1,1.72.67l1.69,3.78a1.31,1.31,0,0,1-.67,1.72l-3.78,1.69A1.4,1.4,0,0,1,24,29Zm1.59-7.9-3.77,1.68a1.21,1.21,0,0,0-.66.69,1.23,1.23,0,0,0,0,.94l1.68,3.78a1.24,1.24,0,0,0,1.64.63l3.77-1.68a1.24,1.24,0,0,0,.63-1.64l-1.68-3.77a1.24,1.24,0,0,0-1.64-.63Z"/><path class="cls-1" d="M23.53,29.35a1.46,1.46,0,0,1-1.39-1L20.72,24a1.43,1.43,0,0,1,.09-1.11,1.49,1.49,0,0,1,.84-.72L26,20.72a1.45,1.45,0,0,1,1.83.93L29.28,26a1.45,1.45,0,0,1-.93,1.83L24,29.28A1.39,1.39,0,0,1,23.53,29.35Zm2.52-8.55-4.37,1.42a1.35,1.35,0,0,0-.8.68A1.33,1.33,0,0,0,20.8,24l1.42,4.37A1.37,1.37,0,0,0,24,29.2l4.37-1.42a1.37,1.37,0,0,0,.88-1.73l-1.42-4.37a1.37,1.37,0,0,0-1.73-.88Z"/><path class="cls-1" d="M23,29.64a1.62,1.62,0,0,1-1.58-1.28l-1.06-5a1.6,1.6,0,0,1,.23-1.22,1.58,1.58,0,0,1,1-.7l5-1.06a1.6,1.6,0,0,1,1.22.23,1.59,1.59,0,0,1,.7,1l1.06,5a1.63,1.63,0,0,1-1.25,1.92l-5,1.06A2,2,0,0,1,23,29.64ZM27,20.44a1.17,1.17,0,0,0-.32,0l-5,1.06a1.52,1.52,0,0,0-1.17,1.81l1.06,5a1.52,1.52,0,0,0,1.81,1.17l5-1.06a1.52,1.52,0,0,0,1.17-1.81l-1.06-5a1.51,1.51,0,0,0-.66-1A1.55,1.55,0,0,0,27,20.44Z"/><path class="cls-1" d="M22.47,29.91a1.8,1.8,0,0,1-1.78-1.6l-.59-5.65a1.78,1.78,0,0,1,.39-1.31,1.75,1.75,0,0,1,1.2-.66l5.65-.59a1.78,1.78,0,0,1,1.31.39,1.75,1.75,0,0,1,.66,1.2l.59,5.65a1.79,1.79,0,0,1-1.59,2l-5.65.59Zm4.88-9.72-5.65.6a1.64,1.64,0,0,0-1.14.62,1.73,1.73,0,0,0-.37,1.24l.6,5.65a1.64,1.64,0,0,0,.62,1.14,1.73,1.73,0,0,0,1.24.37l5.65-.6a1.69,1.69,0,0,0,1.51-1.86l-.6-5.65a1.7,1.7,0,0,0-1.86-1.51Z"/><path class="cls-1" d="M28.15,30.15h-6.3a2,2,0,0,1-2-2v-6.3a2,2,0,0,1,2-2h6.3a2,2,0,0,1,2,2v6.3A2,2,0,0,1,28.15,30.15ZM21.85,20A1.88,1.88,0,0,0,20,21.85v6.3A1.88,1.88,0,0,0,21.85,30h6.3A1.89,1.89,0,0,0,30,28.15v-6.3A1.89,1.89,0,0,0,28.15,20Z"/><path class="cls-1" d="M28.12,31.07l-.23,0-7-.73a2.21,2.21,0,0,1-2-2.43l.73-7a2.21,2.21,0,0,1,2.43-2l7,.73a2.21,2.21,0,0,1,2,2.43l-.73,7A2.22,2.22,0,0,1,28.12,31.07Zm-6.24-12a2.09,2.09,0,0,0-2.08,1.88l-.73,7a2.08,2.08,0,0,0,1.86,2.3l7,.73a2.08,2.08,0,0,0,2.3-1.86l.73-7a2.08,2.08,0,0,0-1.86-2.3l-7-.73Z"/><path class="cls-1" d="M28,32.08a2.94,2.94,0,0,1-.51,0l-7.62-1.62A2.46,2.46,0,0,1,18,27.49l1.61-7.62A2.48,2.48,0,0,1,22.51,18l7.62,1.62A2.48,2.48,0,0,1,32,22.51l-1.62,7.62A2.48,2.48,0,0,1,28,32.08Zm-6-14a2.35,2.35,0,0,0-1.27.38,2.32,2.32,0,0,0-1,1.47l-1.61,7.61a2.33,2.33,0,0,0,1.79,2.77l7.61,1.61a2.33,2.33,0,0,0,2.77-1.79l1.62-7.61a2.35,2.35,0,0,0-1.8-2.77L22.49,18.1A2.81,2.81,0,0,0,22,18.05Z"/><path class="cls-1" d="M27.77,33.19a2.79,2.79,0,0,1-.84-.14L18.7,30.38A2.72,2.72,0,0,1,17.12,29,2.68,2.68,0,0,1,17,26.93l2.67-8.23A2.72,2.72,0,0,1,21,17.12,2.68,2.68,0,0,1,23.07,17l8.23,2.67a2.74,2.74,0,0,1,1.75,3.45L30.38,31.3A2.75,2.75,0,0,1,27.77,33.19ZM22.23,17a2.63,2.63,0,0,0-2.47,1.79L17.09,27a2.6,2.6,0,0,0,1.66,3.26L27,32.91a2.6,2.6,0,0,0,3.26-1.66L32.91,23a2.59,2.59,0,0,0-1.66-3.26L23,17.09A2.42,2.42,0,0,0,22.23,17Z"/><path class="cls-1" d="M27.43,34.38a2.92,2.92,0,0,1-1.23-.26l-8.78-3.91a3,3,0,0,1-1.54-4l3.91-8.78a3,3,0,0,1,4-1.54l8.78,3.91a3,3,0,0,1,1.54,4l-3.91,8.78a3,3,0,0,1-1.69,1.6A2.92,2.92,0,0,1,27.43,34.38Zm-4.86-18.6a2.81,2.81,0,0,0-1,.19,2.88,2.88,0,0,0-1.6,1.52L16,26.27a2.87,2.87,0,0,0,1.46,3.79L26.27,34a2.87,2.87,0,0,0,3.79-1.46L34,23.73a2.87,2.87,0,0,0-1.46-3.79L23.73,16A2.75,2.75,0,0,0,22.57,15.78Z"/><path class="cls-1" d="M26.94,35.67a3.3,3.3,0,0,1-1.67-.45L16,29.88a3.39,3.39,0,0,1-1.24-4.61L20.12,16a3.39,3.39,0,0,1,4.61-1.24L34,20.12a3.39,3.39,0,0,1,1.24,4.61L29.88,34a3.34,3.34,0,0,1-2.05,1.57A3.41,3.41,0,0,1,26.94,35.67ZM23.06,14.51a3.46,3.46,0,0,0-.84.11,3.17,3.17,0,0,0-1.94,1.49l-5.34,9.25a3.19,3.19,0,0,0,1.17,4.36l9.25,5.34a3.19,3.19,0,0,0,4.36-1.17l5.34-9.25a3.19,3.19,0,0,0-1.17-4.36l-9.25-5.34A3.18,3.18,0,0,0,23.06,14.51Z"/><path class="cls-1" d="M26.3,37a3.68,3.68,0,0,1-2.19-.72l-9.6-7A3.75,3.75,0,0,1,13,26.9a3.69,3.69,0,0,1,.67-2.79l7-9.6A3.75,3.75,0,0,1,23.1,13a3.69,3.69,0,0,1,2.79.67l9.6,7A3.75,3.75,0,0,1,37,23.1a3.69,3.69,0,0,1-.67,2.79l-7,9.6A3.75,3.75,0,0,1,26.9,37,4,4,0,0,1,26.3,37ZM23.7,13.17a3.64,3.64,0,0,0-.57,0,3.48,3.48,0,0,0-2.31,1.42l-7,9.6a3.53,3.53,0,0,0-.63,2.64,3.48,3.48,0,0,0,1.42,2.31l9.6,7a3.53,3.53,0,0,0,2.64.63,3.48,3.48,0,0,0,2.31-1.42l7-9.6a3.53,3.53,0,0,0,.63-2.64,3.48,3.48,0,0,0-1.42-2.31h0l-9.6-7A3.53,3.53,0,0,0,23.7,13.17Z"/><path class="cls-1" d="M25.48,38.47a4.14,4.14,0,0,1-2.78-1.06l-9.8-8.82a4.17,4.17,0,0,1-.31-5.89l8.82-9.8a4.19,4.19,0,0,1,2.88-1.37,4.13,4.13,0,0,1,3,1.06l9.8,8.82a4.19,4.19,0,0,1,1.37,2.88,4.13,4.13,0,0,1-1.06,3l-8.82,9.8a4.19,4.19,0,0,1-2.88,1.37Zm-1-26.72h-.21a3.89,3.89,0,0,0-2.73,1.29l-8.82,9.8a3.94,3.94,0,0,0,.29,5.57l9.8,8.82A4,4,0,0,0,28.42,37l8.82-9.8A4,4,0,0,0,37,21.58l-9.8-8.82A3.88,3.88,0,0,0,24.52,11.75Z"/><path class="cls-1" d="M24.46,40A4.55,4.55,0,0,1,21,38.44L11.21,27.56A4.65,4.65,0,0,1,11.56,21l10.88-9.8a4.64,4.64,0,0,1,6.55.35l9.8,10.88A4.65,4.65,0,0,1,38.44,29l-10.88,9.8A4.64,4.64,0,0,1,24.46,40Zm1.07-29.69a4.33,4.33,0,0,0-2.92,1.12L11.72,21.2a4.39,4.39,0,0,0-.32,6.19l9.8,10.89a4.39,4.39,0,0,0,6.19.32l10.89-9.8a4.39,4.39,0,0,0,.32-6.19L28.8,11.72a4.42,4.42,0,0,0-3-1.44Z"/><path class="cls-1" d="M23.22,41.51a5.55,5.55,0,0,1-.82-.06A5.14,5.14,0,0,1,19,39.39L9.47,26.23A5.16,5.16,0,0,1,10.61,19L23.77,9.47A5.16,5.16,0,0,1,31,10.61l9.56,13.16A5.16,5.16,0,0,1,39.39,31L26.23,40.53A5.13,5.13,0,0,1,23.22,41.51ZM26.78,8.77a4.84,4.84,0,0,0-2.84.92L10.77,19.26a4.89,4.89,0,0,0-1.08,6.8l9.57,13.17a4.89,4.89,0,0,0,6.8,1.08l13.17-9.57a4.87,4.87,0,0,0,1.08-6.8L30.74,10.77a4.81,4.81,0,0,0-3.18-1.94A5.12,5.12,0,0,0,26.78,8.77Z"/><path class="cls-1" d="M21.71,43.07a6,6,0,0,1-1.5-.2,5.67,5.67,0,0,1-3.47-2.66l-9-15.66a5.74,5.74,0,0,1,2.1-7.81l15.66-9a5.73,5.73,0,0,1,7.81,2.1l9.05,15.66a5.73,5.73,0,0,1-2.1,7.81L24.55,42.31A5.73,5.73,0,0,1,21.71,43.07ZM28.3,7.24A5.39,5.39,0,0,0,25.6,8L9.94,17a5.45,5.45,0,0,0-2,7.4l9,15.66a5.45,5.45,0,0,0,7.4,2l15.66-9a5.43,5.43,0,0,0,2-7.4L33,9.94A5.44,5.44,0,0,0,28.3,7.24Z"/><path class="cls-1" d="M19.92,44.62a6.4,6.4,0,0,1-5.82-3.77L5.93,22.49A6.36,6.36,0,0,1,9.15,14.1L27.51,5.93A6.37,6.37,0,0,1,35.9,9.15l8.17,18.36a6.37,6.37,0,0,1-3.22,8.39L22.49,44.07A6.22,6.22,0,0,1,19.92,44.62ZM30.08,5.72a6,6,0,0,0-2.43.52L9.29,14.42a6,6,0,0,0-3,7.93l8.18,18.36a6,6,0,0,0,7.93,3l18.36-8.18a6,6,0,0,0,3-7.93L35.58,9.29a6.07,6.07,0,0,0-5.5-3.57Z"/><path class="cls-1" d="M17.84,46.13a7.1,7.1,0,0,1-6.72-4.88L4.22,20a7.07,7.07,0,0,1,4.53-8.89L30,4.22a7.06,7.06,0,0,1,8.89,4.53L45.78,30a7.06,7.06,0,0,1-4.53,8.89L20,45.78A7,7,0,0,1,17.84,46.13ZM32.16,4.25a6.77,6.77,0,0,0-2.06.33L8.87,11.48A6.7,6.7,0,0,0,4.58,19.9l6.9,21.23a6.7,6.7,0,0,0,8.42,4.29l21.23-6.9a6.69,6.69,0,0,0,4.29-8.42L38.52,8.87A6.7,6.7,0,0,0,32.16,4.25Z"/><path class="cls-1" d="M15.44,47.56a7.9,7.9,0,0,1-7.67-6.22L2.61,17.08A7.89,7.89,0,0,1,8.66,7.77L32.92,2.61a7.89,7.89,0,0,1,9.31,6.05l5.16,24.26a7.89,7.89,0,0,1-6,9.31L17.08,47.39A8.3,8.3,0,0,1,15.44,47.56ZM34.56,2.87A7.35,7.35,0,0,0,33,3L8.75,8.19A7.43,7.43,0,0,0,3,17L8.19,41.26A7.44,7.44,0,0,0,17,47l24.27-5.16A7.44,7.44,0,0,0,47,33L41.81,8.74a7.44,7.44,0,0,0-7.25-5.87Z"/><path class="cls-1" d="M12.73,48.87a8.74,8.74,0,0,1-8.67-7.81L1.18,13.65A8.74,8.74,0,0,1,8.94,4.06L36.35,1.18a8.74,8.74,0,0,1,9.59,7.76l2.88,27.41a8.76,8.76,0,0,1-7.76,9.59L13.65,48.82C13.34,48.85,13,48.87,12.73,48.87ZM37.27,1.61a8.71,8.71,0,0,0-.87,0L9,4.53A8.27,8.27,0,0,0,1.65,13.6L4.53,41a8.26,8.26,0,0,0,9.07,7.34L41,45.47a8.27,8.27,0,0,0,7.34-9.07L45.47,9A8.26,8.26,0,0,0,37.27,1.61Z"/><path class="cls-1" d="M40.31,50H9.69A9.7,9.7,0,0,1,0,40.31V9.69A9.7,9.7,0,0,1,9.69,0H40.31A9.7,9.7,0,0,1,50,9.69V40.31A9.7,9.7,0,0,1,40.31,50ZM9.69.52A9.18,9.18,0,0,0,.52,9.69V40.31a9.18,9.18,0,0,0,9.17,9.17H40.31a9.18,9.18,0,0,0,9.17-9.17V9.69A9.18,9.18,0,0,0,40.31.52Z"/></g></g></svg>