<svg width="44" height="44" viewBox="0 0 44 44" fill="none" xmlns="http://www.w3.org/2000/svg">
<path fill-rule="evenodd" clip-rule="evenodd" d="M10.4815 20.4464C9.40085 21.527 8.3419 23.2831 8.06775 25.337C7.78267 27.4728 8.36409 29.842 10.4459 31.9238C13.2704 34.7484 18.317 35.4946 21.9233 31.8883C24.276 29.5356 24.5447 26.6957 24.2962 24.9386L24.9146 24.3203L28.1068 24.3104C29.3474 24.3065 30.3925 23.3705 30.5334 22.137L30.8934 18.9836L33.8256 18.6489C35.3121 18.4791 36.3041 17.0232 35.9152 15.582L34.6212 10.7868C34.3356 9.72848 33.3758 8.99661 32.2778 9.00001L27.4952 9.01483C26.8494 9.01684 26.2293 9.27527 25.7713 9.73328L17.4218 18.0828C15.9614 17.8816 13.0318 17.896 10.4815 20.4464ZM12.7485 29.6212C11.3978 28.2705 11.1299 26.9122 11.2855 25.7469C11.452 24.4997 12.1235 23.3811 12.7698 22.7348C14.4506 21.0541 16.3552 21.1824 17.1534 21.33C17.8935 21.4668 18.7857 21.2956 19.4435 20.6378L27.8213 12.2601L31.6479 12.2482L32.5338 15.5312L29.8994 15.832C28.7672 15.9613 27.871 16.8575 27.7417 17.9896L27.3905 21.0663L24.5885 21.075C23.9427 21.077 23.3226 21.3354 22.8646 21.7935L21.7319 22.9262C21.0604 23.5977 20.9089 24.5022 21.0515 25.2314C21.2426 26.209 21.1707 28.0641 19.635 29.5999C17.4848 31.75 14.5007 31.3734 12.7485 29.6212ZM15.0582 25.0231C14.4224 25.659 14.4192 26.6867 15.0511 27.3186C15.683 27.9505 16.7107 27.9474 17.3466 27.3115C17.9824 26.6757 17.9856 25.6479 17.3537 25.016C16.7218 24.3841 15.6941 24.3873 15.0582 25.0231Z" fill="#579AF2"/>
</svg>
