<svg width="28" height="28" viewBox="0 0 28 28" fill="none" xmlns="http://www.w3.org/2000/svg">
<path fill-rule="evenodd" clip-rule="evenodd" d="M3.21523e-06 13.7143C2.88415e-06 21.2885 6.1401 27.4286 13.7143 27.4286C21.2885 27.4286 27.4286 21.2885 27.4286 13.7143C27.4286 6.14009 21.2885 -2.68392e-07 13.7143 -5.9947e-07C6.1401 -9.30549e-07 3.54631e-06 6.14009 3.21523e-06 13.7143ZM10.8489 11.2094C11.1223 10.8982 11.0916 10.4243 10.7804 10.1509C10.4693 9.87753 9.99539 9.90816 9.722 10.2193L7.41001 12.8509C7.14735 12.9675 6.96417 13.2307 6.96417 13.5366C6.96417 13.5506 6.96455 13.5645 6.96531 13.5783C6.96472 13.5905 6.96443 13.6027 6.96443 13.615L6.96443 13.6172C6.96373 13.6391 6.96398 13.6609 6.96519 13.6828C6.95564 13.8785 7.02303 14.0744 7.15992 14.2246L9.73129 17.0469C10.0103 17.353 10.4846 17.3751 10.7908 17.0961C11.097 16.8172 11.1191 16.3428 10.8401 16.0366L9.41227 14.4695L17.9651 14.4695L16.5794 16.0468C16.306 16.3579 16.3366 16.8318 16.6478 17.1052C16.959 17.3786 17.4328 17.348 17.7062 17.0368L20.0182 14.4053C20.2809 14.2886 20.4641 14.0254 20.4641 13.7195C20.4641 13.7055 20.4637 13.6916 20.4629 13.6778C20.4635 13.6656 20.4638 13.6534 20.4638 13.6411L20.4638 13.6389C20.4645 13.6171 20.4642 13.5952 20.463 13.5734C20.4726 13.3776 20.4052 13.1818 20.2683 13.0315L17.6969 10.2093C17.418 9.90309 16.9436 9.88102 16.6374 10.16C16.3312 10.439 16.3092 10.9133 16.5881 11.2195L18.016 12.7866L9.46313 12.7866L10.8489 11.2094Z" fill="#41CC5D"/>
</svg>
