<svg xmlns="http://www.w3.org/2000/svg" viewBox="0 0 50 50"><defs><style>.cls-1{fill:#5b5b5b;}</style></defs><g id="Layer_2" data-name="Layer 2"><g id="Layer_1-2" data-name="Layer 1"><ellipse class="cls-1" cx="1.77" cy="2.05" rx="1.77" ry="2.05"/><ellipse class="cls-1" cx="11.06" cy="2.05" rx="1.77" ry="2.05"/><ellipse class="cls-1" cx="20.35" cy="2.05" rx="1.77" ry="2.05"/><ellipse class="cls-1" cx="29.65" cy="2.05" rx="1.77" ry="2.05"/><ellipse class="cls-1" cx="38.94" cy="2.05" rx="1.77" ry="2.05"/><ellipse class="cls-1" cx="48.23" cy="2.05" rx="1.77" ry="2.05"/><ellipse class="cls-1" cx="1.77" cy="16.8" rx="1.77" ry="2.05"/><ellipse class="cls-1" cx="11.06" cy="16.8" rx="1.77" ry="2.05"/><ellipse class="cls-1" cx="20.35" cy="16.8" rx="1.77" ry="2.05"/><ellipse class="cls-1" cx="29.65" cy="16.8" rx="1.77" ry="2.05"/><ellipse class="cls-1" cx="38.94" cy="16.8" rx="1.77" ry="2.05"/><ellipse class="cls-1" cx="48.23" cy="16.8" rx="1.77" ry="2.05"/><ellipse class="cls-1" cx="6.42" cy="9.38" rx="1.77" ry="2.05"/><ellipse class="cls-1" cx="15.71" cy="9.38" rx="1.77" ry="2.05"/><ellipse class="cls-1" cx="25" cy="9.38" rx="1.77" ry="2.05"/><ellipse class="cls-1" cx="34.29" cy="9.38" rx="1.77" ry="2.05"/><ellipse class="cls-1" cx="43.58" cy="9.38" rx="1.77" ry="2.05"/><ellipse class="cls-1" cx="1.77" cy="32.22" rx="1.77" ry="2.05"/><ellipse class="cls-1" cx="11.06" cy="32.22" rx="1.77" ry="2.05"/><ellipse class="cls-1" cx="20.35" cy="32.22" rx="1.77" ry="2.05"/><ellipse class="cls-1" cx="29.65" cy="32.22" rx="1.77" ry="2.05"/><ellipse class="cls-1" cx="38.94" cy="32.22" rx="1.77" ry="2.05"/><ellipse class="cls-1" cx="48.23" cy="32.22" rx="1.77" ry="2.05"/><ellipse class="cls-1" cx="6.42" cy="24.8" rx="1.77" ry="2.05"/><ellipse class="cls-1" cx="15.71" cy="24.8" rx="1.77" ry="2.05"/><ellipse class="cls-1" cx="25" cy="24.8" rx="1.77" ry="2.05"/><ellipse class="cls-1" cx="34.29" cy="24.8" rx="1.77" ry="2.05"/><ellipse class="cls-1" cx="43.58" cy="24.8" rx="1.77" ry="2.05"/><ellipse class="cls-1" cx="1.77" cy="47.95" rx="1.77" ry="2.05"/><ellipse class="cls-1" cx="11.06" cy="47.95" rx="1.77" ry="2.05"/><ellipse class="cls-1" cx="20.35" cy="47.95" rx="1.77" ry="2.05"/><ellipse class="cls-1" cx="29.65" cy="47.95" rx="1.77" ry="2.05"/><ellipse class="cls-1" cx="38.94" cy="47.95" rx="1.77" ry="2.05"/><ellipse class="cls-1" cx="48.23" cy="47.95" rx="1.77" ry="2.05"/><ellipse class="cls-1" cx="6.42" cy="40.53" rx="1.77" ry="2.05"/><ellipse class="cls-1" cx="15.71" cy="40.53" rx="1.77" ry="2.05"/><ellipse class="cls-1" cx="25" cy="40.53" rx="1.77" ry="2.05"/><ellipse class="cls-1" cx="34.29" cy="40.53" rx="1.77" ry="2.05"/><ellipse class="cls-1" cx="43.58" cy="40.53" rx="1.77" ry="2.05"/></g></g></svg>