<svg xmlns="http://www.w3.org/2000/svg" viewBox="0 0 50 50"><defs><style>.cls-1{fill:none;}.cls-2{fill:#5b5b5b;}</style></defs><g id="Layer_2" data-name="Layer 2"><g id="Layer_1-2" data-name="Layer 1"><polygon class="cls-1" points="43.45 45.14 45.13 41.77 38.39 41.77 43.45 45.14"/><path class="cls-1" d="M25.56,33.23l11.06,7.36-1.94-3.87L33,33.42a.32.32,0,0,1-.06-.2.45.45,0,0,1,0-.16l3.61-7.2Z"/><polygon class="cls-1" points="25.74 32.37 36.34 25.31 29.28 25.31 25.74 32.37"/><polygon class="cls-1" points="41.49 49.05 43.17 45.68 38.12 42.32 41.49 49.05"/><polygon class="cls-1" points="41.01 33.54 33.72 33.54 37.37 40.82 41.01 33.54"/><polygon class="cls-1" points="24.25 32.36 20.71 25.31 13.66 25.31 18.95 28.84 24.25 32.36"/><polygon class="cls-1" points="25.48 16.45 32.77 16.45 29.12 9.17 25.48 16.45"/><polygon class="cls-1" points="24.73 15.59 24.73 8.86 21.36 8.86 24.73 15.59"/><polygon class="cls-1" points="24.52 16.45 20.88 9.17 17.23 16.45 24.52 16.45"/><polygon class="cls-1" points="20.4 24.68 16.76 17.4 13.12 24.68 20.4 24.68"/><polygon class="cls-1" points="25.27 15.59 28.64 8.86 25.27 8.86 25.27 15.59"/><polygon class="cls-1" points="6.83 45.68 8.51 49.05 11.88 42.32 6.83 45.68"/><polygon class="cls-1" points="16.76 49.05 20.4 41.77 13.12 41.77 16.76 49.05"/><polygon class="cls-1" points="16.29 33.54 8.99 33.54 12.64 40.82 16.29 33.54"/><polygon class="cls-1" points="29.59 41.77 33.24 49.05 36.89 41.77 29.59 41.77"/><polygon class="cls-1" points="25.48 17.09 29.12 24.36 32.76 17.09 25.48 17.09"/><polygon class="cls-1" points="17.24 17.09 20.88 24.36 24.53 17.09 17.24 17.09"/><polygon class="cls-1" points="24.73 17.95 21.19 25.01 24.73 32.05 24.73 17.95"/><polygon class="cls-1" points="25.27 17.95 25.27 32.05 28.8 25 25.27 17.95"/><polygon class="cls-1" points="13.66 41.14 20.72 41.14 24.25 34.1 13.66 41.14"/><polygon class="cls-1" points="25.75 34.09 29.28 41.13 36.34 41.14 25.75 34.09"/><polygon class="cls-1" points="8.51 33.85 4.87 41.13 12.16 41.13 8.51 33.85"/><polygon class="cls-1" points="17.24 49.36 24.53 49.36 20.88 42.08 17.24 49.36"/><polygon class="cls-1" points="8.99 49.36 16.28 49.36 12.63 42.08 8.99 49.36"/><polygon class="cls-1" points="12.63 25.62 8.99 32.9 16.28 32.9 12.63 25.62"/><polygon class="cls-1" points="24.73 1.49 21.35 8.23 24.73 8.23 24.73 1.49"/><polygon class="cls-1" points="25.47 49.36 32.77 49.36 29.12 42.08 25.47 49.36"/><polygon class="cls-1" points="25.27 8.23 28.64 8.23 25.27 1.49 25.27 8.23"/><path class="cls-1" d="M17,33.22h0a.28.28,0,0,1,0,.09v0l0,.05-3.61,7.21,11.07-7.36-5.79-3.85-5.29-3.52L17,33A.31.31,0,0,1,17,33.22Z"/><polygon class="cls-1" points="37.37 42.09 33.72 49.37 41.01 49.37 37.37 42.09"/><polygon class="cls-1" points="29.59 24.68 36.88 24.68 33.24 17.4 29.59 24.68"/><polygon class="cls-1" points="24.73 34.4 21.2 41.45 24.73 48.5 24.73 34.4"/><polygon class="cls-1" points="6.36 46 1.3 49.36 8.04 49.36 6.36 46"/><polygon class="cls-1" points="25.27 34.4 25.27 48.5 28.8 41.45 25.27 34.4"/><polygon class="cls-1" points="6.08 45.45 4.39 42.08 1.02 48.81 6.08 45.45"/><polygon class="cls-1" points="6.55 45.13 11.62 41.76 4.87 41.76 6.55 45.13"/><polygon class="cls-1" points="37.84 41.14 45.13 41.14 41.49 33.86 37.84 41.14"/><polygon class="cls-1" points="43.65 46 41.96 49.37 48.7 49.37 43.65 46"/><polygon class="cls-1" points="43.92 45.45 48.98 48.82 45.61 42.09 43.92 45.45"/><polygon class="cls-1" points="33.71 32.91 41.01 32.91 37.36 25.63 33.71 32.91"/><path class="cls-2" d="M50,49.75a.13.13,0,0,0,0-.06h0a.33.33,0,0,0,0-.15h0l-4.12-8.23h0l-4.12-8.22a.05.05,0,0,0,0,0l-4.1-8.19-4.12-8.22h0L29.36,8.38h0L25.24.16h0a.22.22,0,0,0-.09-.1h0l-.05,0h-.16l-.05,0h0a.22.22,0,0,0-.09.1h0L20.64,8.38h0l-4.11,8.23h0l-4.08,8.16h0s0,0,0,.05L8.28,33.06h0L4.16,41.29,0,49.52H0a.4.4,0,0,0,0,.15H0a.15.15,0,0,0,0,.07H0s0,.05,0,.07a.16.16,0,0,0,0,.07h0l0,0h0a.2.2,0,0,0,.13,0H49.81s0,0,0,0h0a.24.24,0,0,0,.09-.11s0-.05,0-.07Zm-16.75-.7-3.65-7.28h7.3Zm-4-7.92-3.53-7,10.59,7ZM16.76,49.05l-3.64-7.28H20.4Zm-.47-15.51-3.65,7.28L9,33.54ZM8.51,49,6.83,45.68l5.05-3.36Zm12.21-7.9H13.66l10.58-7Zm4.75-24h7.29l-3.64,7.27Zm-4.59,7.27-3.64-7.27h7.29ZM24.73,18V32l-3.54-7Zm.54,0L28.8,25l-3.53,7Zm-4.56,7.36,3.54,7.05L19,28.84l-5.29-3.53ZM41,33.54l-3.64,7.28-3.65-7.28Zm.48,15.51-3.37-6.73,5.05,3.36Zm2-3.91-5.06-3.37h6.74ZM33,33.06a.45.45,0,0,0,0,.16.32.32,0,0,0,.06.2l1.65,3.3,1.94,3.87L25.56,33.23l11.05-7.37Zm-7.26-.69,3.54-7.06h7.06Zm-.27-15.92,3.65-7.28,3.65,7.28Zm-.2-.86V8.86h3.37Zm-.54,0L21.36,8.86h3.37ZM20.88,9.17l3.65,7.28h-7.3ZM16.76,17.4l3.64,7.28H13.12Zm1.91,12,5.79,3.85L13.39,40.59,17,33.38l0-.05v0a.28.28,0,0,0,0-.09h0A.31.31,0,0,0,17,33l-3.59-7.17ZM6.56,45.13,4.87,41.76h6.75ZM4.39,42.08l1.69,3.37L1,48.81Zm2,3.92L8,49.36H1.3ZM24.73,34.4V48.5l-3.53-7Zm.54,0,3.53,7.05-3.53,7ZM43.65,46l5.05,3.37H42Zm.27-.55,1.69-3.36L49,48.82Zm-6.08-4.31,3.65-7.28,3.64,7.28Zm-4.13-8.23,3.65-7.28L41,32.91ZM29.6,24.68l3.64-7.28,3.64,7.28ZM25.27,8.23V1.49l3.37,6.74Zm-.54-6.74V8.23H21.35ZM12.63,25.62l3.65,7.28H9ZM8.51,33.85l3.65,7.28H4.87ZM9,49.36l3.64-7.28,3.65,7.28Zm8.25,0,3.64-7.28,3.65,7.28Zm8.23,0,3.65-7.28,3.65,7.28Zm11.9-7.27L41,49.37H33.72Z"/></g></g></svg>