<svg width="32" height="32" viewBox="0 0 32 32" fill="none" xmlns="http://www.w3.org/2000/svg">
<circle cx="16" cy="16" r="16" fill="white" fill-opacity="0.1"/>
<path fill-rule="evenodd" clip-rule="evenodd" d="M9.41798 15.3277C8.80049 15.9251 8.19537 16.8959 8.03871 18.0313C7.87581 19.212 8.20805 20.5218 9.39766 21.6726C11.0117 23.2341 13.8954 23.6466 15.9562 21.653C17.3006 20.3524 17.4541 18.7825 17.3121 17.8111L17.6655 17.4693L19.4896 17.4638C20.1985 17.4617 20.7957 16.9442 20.8762 16.2623L21.0819 14.5191L22.7575 14.334C23.6069 14.2402 24.1738 13.4353 23.9515 12.6386L23.2121 9.98779C23.0489 9.40272 22.5004 8.99813 21.873 9.00001L19.1401 9.0082C18.7711 9.00931 18.4168 9.15217 18.155 9.40537L13.3839 14.0211C12.5494 13.9099 10.8753 13.9179 9.41798 15.3277ZM10.7134 20.3997C9.94158 19.653 9.78854 18.9021 9.87742 18.2579C9.97255 17.5685 10.3563 16.9501 10.7256 16.5928C11.686 15.6637 12.7744 15.7346 13.2305 15.8162C13.6534 15.8918 14.1633 15.7972 14.5392 15.4336L19.3264 10.8022L21.5131 10.7957L22.0193 12.6106L20.5139 12.7768C19.867 12.8483 19.3549 13.3437 19.281 13.9696L19.0803 15.6704L17.4791 15.6752C17.1101 15.6764 16.7558 15.8192 16.4941 16.0724L15.8468 16.6986C15.4631 17.0698 15.3765 17.5698 15.458 17.973C15.5672 18.5134 15.5261 19.5389 14.6485 20.3879C13.4199 21.5766 11.7147 21.3684 10.7134 20.3997ZM12.0333 17.8578C11.6699 18.2093 11.6681 18.7775 12.0292 19.1268C12.3903 19.4761 12.9776 19.4744 13.3409 19.1229C13.7042 18.7714 13.7061 18.2032 13.345 17.8539C12.9839 17.5046 12.3966 17.5063 12.0333 17.8578Z" fill="white" fill-opacity="0.3"/>
</svg>
