<svg width="32" height="32" viewBox="0 0 32 32" fill="none" xmlns="http://www.w3.org/2000/svg">
<rect width="32" height="32" rx="16" fill="black" fill-opacity="0.06"/>
<path fill-rule="evenodd" clip-rule="evenodd" d="M10.4524 20.3286L10.2427 20.2993C8.81357 20.1 7.71429 18.8987 7.71429 17.45C7.71429 15.8836 8.99784 14.6091 10.5947 14.5723L11.6877 14.547L12.1252 13.5702C12.8907 11.8608 14.6382 10.6714 16.6667 10.6714C19.1117 10.6714 21.1459 12.4007 21.547 14.6734L21.7226 15.6679L22.707 15.9796C23.6254 16.2704 24.2857 17.1122 24.2857 18.1C24.2857 19.3308 23.2624 20.3286 22 20.3286L21.9933 20.3286L10.4524 20.3286ZM9.99998 21.9539V22L22 22C24.2091 22 26 20.2539 26 18.1C26 16.3668 24.8405 14.8977 23.2365 14.3899C22.6963 11.3289 19.9604 9 16.6667 9C13.9324 9 11.5826 10.6049 10.5541 12.9013C8.0288 12.9596 6 14.9738 6 17.45C6 19.7422 7.73846 21.6385 9.99998 21.9539Z" fill="black" fill-opacity="0.3"/>
</svg>
