<svg width="32" height="32" viewBox="0 0 32 32" fill="none" xmlns="http://www.w3.org/2000/svg">
<rect width="32" height="32" rx="16" fill="white" fill-opacity="0.1"/>
<path fill-rule="evenodd" clip-rule="evenodd" d="M10.4524 21.2L10.2427 21.1685C8.81357 20.9538 7.71429 19.6602 7.71429 18.1C7.71429 16.4131 8.99784 15.0406 10.5947 15.0009L11.6877 14.9737L12.1252 13.9217C12.8907 12.0808 14.6382 10.8 16.6667 10.8C19.1117 10.8 21.1459 12.6623 21.547 15.1098L21.7226 16.1809L22.707 16.5165C23.6254 16.8296 24.2857 17.7362 24.2857 18.8C24.2857 20.1255 23.2624 21.2 22 21.2L21.9933 21.2L10.4524 21.2ZM9.99998 22.9504V23L22 23C24.2091 23 26 21.1196 26 18.8C26 16.9335 24.8405 15.3514 23.2365 14.8045C22.6963 11.508 19.9604 9 16.6667 9C13.9324 9 11.5826 10.7284 10.5541 13.2014C8.0288 13.2641 6 15.4333 6 18.1C6 20.5685 7.73846 22.6107 9.99998 22.9504Z" fill="white" fill-opacity="0.3"/>
</svg>
