<svg width="28" height="28" viewBox="0 0 28 28" fill="none" xmlns="http://www.w3.org/2000/svg">
<g id="compass" clip-path="url(#clip0_21871_13707)">
<path id="Vector" d="M19.8334 3.89719C21.6069 4.92116 23.0797 6.39395 24.1037 8.16752C25.1277 9.94109 25.6667 11.953 25.6667 14.0009C25.6667 16.0488 25.1276 18.0607 24.1036 19.8342C23.0796 21.6078 21.6068 23.0806 19.8332 24.1045C18.0597 25.1285 16.0478 25.6675 13.9999 25.6675C11.9519 25.6675 9.94006 25.1283 8.16652 24.1043C6.39297 23.0803 4.92021 21.6075 3.89628 19.8339C2.87235 18.0603 2.33332 16.0485 2.33337 14.0005L2.33921 13.6225C2.40454 11.6077 2.99085 9.64415 4.04095 7.92335C5.09106 6.20255 6.56914 4.78322 8.33108 3.80372C10.093 2.82422 12.0787 2.31799 14.0945 2.33437C16.1104 2.35075 18.0876 2.88919 19.8334 3.89719ZM18.298 8.22669L11.298 10.56C11.126 10.6173 10.9697 10.7138 10.8415 10.842C10.7133 10.9702 10.6168 11.1265 10.5595 11.2985L8.21804 18.3289L8.19121 18.4292L8.17137 18.561L8.16671 18.6404V18.6917L8.17721 18.8212L8.19121 18.9029L8.23787 19.0709L8.29037 19.1875L8.35337 19.2984L8.42804 19.4034L8.50854 19.4909L8.60654 19.5772L8.72087 19.6589L8.83754 19.7219L8.92854 19.7604L9.05104 19.7989L9.17821 19.8222L9.22837 19.828L9.30771 19.8327H9.35904L9.48854 19.8222L9.57021 19.8082L9.59354 19.8012L9.61571 19.7989L9.70204 19.7732L16.702 17.4399C16.8741 17.3826 17.0304 17.2861 17.1585 17.1579C17.2867 17.0297 17.3833 16.8734 17.4405 16.7014L19.7739 9.70136C19.8424 9.4958 19.8524 9.2752 19.8026 9.06431C19.7528 8.85341 19.6453 8.66054 19.4921 8.50731C19.3389 8.35409 19.146 8.24657 18.9351 8.19679C18.7242 8.14702 18.5036 8.15814 18.298 8.22669ZM16.8222 11.1772L15.4105 15.411L11.1767 16.8227L12.5884 12.5889L16.8222 11.1772Z" fill="#41CC5D"/>
</g>
<defs>
<clipPath id="clip0_21871_13707">
<rect width="28" height="28" fill="white"/>
</clipPath>
</defs>
</svg>
