<svg width="24" height="24" viewBox="0 0 24 24" fill="none" xmlns="http://www.w3.org/2000/svg">
<path d="M11.1297 11.1701L14.2497 9.76007L12.8697 12.8301L9.71973 14.3201L11.1297 11.1701Z" fill="#41CC5D"/>
<path d="M12 2.00006C6.49 2.00006 2 6.49006 2 12.0001C2 17.5101 6.49 22.0001 12 22.0001C17.51 22.0001 22 17.5101 22 12.0001C22 6.49006 17.51 2.00006 12 2.00006ZM15.7 10.1701L14.19 13.4901C14.05 13.8001 13.8 14.0501 13.49 14.1901L10.17 15.7001C9.98 15.7901 9.78 15.8301 9.58 15.8301C9.21 15.8301 8.86 15.6901 8.58 15.4201C8.16 15.0001 8.05 14.3701 8.3 13.8301L9.81 10.5101C9.95 10.2001 10.2 9.95006 10.51 9.81006L13.83 8.30006C14.37 8.05006 15 8.16006 15.42 8.58006C15.84 9.00006 15.95 9.63006 15.7 10.1701Z" fill="#41CC5D"/>
</svg>
