<svg width="28" height="28" viewBox="0 0 28 28" fill="none" xmlns="http://www.w3.org/2000/svg">
<path d="M19.8333 3.89654C21.6069 4.92051 23.0797 6.3933 24.1037 8.16687C25.1276 9.94044 25.6667 11.9523 25.6667 14.0002C25.6667 16.0482 25.1276 18.06 24.1036 19.8336C23.0796 21.6072 21.6068 23.0799 19.8332 24.1039C18.0596 25.1278 16.0478 25.6669 13.9998 25.6668C11.9519 25.6668 9.94002 25.1277 8.16647 24.1037C6.39293 23.0797 4.92017 21.6069 3.89624 19.8333C2.87231 18.0597 2.33328 16.0478 2.33333 13.9999L2.33917 13.6219C2.4045 11.607 2.99081 9.6435 4.04091 7.9227C5.09102 6.2019 6.5691 4.78257 8.33104 3.80307C10.093 2.82357 12.0787 2.31734 14.0945 2.33372C16.1103 2.3501 18.0875 2.88854 19.8333 3.89654ZM18.298 8.22604L11.298 10.5594C11.126 10.6166 10.9697 10.7132 10.8415 10.8414C10.7133 10.9696 10.6168 11.1259 10.5595 11.2979L8.218 18.3282L8.19117 18.4285L8.17133 18.5604L8.16667 18.6397V18.691L8.17717 18.8205L8.19117 18.9022L8.23783 19.0702L8.29033 19.1869L8.35333 19.2977L8.428 19.4027L8.5085 19.4902L8.6065 19.5765L8.72083 19.6582L8.8375 19.7212L8.9285 19.7597L9.051 19.7982L9.17817 19.8215L9.22833 19.8274L9.30767 19.832H9.359L9.4885 19.8215L9.57017 19.8075L9.5935 19.8005L9.61567 19.7982L9.702 19.7725L16.702 17.4392C16.874 17.382 17.0303 17.2854 17.1585 17.1572C17.2867 17.029 17.3832 16.8727 17.4405 16.7007L19.7738 9.70071C19.8424 9.49515 19.8523 9.27455 19.8026 9.06365C19.7528 8.85276 19.6453 8.65989 19.492 8.50666C19.3388 8.35344 19.146 8.24591 18.9351 8.19614C18.7242 8.14637 18.5036 8.15749 18.298 8.22604ZM16.8222 11.1765L15.4105 15.4104L11.1767 16.822L12.5883 12.5882L16.8222 11.1765Z" fill="#41CC5D"/>
</svg>
