<svg width="24" height="24" viewBox="0 0 28 28" fill="none" xmlns="http://www.w3.org/2000/svg">
<g clip-path="url(#clip0_21871_13707)">
<path d="M19.5 3.89719C21.2736 4.92116 22.7464 6.39395 23.7703 8.16752C24.7943 9.94109 25.3333 11.953 25.3333 14.0009C25.3333 16.0488 24.7942 18.0607 23.7702 19.8342C22.7463 21.6078 21.2735 23.0806 19.4999 24.1045C17.7263 25.1285 15.7144 25.6675 13.6665 25.6675C11.6185 25.6675 9.60669 25.1283 7.83314 24.1043C6.05959 23.0803 4.58684 21.6075 3.56291 19.8339C2.53898 18.0603 1.99995 16.0485 2 14.0005L2.00583 13.6225C2.07117 11.6077 2.65747 9.64415 3.70758 7.92335C4.75769 6.20255 6.23576 4.78322 7.99771 3.80372C9.75965 2.82422 11.7453 2.31799 13.7612 2.33437C15.777 2.35075 17.7542 2.88919 19.5 3.89719ZM17.9647 8.22669L10.9647 10.56C10.7927 10.6173 10.6364 10.7138 10.5082 10.842C10.38 10.9702 10.2834 11.1265 10.2262 11.2985L7.88467 18.3289L7.85783 18.4292L7.838 18.561L7.83333 18.6404V18.6917L7.84383 18.8212L7.85783 18.9029L7.9045 19.0709L7.957 19.1875L8.02 19.2984L8.09467 19.4034L8.17517 19.4909L8.27317 19.5772L8.3875 19.6589L8.50417 19.7219L8.59517 19.7604L8.71767 19.7989L8.84483 19.8222L8.895 19.828L8.97433 19.8327H9.02567L9.15517 19.8222L9.23683 19.8082L9.26017 19.8012L9.28233 19.7989L9.36867 19.7732L16.3687 17.4399C16.5407 17.3826 16.697 17.2861 16.8252 17.1579C16.9534 17.0297 17.0499 16.8734 17.1072 16.7014L19.4405 9.70136C19.5091 9.4958 19.519 9.2752 19.4692 9.06431C19.4195 8.85341 19.3119 8.66054 19.1587 8.50731C19.0055 8.35409 18.8126 8.24657 18.6017 8.19679C18.3908 8.14702 18.1702 8.15814 17.9647 8.22669ZM16.4888 11.1772L15.0772 15.411L10.8433 16.8227L12.255 12.5889L16.4888 11.1772Z" fill="#41CC5D"/>
</g>
<defs>
<clipPath id="clip0_21871_13707">
<rect width="28" height="28" fill="white"/>
</clipPath>
</defs>
</svg>
