<svg width="61" height="61" viewBox="0 0 61 61" fill="none" xmlns="http://www.w3.org/2000/svg">
<path d="M30.5 61C47.3447 61 61 47.3447 61 30.5C61 13.6553 47.3447 0 30.5 0C13.6553 0 0 13.6553 0 30.5C0 47.3447 13.6553 61 30.5 61Z" fill="#00EF8B"/>
<path d="M43.8837 25.7299H35.2705V34.3431H43.8837V25.7299Z" fill="white"/>
<path d="M26.6634 37.57C26.6634 38.2094 26.4738 38.8345 26.1186 39.3661C25.7633 39.8978 25.2584 40.3122 24.6677 40.5569C24.0769 40.8016 23.4269 40.8656 22.7997 40.7408C22.1726 40.6161 21.5965 40.3082 21.1444 39.856C20.6922 39.4039 20.3843 38.8278 20.2596 38.2007C20.1348 37.5735 20.1988 36.9235 20.4435 36.3327C20.6882 35.742 21.1026 35.2371 21.6343 34.8818C22.1659 34.5266 22.791 34.337 23.4304 34.337H26.6634V25.7299H23.4304C21.0887 25.7299 18.7995 26.4243 16.8524 27.7253C14.9053 29.0263 13.3878 30.8755 12.4916 33.0389C11.5955 35.2024 11.361 37.5831 11.8178 39.8798C12.2747 42.1766 13.4024 44.2863 15.0582 45.9422C16.7141 47.598 18.8238 48.7257 21.1205 49.1826C23.4173 49.6394 25.798 49.4049 27.9614 48.5088C30.1249 47.6126 31.9741 46.0951 33.2751 44.148C34.5761 42.2009 35.2705 39.9117 35.2705 37.57V34.337H26.6634V37.57Z" fill="white"/>
<path d="M38.5032 21.4233H48.19V12.8101H38.5032C35.364 12.8133 32.3543 14.0618 30.1345 16.2815C27.9148 18.5013 26.6663 21.511 26.6631 24.6502V25.7299H35.2702V24.6502C35.2718 23.7938 35.6131 22.973 36.2193 22.368C36.8254 21.763 37.6468 21.4233 38.5032 21.4233Z" fill="white"/>
<path d="M26.6631 34.337H35.2702V25.7299H26.6631V34.337Z" fill="#16FF99"/>
</svg>
