<svg width="32" height="32" viewBox="0 0 32 32" fill="none" xmlns="http://www.w3.org/2000/svg">
<rect width="32" height="32" rx="16" fill="black" fill-opacity="0.06"/>
<path fill-rule="evenodd" clip-rule="evenodd" d="M12.1111 9.6C11.252 9.6 10.5556 10.3163 10.5556 11.2V20.8C10.5556 21.6837 11.252 22.4 12.1111 22.4H19.8889C20.748 22.4 21.4444 21.6837 21.4444 20.8V14.4H19.8889C18.1707 14.4 16.7778 12.9673 16.7778 11.2V9.6H12.1111ZM18.3333 9.9463V11.2C18.3333 12.0837 19.0298 12.8 19.8889 12.8H21.1078C21.0709 12.7522 21.0312 12.7063 20.9888 12.6627L18.4668 10.0686C18.4244 10.025 18.3798 9.98423 18.3333 9.9463ZM9 11.2C9 9.43269 10.3929 8 12.1111 8H17.3668C18.192 8 18.9833 8.33714 19.5667 8.93726L22.0888 11.5314C22.6722 12.1315 23 12.9454 23 13.7941V20.8C23 22.5673 21.6071 24 19.8889 24H12.1111C10.3929 24 9 22.5673 9 20.8V11.2ZM15.2222 13.6H12.8889V12H15.2222V13.6ZM19.1111 16.8H12.8889V15.2H19.1111V16.8ZM19.1111 20H12.8889V18.4H19.1111V20Z" fill="black" fill-opacity="0.3"/>
</svg>
