<svg width="20" height="20" viewBox="0 0 20 20" fill="none" xmlns="http://www.w3.org/2000/svg">
<path d="M9.99996 18.3334C14.6023 18.3334 18.3333 14.6024 18.3333 10C18.3333 5.39765 14.6023 1.66669 9.99996 1.66669C5.39759 1.66669 1.66663 5.39765 1.66663 10C1.66663 14.6024 5.39759 18.3334 9.99996 18.3334Z" fill="#00EF8B"/>
<path d="M13.6566 8.69659H11.3032V11.0499H13.6566V8.69659Z" fill="#FDFBF9"/>
<path d="M8.95183 11.9316C8.95183 12.1063 8.90002 12.2771 8.80296 12.4223C8.7059 12.5676 8.56794 12.6808 8.40653 12.7477C8.24513 12.8145 8.06752 12.832 7.89617 12.798C7.72482 12.7639 7.56742 12.6797 7.44389 12.5562C7.32035 12.4327 7.23622 12.2753 7.20214 12.1039C7.16805 11.9326 7.18555 11.755 7.2524 11.5936C7.31926 11.4321 7.43248 11.2942 7.57774 11.1971C7.72301 11.1001 7.89379 11.0483 8.0685 11.0483H8.95183V8.69659H8.0685C7.42868 8.69659 6.80322 8.88632 6.27123 9.24179C5.73923 9.59726 5.3246 10.1025 5.07975 10.6936C4.8349 11.2847 4.77083 11.9352 4.89566 12.5627C5.02048 13.1902 5.32858 13.7667 5.78101 14.2191C6.23343 14.6715 6.80985 14.9796 7.43738 15.1044C8.06491 15.2293 8.71536 15.1652 9.30648 14.9203C9.8976 14.6755 10.4028 14.2609 10.7583 13.7289C11.1138 13.1969 11.3035 12.5714 11.3035 11.9316V11.0483H8.95183V11.9316Z" fill="#FDFBF9"/>
<path d="M12.1863 7.52008H14.833V5.16675H12.1863C11.3286 5.16763 10.5063 5.50874 9.89978 6.11523C9.29329 6.72172 8.95218 7.54404 8.95129 8.40175V8.69675H11.303V8.40175C11.3034 8.16776 11.3967 7.94351 11.5623 7.77821C11.7279 7.61292 11.9523 7.52008 12.1863 7.52008Z" fill="#FDFBF9"/>
<path d="M8.95129 11.0483H11.303V8.69659H8.95129V11.0483Z" fill="#16FF99"/>
<path d="M13.6397 10.5747C14.0821 9.80843 15.1882 9.80843 15.6306 10.5747L19.1146 16.6092C19.557 17.3755 19.004 18.3333 18.1192 18.3333H11.1511C10.2663 18.3333 9.71329 17.3755 10.1557 16.6092L13.6397 10.5747Z" fill="#F9AD29"/>
<path d="M14.0604 12.7619C14.0604 12.5062 14.3177 12.2989 14.6351 12.2989C14.9525 12.2989 15.2099 12.5062 15.2099 12.7619V14.6137C15.2099 14.8694 14.9525 15.0767 14.6351 15.0767C14.3177 15.0767 14.0604 14.8694 14.0604 14.6137V12.7619Z" fill="white"/>
<path d="M14.0604 16.6092C14.0604 16.2918 14.3177 16.0345 14.6351 16.0345C14.9525 16.0345 15.2098 16.2918 15.2098 16.6092C15.2098 16.9266 14.9525 17.1839 14.6351 17.1839C14.3177 17.1839 14.0604 16.9266 14.0604 16.6092Z" fill="white"/>
</svg>
