<svg width="30" height="30" viewBox="0 0 30 30" fill="none" xmlns="http://www.w3.org/2000/svg">
<path fill-rule="evenodd" clip-rule="evenodd" d="M15 27C21.6274 27 27 21.6274 27 15C27 8.37258 21.6274 3 15 3C8.37258 3 3 8.37258 3 15C3 21.6274 8.37258 27 15 27ZM15 30C23.2843 30 30 23.2843 30 15C30 6.71573 23.2843 0 15 0C6.71573 0 0 6.71573 0 15C0 23.2843 6.71573 30 15 30Z" fill="#FAAD29"/>
<path d="M6 15C6 19.9706 10.0294 24 15 24C19.9706 24 24 19.9706 24 15C24 10.1972 20.238 6.27308 15.5 6.01365C15.2242 5.99856 15 6.22386 15 6.5V15C15 15 14.25 14.25 13.5 13.5C12.8852 12.8852 10.129 9.89457 9.15508 8.83611C8.96609 8.63072 8.64583 8.6202 8.45424 8.82316C6.93273 10.435 6 12.6086 6 15Z" fill="#FAAD29"/>
</svg>
