<svg width="43" height="43" viewBox="0 0 43 43" fill="none" xmlns="http://www.w3.org/2000/svg">
<path d="M42.5 21.5C42.5 33.098 33.098 42.5 21.5 42.5C9.90202 42.5 0.5 33.098 0.5 21.5C0.5 9.90202 9.90202 0.5 21.5 0.5C33.098 0.5 42.5 9.90202 42.5 21.5Z" stroke="black"/>
<path d="M25.3627 18.6373H30.4343V23.7089H25.3627V18.6373Z" stroke="black"/>
<path d="M18.8271 28.0276C19.1325 27.5706 19.2955 27.0333 19.2955 26.4836V24.7046H24.3628V26.4836C24.3628 28.0355 23.9026 29.5525 23.0404 30.8428C22.1783 32.1331 20.9528 33.1388 19.5191 33.7327C18.0854 34.3265 16.5078 34.4819 14.9857 34.1792C13.4637 33.8764 12.0656 33.1291 10.9683 32.0318C9.87097 30.9345 9.12369 29.5364 8.82093 28.0144C8.51818 26.4923 8.67357 24.9147 9.26743 23.481C9.8613 22.0473 10.867 20.8218 12.1573 19.9597C13.4476 19.0975 14.9646 18.6373 16.5165 18.6373H18.2955V23.7046H16.5165C15.9668 23.7046 15.4295 23.8676 14.9725 24.173C14.5155 24.4783 14.1593 24.9124 13.949 25.4202C13.7387 25.9279 13.6836 26.4867 13.7909 27.0258C13.8981 27.5649 14.1628 28.06 14.5514 28.4487C14.9401 28.8373 15.4352 29.102 15.9743 29.2092C16.5134 29.3165 17.0721 29.2614 17.5799 29.0511C18.0877 28.8408 18.5218 28.4846 18.8271 28.0276Z" stroke="black"/>
<path d="M24.3626 17.3754V17.3763V17.6374H19.2953V17.3766C19.2975 15.2962 20.1249 13.3017 21.5959 11.8306C23.067 10.3596 25.0615 9.53221 27.1418 9.53H33.47V14.6016H27.1416C26.4055 14.6016 25.6994 14.8937 25.1784 15.4137C24.6574 15.9337 24.364 16.6392 24.3626 17.3754Z" stroke="black"/>
</svg>
