<svg width="32" height="32" viewBox="0 0 32 32" fill="none" xmlns="http://www.w3.org/2000/svg">
<rect width="32" height="32" rx="16" fill="white" fill-opacity="0.1"/>
<path fill-rule="evenodd" clip-rule="evenodd" d="M12.3889 9.96957C11.5911 9.96957 10.9444 10.6275 10.9444 11.4391V20.2565C10.9444 21.0681 11.5911 21.7261 12.3889 21.7261H19.6111C20.4089 21.7261 21.0556 21.0681 21.0556 20.2565V14.3783H19.6111C18.0156 14.3783 16.7222 13.0624 16.7222 11.4391V9.96957H12.3889ZM18.1667 10.2876V11.4391C18.1667 12.2507 18.8134 12.9087 19.6111 12.9087H20.7429C20.7087 12.8648 20.6718 12.8227 20.6325 12.7826L18.2906 10.4C18.2512 10.36 18.2098 10.3225 18.1667 10.2876ZM9.5 11.4391C9.5 9.81589 10.7934 8.5 12.3889 8.5H17.2692C18.0354 8.5 18.7702 8.80966 19.312 9.36085L21.6539 11.7435C22.1956 12.2947 22.5 13.0423 22.5 13.8218V20.2565C22.5 21.8798 21.2066 23.1957 19.6111 23.1957H12.3889C10.7934 23.1957 9.5 21.8798 9.5 20.2565V11.4391ZM15.2778 13.6435H13.1111V12.1739H15.2778V13.6435ZM18.8889 16.5826H13.1111V15.113H18.8889V16.5826ZM18.8889 19.5217H13.1111V18.0522H18.8889V19.5217Z" fill="white" fill-opacity="0.4"/>
</svg>
