<svg xmlns="http://www.w3.org/2000/svg" viewBox="0 0 50 50"><defs><style>.cls-1{fill:none;}.cls-2{fill:#5b5b5b;}</style></defs><g id="Layer_2" data-name="Layer 2"><g id="Layer_1-2" data-name="Layer 1"><path class="cls-1" d="M33.61,10c-1.76-.89-4.1-.65-6.62.64a6.6,6.6,0,0,1,4.75-.37c2,.68,3.33,2.58,3.81,5.34.82,4.66-.94,10.89-4.16,16,3.27-4.69,5.42-10.37,5.35-15C36.69,13.29,35.58,11,33.61,10Z"/><path class="cls-1" d="M14.6,34.38c.47,2.71,1.79,4.56,3.71,5.23s4.26.12,6.67-1.47a7.67,7.67,0,0,1-3.75,1.09,5.19,5.19,0,0,1-1.05-.1c-1.95-.38-3.43-1.81-4.27-4.12-1.48-4-.6-9.89,1.9-14.91C15.21,24.8,13.87,30.23,14.6,34.38Z"/><path class="cls-1" d="M35.4,15.62c-.47-2.7-1.79-4.56-3.71-5.23A5.37,5.37,0,0,0,30,10.12a9.21,9.21,0,0,0-4.93,1.72,7.09,7.09,0,0,1,4.77-1c1.95.38,3.43,1.81,4.27,4.12,1.47,4,.6,9.89-1.9,14.91C34.79,25.2,36.13,19.78,35.4,15.62Z"/><path class="cls-1" d="M16.39,40c1.76.89,4.1.65,6.62-.64A7.9,7.9,0,0,1,20,40a5.37,5.37,0,0,1-1.76-.29c-2-.68-3.33-2.58-3.81-5.34-.82-4.66.94-10.89,4.16-15.95-3.27,4.69-5.42,10.37-5.35,15C13.31,36.71,14.42,39,16.39,40Z"/><path class="cls-1" d="M35.55,9.78a5.39,5.39,0,0,0-3.06-.87A9.7,9.7,0,0,0,29,9.63a6.33,6.33,0,0,1,4.65.2c2,1,3.17,3.39,3.22,6.68.08,5.24-2.62,11.76-6.59,16.75,4-4.58,7-10.42,7.6-15.53C38.4,14,37.56,11.14,35.55,9.78Z"/><path class="cls-1" d="M14.45,40.22c1.65,1.11,3.92,1.15,6.53.15a7.92,7.92,0,0,1-2.24.34,5.38,5.38,0,0,1-2.42-.54c-2-1-3.17-3.39-3.22-6.68-.08-5.24,2.62-11.76,6.58-16.75-3.95,4.58-6.94,10.42-7.6,15.53C11.6,36,12.44,38.86,14.45,40.22Z"/><path class="cls-1" d="M10.39,28.87c-1.87,4.71-1.8,8.69.17,10.93,1.26,1.42,3.22,2,5.66,1.84a5.77,5.77,0,0,1-3.84-1.35c-2.08-1.83-2.59-5.24-1.44-9.61,1.65-6.25,6.41-13,11.86-17.44A38.53,38.53,0,0,0,10.39,28.87Z"/><path class="cls-1" d="M39.61,21.13c1.87-4.71,1.8-8.69-.17-10.93a6.51,6.51,0,0,0-5.69-1.83,5.75,5.75,0,0,1,3.86,1.34c2.09,1.83,2.6,5.24,1.45,9.61-1.65,6.25-6.41,13-11.86,17.45A38.65,38.65,0,0,0,39.61,21.13Z"/><path class="cls-1" d="M10,26.7c-2.71,5.1-3.19,9.62-1.31,12.4a6.44,6.44,0,0,0,5.26,2.66,5.87,5.87,0,0,1-3.5-1.83c-2-2.3-2.1-6.35-.2-11.13,2.61-6.6,8.41-13.23,14.52-17.14A40.52,40.52,0,0,0,10,26.7Z"/><path class="cls-1" d="M38.89,19.27C40,15,39.5,11.6,37.5,9.84a5.68,5.68,0,0,0-3.83-1.3,10,10,0,0,0-2.22.27,6,6,0,0,1,4.19.83c2.07,1.4,2.94,4.28,2.44,8.11-.74,5.77-4.44,12.47-9.14,17.26C33.56,30.67,37.44,24.77,38.89,19.27Z"/><path class="cls-1" d="M11.11,30.73C10,35,10.5,38.4,12.5,40.16c1.43,1.25,3.53,1.6,6,1a7.19,7.19,0,0,1-1,.07,5.52,5.52,0,0,1-3.15-.9c-2.07-1.4-2.94-4.28-2.44-8.11.74-5.77,4.44-12.47,9.14-17.26C16.44,19.33,12.56,25.23,11.11,30.73Z"/><path class="cls-1" d="M19.08,35.28a5.61,5.61,0,0,0,4.86,1.89,9.08,9.08,0,0,0,5.85-3.68,8.48,8.48,0,0,1-4,2.58,6.19,6.19,0,0,1-1.73.25,6.06,6.06,0,0,1-3.54-1.16c-2.87-2-4.25-6.28-3.77-10.63C16.07,28.71,16.85,32.86,19.08,35.28Z"/><path class="cls-1" d="M20.59,35.06a5.94,5.94,0,0,0,5.16.89,9.26,9.26,0,0,0,5.18-4.16,8.76,8.76,0,0,1-3.39,2.84,6.8,6.8,0,0,1-2.9.65A6.57,6.57,0,0,1,22,34.73c-3.14-1.36-5.11-5-5.22-8.93C16.68,29.65,18,33.25,20.59,35.06Z"/><path class="cls-1" d="M29.4,14.94a5.93,5.93,0,0,0-3.46-1.13,6.21,6.21,0,0,0-1.69.24,9.26,9.26,0,0,0-5.18,4.16,8.76,8.76,0,0,1,3.39-2.84,6.68,6.68,0,0,1,5.53-.1c3.14,1.36,5.11,5,5.22,8.93C33.32,20.36,32,16.75,29.4,14.94Z"/><path class="cls-1" d="M27.94,15.37a6.6,6.6,0,0,0-5.43.1,9.8,9.8,0,0,0-4.87,5.69c-.13.37-.24.73-.34,1.1C16,27.42,18,32.88,22.06,34.63a6.6,6.6,0,0,0,5.43-.1,9.8,9.8,0,0,0,4.87-5.69c.13-.37.24-.73.34-1.1C34,22.58,32,17.12,27.94,15.37Z"/><path class="cls-1" d="M34,15c-.83-2.26-2.27-3.65-4.17-4s-4.34.41-6.58,2.26a7.64,7.64,0,0,1,4.71-1.59,5.64,5.64,0,0,1,4.65,3c2,3.39,2,8.79.17,13.68C34.69,23.73,35.27,18.65,34,15Z"/><path class="cls-1" d="M16,35a5.72,5.72,0,0,0,4.17,4c2,.39,4.34-.42,6.57-2.26a7.81,7.81,0,0,1-4.45,1.59h-.25a5.64,5.64,0,0,1-4.65-3c-2-3.39-2-8.8-.17-13.69C15.31,26.27,14.73,31.35,16,35Z"/><path class="cls-1" d="M30.92,14.72a5.62,5.62,0,0,0-4.86-1.89,9.08,9.08,0,0,0-5.85,3.68,8.48,8.48,0,0,1,4-2.58,6,6,0,0,1,5.27.91c2.87,2,4.25,6.28,3.77,10.63C33.93,21.29,33.15,17.14,30.92,14.72Z"/><path class="cls-1" d="M32.45,14.75a5.49,5.49,0,0,0-4.53-2.92h-.25a8.82,8.82,0,0,0-6.06,3,8.14,8.14,0,0,1,4.44-2.13,5.74,5.74,0,0,1,5,1.93c2.5,2.71,3.2,7.57,2.08,12.23C34.4,22.42,34.27,17.77,32.45,14.75Z"/><path class="cls-1" d="M17.55,35.25a5.49,5.49,0,0,0,4.53,2.92c2.1.1,4.32-1,6.31-3A8.08,8.08,0,0,1,24,37.3c-.23,0-.45,0-.67,0a5.78,5.78,0,0,1-4.3-2c-2.5-2.71-3.2-7.57-2.08-12.23C15.6,27.58,15.73,32.23,17.55,35.25Z"/><path class="cls-1" d="M31.52,43.94c7.12-2.19,12.9-6.79,15.87-12.62a17.84,17.84,0,0,0,1.92-10.23,15.56,15.56,0,0,1-.77,5.32C46.6,32.46,41.38,37.8,34.23,41.06a32.83,32.83,0,0,1-13.51,3,24,24,0,0,1-13.4-3.71,25,25,0,0,0,15.38,5A30,30,0,0,0,31.52,43.94Z"/><path class="cls-1" d="M18.48,6.06C11.36,8.25,5.58,12.85,2.61,18.68A17.84,17.84,0,0,0,.69,28.91a15.56,15.56,0,0,1,.77-5.32C3.4,17.54,8.62,12.2,15.77,8.94c9.55-4.35,20.19-3.8,26.9.72A25,25,0,0,0,27.3,4.72,30,30,0,0,0,18.48,6.06Z"/><path class="cls-1" d="M25.82,2.73a27.25,27.25,0,0,0-4.29.34A26,26,0,0,0,5.3,12.23,21.33,21.33,0,0,0,.37,25.16a19,19,0,0,1,2-6.61c3-5.9,8.85-10.55,16-12.77,10.11-3.11,20.52-.67,26.45,5.45A24.74,24.74,0,0,0,25.82,2.73Z"/><path class="cls-1" d="M34.11,40.81c7.09-3.23,12.25-8.5,14.17-14.48a14.29,14.29,0,0,0,.12-8.86,12.62,12.62,0,0,1,.13,4.6c-.87,5.78-5.42,11.67-12.16,15.77A35,35,0,0,1,18.55,43a23.21,23.21,0,0,1-8.82-1.6C16.34,44.65,25.65,44.66,34.11,40.81Z"/><path class="cls-1" d="M15.89,9.19C8.8,12.42,3.64,17.69,1.72,23.67a14.29,14.29,0,0,0-.12,8.86,12.62,12.62,0,0,1-.13-4.6c.87-5.78,5.42-11.67,12.16-15.77C22.43,6.81,33,5.63,40.24,8.58a25.18,25.18,0,0,0-11-2.35A32.6,32.6,0,0,0,15.89,9.19Z"/><path class="cls-1" d="M28.47,46.93c12-1.91,20.82-11.39,21.15-22a19.15,19.15,0,0,1-2,6.55c-3,5.9-8.85,10.55-16,12.77a30.27,30.27,0,0,1-8.91,1.35c-7,0-13.39-2.5-17.56-6.83C10.34,45,19.18,48.4,28.47,46.93Z"/><path class="cls-1" d="M36.23,37.62c6.68-4.06,11.18-9.89,12-15.59A11.51,11.51,0,0,0,47,14.55a10,10,0,0,1,.82,3.94c.06,5.34-3.6,11.38-9.79,16.16-6.5,5-14.56,7.74-21.43,7.74A22.39,22.39,0,0,1,12.35,42C19.33,43.79,28.46,42.34,36.23,37.62Z"/><path class="cls-1" d="M40,23.3c2.71-5.1,3.19-9.62,1.31-12.4a6.49,6.49,0,0,0-5.28-2.66,5.84,5.84,0,0,1,3.52,1.83c2,2.3,2.1,6.35.2,11.13-2.61,6.6-8.41,13.22-14.51,17.14A40.57,40.57,0,0,0,40,23.3Z"/><path class="cls-1" d="M28.52,47.23a27.87,27.87,0,0,1-4.34.34c-8.76,0-16.65-4.21-20.88-10.82a24.68,24.68,0,0,0,46-7.36C47,38.26,39,45.57,28.52,47.23Z"/><path class="cls-1" d="M5.06,12A26.25,26.25,0,0,1,21.48,2.77C31.91,1.12,41.77,5.55,46.69,13.23A24.68,24.68,0,0,0,.75,20.42,22.28,22.28,0,0,1,5.06,12Z"/><path class="cls-1" d="M10.21,21.54c-4.5,5.33-6.41,10.9-5.09,14.89a7.07,7.07,0,0,0,4,4.31A6.34,6.34,0,0,1,6.64,38.1c-1.72-3.47-.59-8.56,3.09-14a40.66,40.66,0,0,1,19.69-15A40.43,40.43,0,0,0,10.21,21.54Z"/><path class="cls-1" d="M3.61,34.3a8,8,0,0,0,3.24,5.24,7.1,7.1,0,0,1-1.94-3c-1.34-4.07.58-9.71,5.13-15.1,5.8-6.87,14.58-11.88,22.07-13.11-7,.79-15.13,4.55-21.17,10.33C5.56,23.78,2.82,29.64,3.61,34.3Z"/><path class="cls-1" d="M39.79,28.46c4.5-5.33,6.41-10.9,5.09-14.9a7.08,7.08,0,0,0-4-4.3,6.34,6.34,0,0,1,2.44,2.64c1.72,3.47.59,8.56-3.09,14a40.66,40.66,0,0,1-19.73,15A40.37,40.37,0,0,0,39.79,28.46Z"/><path class="cls-1" d="M46.39,15.7a8,8,0,0,0-3.24-5.24,7.1,7.1,0,0,1,1.94,3c1.34,4.07-.58,9.71-5.13,15.1-5.83,6.9-14.64,11.91-22.15,13.12,7-.76,15.19-4.54,21.25-10.34C44.44,26.22,47.18,20.36,46.39,15.7Z"/><path class="cls-1" d="M9.9,24.25C6.32,29.52,5.17,34.66,6.83,38a6.64,6.64,0,0,0,4.72,3.48,6,6,0,0,1-3.06-2.28C6.57,36.37,7,31.77,9.8,26.61A40.55,40.55,0,0,1,27,10.24,41.07,41.07,0,0,0,9.9,24.25Z"/><path class="cls-1" d="M13.77,12.38C7.09,16.44,2.59,22.27,1.73,28A11.51,11.51,0,0,0,3,35.45a10,10,0,0,1-.82-3.94C2.12,26.17,5.78,20.13,12,15.35c7.9-6.1,18.1-8.8,25.67-7.35a24.63,24.63,0,0,0-6.18-.74A34.7,34.7,0,0,0,13.77,12.38Z"/><path class="cls-1" d="M37.88,34.45c6.13-4.73,9.75-10.7,9.69-16a9.45,9.45,0,0,0-2.35-6.27,8.38,8.38,0,0,1,1.4,3.44c.8,4.73-2,10.67-7.4,15.89-6.86,6.57-16.39,10.55-24,10.55h-.11c.5,0,1,0,1.52,0C23.41,42.15,31.42,39.44,37.88,34.45Z"/><path class="cls-1" d="M12.12,15.55c-6.13,4.73-9.75,10.7-9.69,16a9.45,9.45,0,0,0,2.35,6.27,8.38,8.38,0,0,1-1.4-3.44c-.8-4.73,2-10.67,7.4-15.89C17.67,11.85,27.26,7.86,34.91,7.9c-.5,0-1-.05-1.52-.05C26.59,7.85,18.58,10.56,12.12,15.55Z"/><path class="cls-1" d="M40.1,25.75c3.58-5.27,4.73-10.41,3.07-13.76a6.65,6.65,0,0,0-4.69-3.48,6,6,0,0,1,3,2.28c1.92,2.84,1.45,7.44-1.31,12.6A40.52,40.52,0,0,1,23,39.76,41.1,41.1,0,0,0,40.1,25.75Z"/><path class="cls-2" d="M25,0A25,25,0,1,0,50,25,25,25,0,0,0,25,0Zm7.7,27.74c-.1.37-.21.73-.34,1.1a9.8,9.8,0,0,1-4.87,5.69,6.6,6.6,0,0,1-5.43.1C18,32.88,16,27.42,17.3,22.26c.1-.37.21-.73.34-1.1a9.8,9.8,0,0,1,4.87-5.69,6.6,6.6,0,0,1,5.43-.1C32,17.12,34,22.58,32.7,27.74ZM16.79,25.8c.11,4,2.08,7.57,5.22,8.93a6.57,6.57,0,0,0,2.63.55,6.8,6.8,0,0,0,2.9-.65,8.76,8.76,0,0,0,3.39-2.84A9.26,9.26,0,0,1,25.75,36a5.94,5.94,0,0,1-5.16-.89C18,33.25,16.68,29.65,16.79,25.8Zm16.42-1.6c-.11-4-2.08-7.57-5.22-8.93a6.68,6.68,0,0,0-5.53.1,8.76,8.76,0,0,0-3.39,2.84,9.26,9.26,0,0,1,5.18-4.16,6.21,6.21,0,0,1,1.69-.24,5.93,5.93,0,0,1,3.46,1.13C32,16.75,33.32,20.36,33.21,24.2Zm-12.69,11a6.06,6.06,0,0,0,3.54,1.16,6.19,6.19,0,0,0,1.73-.25,8.48,8.48,0,0,0,4-2.58,9.08,9.08,0,0,1-5.85,3.68,5.61,5.61,0,0,1-4.86-1.89c-2.23-2.42-3-6.57-2.33-10.75C16.27,28.88,17.65,33.13,20.52,35.16Zm9-20.32a6,6,0,0,0-5.27-.91,8.48,8.48,0,0,0-4,2.58,9.08,9.08,0,0,1,5.85-3.68,5.62,5.62,0,0,1,4.86,1.89c2.23,2.42,3,6.57,2.33,10.75C33.73,21.12,32.35,16.87,29.48,14.84ZM19,35.37a5.78,5.78,0,0,0,4.3,2c.22,0,.44,0,.67,0a8.08,8.08,0,0,0,4.44-2.14c-2,2-4.21,3.11-6.31,3a5.49,5.49,0,0,1-4.53-2.92c-1.82-3-2-7.67-.65-12.11C15.78,27.8,16.48,32.66,19,35.37ZM31,14.63a5.74,5.74,0,0,0-5-1.93,8.14,8.14,0,0,0-4.44,2.13,8.82,8.82,0,0,1,6.06-3h.25a5.49,5.49,0,0,1,4.53,2.92c1.82,3,1.95,7.67.65,12.11C34.22,22.2,33.52,17.34,31,14.63ZM17.43,35.33a5.64,5.64,0,0,0,4.65,3h.25a7.81,7.81,0,0,0,4.45-1.59c-2.23,1.84-4.55,2.65-6.57,2.26A5.72,5.72,0,0,1,16,35c-1.31-3.61-.73-8.69,1.22-13.32C15.45,26.53,15.39,31.94,17.43,35.33ZM32.57,14.67a5.64,5.64,0,0,0-4.65-3,7.64,7.64,0,0,0-4.71,1.59c2.24-1.85,4.56-2.66,6.58-2.26s3.34,1.76,4.17,4c1.31,3.61.73,8.69-1.22,13.31C34.55,23.46,34.61,18.06,32.57,14.67ZM15.91,35c.84,2.31,2.32,3.74,4.27,4.12a5.19,5.19,0,0,0,1.05.1A7.67,7.67,0,0,0,25,38.14c-2.41,1.59-4.76,2.13-6.67,1.47s-3.24-2.52-3.71-5.23c-.73-4.15.61-9.58,3.21-14.28C15.31,25.12,14.43,31,15.91,35ZM34.09,15c-.84-2.31-2.32-3.74-4.27-4.12a7.09,7.09,0,0,0-4.77,1A9.21,9.21,0,0,1,30,10.12a5.37,5.37,0,0,1,1.71.27c1.92.67,3.24,2.53,3.71,5.23.73,4.16-.61,9.58-3.21,14.28C34.69,24.88,35.56,19,34.09,15ZM14.45,34.41c.48,2.76,1.84,4.66,3.81,5.34A5.37,5.37,0,0,0,20,40a7.9,7.9,0,0,0,3-.66c-2.52,1.29-4.86,1.53-6.62.64-2-1-3.08-3.31-3.13-6.53-.07-4.66,2.08-10.34,5.35-15C15.39,23.52,13.63,29.75,14.45,34.41Zm21.1-18.82c-.48-2.76-1.84-4.66-3.81-5.34a6.6,6.6,0,0,0-4.75.37c2.52-1.29,4.86-1.53,6.62-.64,2,1,3.08,3.31,3.13,6.54.07,4.65-2.08,10.33-5.35,15C34.61,26.48,36.37,20.25,35.55,15.59ZM13.1,33.49c.05,3.29,1.19,5.66,3.22,6.68a5.38,5.38,0,0,0,2.42.54A7.92,7.92,0,0,0,21,40.37c-2.61,1-4.88,1-6.53-.15-2-1.36-2.85-4.19-2.37-7.95.66-5.11,3.65-11,7.6-15.53C15.72,21.73,13,28.25,13.1,33.49Zm23.8-17c0-3.29-1.19-5.66-3.22-6.68A6.33,6.33,0,0,0,29,9.63a9.7,9.7,0,0,1,3.46-.72,5.39,5.39,0,0,1,3.06.87c2,1.36,2.85,4.19,2.36,8-.65,5.11-3.64,11-7.6,15.53C34.28,28.27,37,21.75,36.9,16.51Zm-25,15.74c-.5,3.83.37,6.71,2.44,8.11a5.52,5.52,0,0,0,3.15.9,7.19,7.19,0,0,0,1-.07c-2.5.57-4.6.22-6-1-2-1.76-2.51-5.2-1.39-9.43,1.45-5.5,5.33-11.4,10-15.74C16.36,19.78,12.66,26.48,11.92,32.25Zm26.16-14.5c.5-3.83-.37-6.71-2.44-8.11a6,6,0,0,0-4.19-.83,10,10,0,0,1,2.22-.27,5.68,5.68,0,0,1,3.83,1.3c2,1.76,2.51,5.2,1.39,9.43-1.45,5.5-5.33,11.4-9.95,15.74C33.64,30.22,37.34,23.52,38.08,17.75ZM10.94,30.68c-1.15,4.37-.64,7.78,1.44,9.61a5.77,5.77,0,0,0,3.84,1.35c-2.44.2-4.4-.42-5.66-1.84-2-2.24-2-6.22-.17-10.93A38.53,38.53,0,0,1,22.8,13.24C17.35,17.67,12.59,24.43,10.94,30.68ZM39.06,19.32c1.15-4.37.64-7.78-1.45-9.61a5.75,5.75,0,0,0-3.86-1.34,6.51,6.51,0,0,1,5.69,1.83c2,2.24,2,6.22.17,10.93A38.65,38.65,0,0,1,27.2,36.77C32.65,32.33,37.41,25.57,39.06,19.32ZM10.22,28.8c-1.9,4.78-1.83,8.83.2,11.13a5.87,5.87,0,0,0,3.5,1.83A6.44,6.44,0,0,1,8.66,39.1C6.78,36.32,7.26,31.8,10,26.7a40.52,40.52,0,0,1,14.77-15C18.63,15.57,12.83,22.2,10.22,28.8Zm29.56-7.6c1.9-4.78,1.82-8.83-.2-11.13a5.84,5.84,0,0,0-3.52-1.83,6.49,6.49,0,0,1,5.28,2.66c1.88,2.78,1.4,7.3-1.31,12.4a40.57,40.57,0,0,1-14.76,15C31.37,34.42,37.17,27.8,39.78,21.2Zm-30,5.41C7,31.77,6.57,36.37,8.49,39.21a6,6,0,0,0,3.06,2.28A6.64,6.64,0,0,1,6.83,38c-1.66-3.35-.51-8.49,3.07-13.76A41.07,41.07,0,0,1,27,10.24,40.55,40.55,0,0,0,9.8,26.61Zm30.4-3.22c2.76-5.16,3.23-9.76,1.31-12.6a6,6,0,0,0-3-2.28A6.65,6.65,0,0,1,43.17,12c1.66,3.35.51,8.49-3.07,13.76A41.1,41.1,0,0,1,23,39.76,40.52,40.52,0,0,0,40.2,23.39Zm-30.47.74c-3.68,5.41-4.81,10.5-3.09,14a6.34,6.34,0,0,0,2.44,2.64,7.07,7.07,0,0,1-4-4.31c-1.32-4,.59-9.56,5.09-14.89A40.43,40.43,0,0,1,29.42,9.1,40.66,40.66,0,0,0,9.73,24.13Zm30.54,1.74c3.68-5.41,4.81-10.5,3.09-14a6.34,6.34,0,0,0-2.44-2.64,7.08,7.08,0,0,1,4,4.3c1.32,4-.59,9.57-5.09,14.9A40.37,40.37,0,0,1,20.54,40.91,40.66,40.66,0,0,0,40.27,25.87ZM10,21.4c-4.55,5.39-6.47,11-5.13,15.1a7.1,7.1,0,0,0,1.94,3A8,8,0,0,1,3.61,34.3c-.79-4.66,1.95-10.52,7.33-15.68,6-5.78,14.14-9.54,21.17-10.33C24.62,9.52,15.84,14.53,10,21.4ZM40,28.6c4.55-5.39,6.47-11,5.13-15.1a7.1,7.1,0,0,0-1.94-3,8,8,0,0,1,3.24,5.24c.79,4.66-2,10.52-7.33,15.68C33,37.18,24.85,41,17.81,41.72,25.32,40.51,34.13,35.5,40,28.6ZM10.78,18.45c-5.43,5.22-8.2,11.16-7.4,15.89a8.38,8.38,0,0,0,1.4,3.44,9.45,9.45,0,0,1-2.35-6.27c-.06-5.26,3.56-11.23,9.69-16,6.46-5,14.47-7.7,21.27-7.7.52,0,1,0,1.52.05C27.26,7.86,17.67,11.85,10.78,18.45ZM15.2,42.1c7.63,0,17.16-4,24-10.55,5.43-5.22,8.2-11.16,7.4-15.89a8.38,8.38,0,0,0-1.4-3.44,9.45,9.45,0,0,1,2.35,6.27c.06,5.26-3.56,11.23-9.69,16-6.46,5-14.47,7.7-21.27,7.7-.52,0-1,0-1.52,0ZM12,15.35C5.78,20.13,2.12,26.17,2.18,31.51A10,10,0,0,0,3,35.45,11.51,11.51,0,0,1,1.73,28c.86-5.7,5.36-11.53,12-15.59A34.7,34.7,0,0,1,31.46,7.26,24.63,24.63,0,0,1,37.64,8C30.07,6.55,19.87,9.25,12,15.35Zm4.63,27c6.87,0,14.93-2.72,21.43-7.74,6.19-4.78,9.85-10.82,9.79-16.16A10,10,0,0,0,47,14.55,11.51,11.51,0,0,1,48.27,22c-.86,5.7-5.36,11.53-12,15.59-7.77,4.72-16.9,6.17-23.88,4.38A22.39,22.39,0,0,0,16.6,42.39Zm-3-30.23c-6.74,4.1-11.29,10-12.16,15.77a12.62,12.62,0,0,0,.13,4.6,14.29,14.29,0,0,1,.12-8.86c1.92-6,7.08-11.25,14.17-14.48a32.6,32.6,0,0,1,13.4-3,25.18,25.18,0,0,1,11,2.35C33,5.63,22.43,6.81,13.63,12.16ZM18.55,43a35,35,0,0,0,17.82-5.16c6.74-4.1,11.29-10,12.16-15.77a12.62,12.62,0,0,0-.13-4.6,14.29,14.29,0,0,1-.12,8.86c-1.92,6-7.08,11.25-14.17,14.48-8.46,3.85-17.77,3.84-24.38.59A23.21,23.21,0,0,0,18.55,43ZM15.77,8.94C8.62,12.2,3.4,17.54,1.46,23.59a15.56,15.56,0,0,0-.77,5.32A17.84,17.84,0,0,1,2.61,18.68c3-5.83,8.75-10.43,15.87-12.62A30,30,0,0,1,27.3,4.72,25,25,0,0,1,42.67,9.66C36,5.14,25.32,4.59,15.77,8.94ZM20.72,44a32.83,32.83,0,0,0,13.51-3c7.15-3.26,12.37-8.6,14.31-14.65a15.56,15.56,0,0,0,.77-5.32,17.84,17.84,0,0,1-1.92,10.23c-3,5.83-8.75,10.43-15.87,12.62a30,30,0,0,1-8.82,1.34,25,25,0,0,1-15.38-5A24,24,0,0,0,20.72,44ZM18.39,5.78c-7.19,2.22-13,6.87-16,12.77a19,19,0,0,0-2,6.61A21.33,21.33,0,0,1,5.3,12.23,26,26,0,0,1,21.53,3.07a27.25,27.25,0,0,1,4.29-.34,24.74,24.74,0,0,1,19,8.5C38.91,5.11,28.5,2.67,18.39,5.78ZM22.7,45.57a30.27,30.27,0,0,0,8.91-1.35c7.19-2.22,13-6.87,16-12.77a19.15,19.15,0,0,0,2-6.55c-.33,10.64-9.11,20.12-21.15,22-9.29,1.47-18.13-2-23.33-8.19C9.31,43.07,15.73,45.57,22.7,45.57ZM25,.32A24.72,24.72,0,0,1,46.69,13.23C41.77,5.55,31.91,1.12,21.48,2.77A26.25,26.25,0,0,0,5.06,12,22.28,22.28,0,0,0,.75,20.42,24.73,24.73,0,0,1,25,.32Zm0,49.36A24.7,24.7,0,0,1,3.3,36.75c4.23,6.61,12.12,10.82,20.88,10.82a27.87,27.87,0,0,0,4.34-.34C39,45.57,47,38.26,49.29,29.39A24.73,24.73,0,0,1,25,49.68Z"/></g></g></svg>