<svg xmlns="http://www.w3.org/2000/svg" viewBox="0 0 50.66 47.44"><defs><style>.cls-1{fill:#5b5b5b;}</style></defs><g id="Layer_2" data-name="Layer 2"><g id="Layer_1-2" data-name="Layer 1"><path class="cls-1" d="M21,2.32a17,17,0,0,1,4.31,5,17.08,17.08,0,0,1,4.3-5A12.53,12.53,0,0,1,37.47,0a13.65,13.65,0,0,1,9.29,3.58,11.84,11.84,0,0,1,3.9,8.71c0,5.9-3.13,11.73-7.83,17.53S32.14,41.13,26,46.78l-.71.66-.71-.66c-6.1-5.65-12.21-11.3-16.8-17S0,18.19,0,12.29A11.84,11.84,0,0,1,3.9,3.58,13.63,13.63,0,0,1,13.19,0,12.46,12.46,0,0,1,21,2.32Z"/></g></g></svg>