<svg width="512" height="512" viewBox="0 0 512 512" fill="none" xmlns="http://www.w3.org/2000/svg">
<rect width="512" height="512" rx="27" fill="#1A191C"/>
<path d="M116.1 297.856C116.1 301.132 115.601 304.124 114.604 306.83C113.678 309.465 111.969 311.745 109.476 313.668C107.054 315.52 103.671 316.98 99.3264 318.048C95.0529 319.117 89.6041 319.651 82.9802 319.651C76.3562 319.651 70.8719 319.117 66.5271 318.048C62.1824 316.98 58.7636 315.52 56.2707 313.668C53.849 311.745 52.1396 309.465 51.1425 306.83C50.2166 304.124 49.7536 301.132 49.7536 297.856V261.424C49.7536 258.148 50.2166 255.192 51.1425 252.556C52.1396 249.85 53.849 247.535 56.2707 245.612C58.7636 243.689 62.1824 242.193 66.5271 241.125C70.8719 240.056 76.3562 239.522 82.9802 239.522C89.6041 239.522 95.0529 240.056 99.3264 241.125C103.671 242.193 107.054 243.689 109.476 245.612C111.969 247.535 113.678 249.85 114.604 252.556C115.601 255.192 116.1 258.148 116.1 261.424V297.856ZM104.455 295.398V263.881C104.455 259.608 102.923 256.153 99.8606 253.518C96.7979 250.811 91.0998 249.458 82.7665 249.458C74.4331 249.458 68.7707 250.811 65.7793 253.518C62.7878 256.153 61.2921 259.608 61.2921 263.881V295.398C61.2921 299.672 62.7878 303.162 65.7793 305.869C68.7707 308.504 74.4331 309.822 82.7665 309.822C91.0998 309.822 96.7979 308.504 99.8606 305.869C102.923 303.162 104.455 299.672 104.455 295.398ZM62.3605 295.398V263.881C62.3605 259.893 63.785 256.688 66.634 254.266C69.483 251.773 74.8605 250.527 82.7665 250.527C90.6725 250.527 96.0856 251.773 99.0059 254.266C101.926 256.688 103.386 259.893 103.386 263.881V295.398C103.386 299.387 101.926 302.628 99.0059 305.121C96.0856 307.542 90.6725 308.753 82.7665 308.753C74.8605 308.753 69.483 307.542 66.634 305.121C63.785 302.628 62.3605 299.387 62.3605 295.398ZM74.0058 294.01C74.0058 295.434 74.54 296.645 75.6084 297.642C76.6767 298.568 79.134 299.031 82.9802 299.031C86.8263 299.031 89.2836 298.568 90.352 297.642C91.4204 296.645 91.9546 295.434 91.9546 294.01V265.27C91.9546 263.917 91.4204 262.777 90.352 261.851C89.2836 260.854 86.8263 260.356 82.9802 260.356C79.134 260.356 76.6767 260.854 75.6084 261.851C74.54 262.777 74.0058 263.917 74.0058 265.27V294.01Z" fill="white"/>
<path d="M195.193 297.856C195.193 301.132 194.694 304.124 193.697 306.83C192.771 309.465 191.061 311.745 188.569 313.668C186.147 315.52 182.799 316.98 178.526 318.048C174.252 319.117 168.804 319.651 162.18 319.651C155.556 319.651 150.107 319.117 145.833 318.048C141.56 316.98 138.177 315.52 135.684 313.668C133.262 311.745 131.553 309.465 130.556 306.83C129.63 304.124 129.167 301.132 129.167 297.856V244.971C129.167 243.618 129.452 242.656 130.021 242.086C130.662 241.445 131.66 241.125 133.013 241.125H149.786C151.14 241.125 152.101 241.445 152.671 242.086C153.312 242.656 153.633 243.618 153.633 244.971V293.689C153.633 295.114 154.167 296.324 155.235 297.322C156.304 298.247 158.69 298.71 162.393 298.71C166.168 298.71 168.59 298.247 169.658 297.322C170.727 296.324 171.261 295.114 171.261 293.689V244.971C171.261 243.618 171.546 242.656 172.116 242.086C172.757 241.445 173.754 241.125 175.107 241.125H191.346C192.7 241.125 193.661 241.445 194.231 242.086C194.872 242.656 195.193 243.618 195.193 244.971V297.856ZM140.919 250.74V295.292C140.919 299.565 142.379 303.055 145.299 305.762C148.291 308.397 153.953 309.715 162.286 309.715C170.62 309.715 176.282 308.397 179.274 305.762C182.265 303.055 183.761 299.565 183.761 295.292V250.74H182.692V295.292C182.692 299.28 181.268 302.521 178.419 305.014C175.57 307.436 170.192 308.646 162.286 308.646C154.38 308.646 149.003 307.436 146.154 305.014C143.376 302.521 141.987 299.28 141.987 295.292V250.74H140.919Z" fill="white"/>
<path d="M245.737 318.048H228.429C227.076 318.048 226.079 317.763 225.438 317.193C224.868 316.552 224.583 315.555 224.583 314.202V261.745H208.878C207.524 261.745 206.527 261.46 205.886 260.89C205.316 260.249 205.032 259.252 205.032 257.898V244.971C205.032 243.618 205.316 242.656 205.886 242.086C206.527 241.445 207.524 241.125 208.878 241.125H265.288C266.641 241.125 267.603 241.445 268.173 242.086C268.814 242.656 269.134 243.618 269.134 244.971V257.898C269.134 259.252 268.814 260.249 268.173 260.89C267.603 261.46 266.641 261.745 265.288 261.745H249.583V314.202C249.583 315.555 249.262 316.552 248.621 317.193C248.052 317.763 247.09 318.048 245.737 318.048ZM236.549 308.433H237.617V251.809H259.519V250.74H214.647V251.809H236.549V308.433Z" fill="white"/>
<path d="M95.8007 446.254H54.775C53.4217 446.254 52.4245 445.969 51.7835 445.399C51.2137 444.758 50.9288 443.761 50.9288 442.407V373.176C50.9288 371.823 51.2137 370.862 51.7835 370.292C52.4245 369.651 53.4217 369.33 54.775 369.33H88.8563C95.8363 369.33 101 370.684 104.348 373.39C107.695 376.025 109.369 380.121 109.369 385.676V390.805C109.369 393.796 108.835 396.253 107.767 398.177C106.769 400.028 105.202 401.417 103.066 402.343C107.624 402.771 111.007 404.338 113.215 407.044C115.423 409.751 116.527 413.704 116.527 418.903V428.732C116.527 434.715 114.818 439.131 111.399 441.98C108.051 444.829 102.852 446.254 95.8007 446.254ZM62.7878 436.638H91.5272C94.5187 436.638 96.9403 436.389 98.7922 435.89C100.644 435.321 102.033 434.573 102.959 433.647C103.956 432.721 104.633 431.617 104.989 430.335C105.345 428.981 105.523 427.521 105.523 425.954V419.117C105.523 417.336 105.345 415.698 104.989 414.202C104.704 412.706 104.063 411.424 103.066 410.356C102.069 409.216 100.644 408.362 98.7922 407.792C96.9403 407.151 94.5543 406.83 91.634 406.83C94.6967 406.047 96.5842 404.765 97.2964 402.984C98.0799 401.204 98.4717 399.245 98.4717 397.108V390.271C98.4717 388.704 98.2936 387.243 97.9375 385.89C97.5813 384.537 96.9047 383.362 95.9076 382.365C94.9104 381.296 93.4859 380.477 91.634 379.907C89.7822 379.266 87.3961 378.946 84.4759 378.946H62.7878V436.638ZM84.4759 380.014C89.8178 380.014 93.3078 381.011 94.946 383.006C96.5842 385 97.4033 387.422 97.4033 390.271V397.108C97.4033 398.39 97.2608 399.637 96.9759 400.847C96.7623 401.987 96.1925 403.02 95.2665 403.946C94.4118 404.8 93.1298 405.513 91.4204 406.083C89.711 406.581 87.3961 406.83 84.4759 406.83H63.8562V380.014H84.4759ZM74.9673 387.493V399.031H84.0485C85.4018 399.031 86.399 398.675 87.04 397.963C87.7523 397.251 88.1084 396.182 88.1084 394.758V391.766C88.1084 390.342 87.7523 389.273 87.04 388.561C86.399 387.849 85.4018 387.493 84.0485 387.493H74.9673ZM91.634 407.899C96.9759 407.899 100.43 408.967 101.997 411.104C103.635 413.241 104.455 415.912 104.455 419.117V425.954C104.455 428.875 103.635 431.225 101.997 433.006C100.359 434.715 96.8691 435.57 91.5272 435.57H63.8562V407.899H91.634ZM74.9673 415.484V428.091H88.8563C90.2095 428.091 91.2067 427.735 91.8477 427.023C92.56 426.31 92.9161 425.242 92.9161 423.818V419.651C92.9161 418.226 92.56 417.194 91.8477 416.553C91.2067 415.84 90.2095 415.484 88.8563 415.484H74.9673Z" fill="white"/>
<path d="M186.571 446.254H132.191C130.837 446.254 129.84 445.969 129.199 445.399C128.629 444.758 128.345 443.761 128.345 442.407V373.176C128.345 371.823 128.629 370.862 129.199 370.292C129.84 369.651 130.837 369.33 132.191 369.33H148.751C150.104 369.33 151.065 369.651 151.635 370.292C152.276 370.862 152.597 371.823 152.597 373.176V426.061H167.234V408.753C167.234 407.4 167.518 406.439 168.088 405.869C168.729 405.228 169.726 404.907 171.08 404.907H186.571C187.924 404.907 188.886 405.228 189.456 405.869C190.097 406.439 190.417 407.4 190.417 408.753V442.407C190.417 443.761 190.097 444.758 189.456 445.399C188.886 445.969 187.924 446.254 186.571 446.254ZM139.99 436.638H179.306V414.523H178.238V435.57H141.058V378.946H139.99V436.638Z" fill="white"/>
<path d="M267.801 426.061C267.801 429.338 267.303 432.329 266.306 435.036C265.38 437.671 263.67 439.95 261.177 441.873C258.756 443.725 255.373 445.185 251.028 446.254C246.754 447.322 241.306 447.856 234.682 447.856C228.058 447.856 222.573 447.322 218.229 446.254C213.884 445.185 210.465 443.725 207.972 441.873C205.55 439.95 203.841 437.671 202.844 435.036C201.918 432.329 201.455 429.338 201.455 426.061V389.63C201.455 386.353 201.918 383.397 202.844 380.762C203.841 378.055 205.55 375.741 207.972 373.818C210.465 371.894 213.884 370.399 218.229 369.33C222.573 368.262 228.058 367.728 234.682 367.728C241.306 367.728 246.754 368.262 251.028 369.33C255.373 370.399 258.756 371.894 261.177 373.818C263.67 375.741 265.38 378.055 266.306 380.762C267.303 383.397 267.801 386.353 267.801 389.63V426.061ZM256.156 423.604V392.087C256.156 387.813 254.625 384.359 251.562 381.723C248.499 379.017 242.801 377.664 234.468 377.664C226.135 377.664 220.472 379.017 217.481 381.723C214.489 384.359 212.994 387.813 212.994 392.087V423.604C212.994 427.877 214.489 431.367 217.481 434.074C220.472 436.709 226.135 438.027 234.468 438.027C242.801 438.027 248.499 436.709 251.562 434.074C254.625 431.367 256.156 427.877 256.156 423.604ZM214.062 423.604V392.087C214.062 388.098 215.486 384.893 218.335 382.471C221.184 379.978 226.562 378.732 234.468 378.732C242.374 378.732 247.787 379.978 250.707 382.471C253.628 384.893 255.088 388.098 255.088 392.087V423.604C255.088 427.593 253.628 430.833 250.707 433.326C247.787 435.748 242.374 436.959 234.468 436.959C226.562 436.959 221.184 435.748 218.335 433.326C215.486 430.833 214.062 427.593 214.062 423.604ZM225.707 422.215C225.707 423.64 226.241 424.85 227.31 425.848C228.378 426.773 230.835 427.236 234.682 427.236C238.528 427.236 240.985 426.773 242.053 425.848C243.122 424.85 243.656 423.64 243.656 422.215V393.476C243.656 392.122 243.122 390.983 242.053 390.057C240.985 389.06 238.528 388.561 234.682 388.561C230.835 388.561 228.378 389.06 227.31 390.057C226.241 390.983 225.707 392.122 225.707 393.476V422.215Z" fill="white"/>
<path d="M332.578 446.254H306.509C297.606 446.254 290.982 444.473 286.637 440.912C282.364 437.35 280.227 431.866 280.227 424.459V391.232C280.227 383.825 282.364 378.34 286.637 374.779C290.982 371.147 297.606 369.33 306.509 369.33H332.578C333.931 369.33 334.892 369.651 335.462 370.292C336.103 370.862 336.424 371.823 336.424 373.176V386.104C336.424 387.457 336.103 388.454 335.462 389.095C334.892 389.665 333.931 389.95 332.578 389.95H311.103C308.895 389.95 307.257 390.413 306.189 391.339C305.12 392.194 304.586 393.511 304.586 395.292V420.719C304.586 422.5 305.12 423.818 306.189 424.672C307.257 425.456 308.895 425.848 311.103 425.848H332.578C333.931 425.848 334.892 426.168 335.462 426.809C336.103 427.379 336.424 428.34 336.424 429.694V442.407C336.424 443.761 336.103 444.758 335.462 445.399C334.892 445.969 333.931 446.254 332.578 446.254ZM326.702 435.57H308.86C302.449 435.57 298.176 434.608 296.039 432.685C293.902 430.762 292.834 427.486 292.834 422.856V392.941C292.834 388.241 293.938 384.929 296.146 383.006C298.354 381.011 302.592 380.014 308.86 380.014H326.702V378.946H308.86C302.022 378.946 297.464 380.014 295.184 382.151C292.905 384.288 291.766 387.884 291.766 392.941V422.856C291.766 427.771 292.87 431.296 295.078 433.433C297.357 435.57 301.951 436.638 308.86 436.638H326.702V435.57Z" fill="white"/>
<path d="M361.203 436.638V408.433H389.942C393.859 408.433 396.815 409.145 398.81 410.57C400.804 411.994 401.801 414.416 401.801 417.835V436.638H402.869V417.835C402.869 414.131 401.801 411.46 399.664 409.822C397.528 408.184 394.287 407.365 389.942 407.365H385.562L397.848 378.946H396.673L384.387 407.365H361.203V378.946H360.134V436.638H361.203ZM368.895 446.254H352.335C350.982 446.254 349.985 445.969 349.344 445.399C348.774 444.758 348.489 443.761 348.489 442.407V373.176C348.489 371.823 348.774 370.862 349.344 370.292C349.985 369.651 350.982 369.33 352.335 369.33H368.895C370.248 369.33 371.21 369.651 371.78 370.292C372.421 370.862 372.741 371.823 372.741 373.176V397.749H377.015L388.019 372.856C388.518 371.574 389.194 370.684 390.049 370.185C390.904 369.615 392.008 369.33 393.361 369.33H409.814C411.025 369.33 411.844 369.651 412.271 370.292C412.699 370.862 412.663 371.716 412.164 372.856L401.267 397.749C405.256 397.963 408.425 399.387 410.775 402.023C413.197 404.587 414.408 408.006 414.408 412.279V442.407C414.408 443.761 414.087 444.758 413.446 445.399C412.877 445.969 411.915 446.254 410.562 446.254H394.109C392.756 446.254 391.758 445.969 391.117 445.399C390.547 444.758 390.263 443.761 390.263 442.407V421.574C390.263 420.434 389.978 419.544 389.408 418.903C388.838 418.262 387.983 417.942 386.844 417.942H372.741V442.407C372.741 443.761 372.421 444.758 371.78 445.399C371.21 445.969 370.248 446.254 368.895 446.254Z" fill="white"/>
</svg>
