<svg width="32" height="32" viewBox="0 0 32 32" fill="none" xmlns="http://www.w3.org/2000/svg">
<circle cx="16" cy="16" r="16" fill="black" fill-opacity="0.06"/>
<mask id="path-2-outside-1_43761_40536" maskUnits="userSpaceOnUse" x="6" y="7" width="20" height="19" fill="black">
<rect fill="white" x="6" y="7" width="20" height="19"/>
<path fill-rule="evenodd" clip-rule="evenodd" d="M15.8478 24.9503L9.66244 21.6684C9.53372 21.6005 9.45408 21.4718 9.45408 21.3317V18.4195C9.45408 18.4164 9.45408 18.4123 9.45408 18.4082L7.17302 16.879C6.95702 16.7348 6.94066 16.4382 7.1392 16.2745L10.113 13.8134L7.15993 11.6745C6.93302 11.5108 6.95048 11.1823 7.19375 11.0402L12.2882 8.058C12.4322 7.97356 12.6177 7.98179 12.7529 8.07962L15.9995 10.4316L19.2471 8.07962C19.3823 7.98179 19.5678 7.97356 19.7118 8.058L24.8063 11.0402C25.0495 11.1823 25.067 11.5108 24.8401 11.6745L21.8859 13.8134L24.8608 16.2745C25.0593 16.4382 25.043 16.7348 24.827 16.879L22.5459 18.4072C22.5459 18.4113 22.547 18.4154 22.547 18.4195V21.3317C22.547 21.4707 22.4674 21.5984 22.3397 21.6674L16.2504 24.9493C16.126 25.0162 15.9733 25.0172 15.8478 24.9503ZM16.0464 24.1708L21.7288 21.1082V18.954L19.7325 20.2906C19.5787 20.3946 19.3692 20.3843 19.2263 20.2659L15.9995 17.5957L12.7737 20.2659C12.6308 20.3843 12.4213 20.3946 12.2675 20.2906L10.2723 18.955V21.1062L16.0464 24.1708ZM12.477 19.4843L15.2075 17.224L10.7992 14.2726L8.06865 16.532L12.477 19.4843ZM19.523 19.4843L23.9314 16.532L21.2008 14.2726L16.7925 17.224L19.523 19.4843ZM15.9995 16.8079L20.471 13.8144L15.9995 11.1978L11.5279 13.8144L15.9995 16.8079ZM10.797 13.3335L15.1486 10.7879L12.4791 8.85504L8.12755 11.4017L10.797 13.3335ZM21.203 13.3335L23.8724 11.4017L19.5209 8.85504L16.8514 10.7879L21.203 13.3335Z"/>
</mask>
<path fill-rule="evenodd" clip-rule="evenodd" d="M15.8478 24.9503L9.66244 21.6684C9.53372 21.6005 9.45408 21.4718 9.45408 21.3317V18.4195C9.45408 18.4164 9.45408 18.4123 9.45408 18.4082L7.17302 16.879C6.95702 16.7348 6.94066 16.4382 7.1392 16.2745L10.113 13.8134L7.15993 11.6745C6.93302 11.5108 6.95048 11.1823 7.19375 11.0402L12.2882 8.058C12.4322 7.97356 12.6177 7.98179 12.7529 8.07962L15.9995 10.4316L19.2471 8.07962C19.3823 7.98179 19.5678 7.97356 19.7118 8.058L24.8063 11.0402C25.0495 11.1823 25.067 11.5108 24.8401 11.6745L21.8859 13.8134L24.8608 16.2745C25.0593 16.4382 25.043 16.7348 24.827 16.879L22.5459 18.4072C22.5459 18.4113 22.547 18.4154 22.547 18.4195V21.3317C22.547 21.4707 22.4674 21.5984 22.3397 21.6674L16.2504 24.9493C16.126 25.0162 15.9733 25.0172 15.8478 24.9503ZM16.0464 24.1708L21.7288 21.1082V18.954L19.7325 20.2906C19.5787 20.3946 19.3692 20.3843 19.2263 20.2659L15.9995 17.5957L12.7737 20.2659C12.6308 20.3843 12.4213 20.3946 12.2675 20.2906L10.2723 18.955V21.1062L16.0464 24.1708ZM12.477 19.4843L15.2075 17.224L10.7992 14.2726L8.06865 16.532L12.477 19.4843ZM19.523 19.4843L23.9314 16.532L21.2008 14.2726L16.7925 17.224L19.523 19.4843ZM15.9995 16.8079L20.471 13.8144L15.9995 11.1978L11.5279 13.8144L15.9995 16.8079ZM10.797 13.3335L15.1486 10.7879L12.4791 8.85504L8.12755 11.4017L10.797 13.3335ZM21.203 13.3335L23.8724 11.4017L19.5209 8.85504L16.8514 10.7879L21.203 13.3335Z" fill="black" fill-opacity="0.3"/>
<path d="M15.8478 24.9503L15.989 24.6856L15.9884 24.6853L15.8478 24.9503ZM9.66244 21.6684L9.80305 21.4034L9.80251 21.4031L9.66244 21.6684ZM9.45408 18.4082H9.75408V18.2481L9.62114 18.159L9.45408 18.4082ZM7.17302 16.879L7.34007 16.6298L7.33957 16.6295L7.17302 16.879ZM7.1392 16.2745L7.33007 16.506L7.33048 16.5056L7.1392 16.2745ZM10.113 13.8134L10.3043 14.0445L10.6026 13.7976L10.289 13.5704L10.113 13.8134ZM7.15993 11.6745L7.33591 11.4316L7.33548 11.4313L7.15993 11.6745ZM7.19375 11.0402L7.34507 11.2992L7.34531 11.2991L7.19375 11.0402ZM12.2882 8.058L12.4398 8.3169L12.44 8.31678L12.2882 8.058ZM12.7529 8.07962L12.929 7.83668L12.9288 7.83653L12.7529 8.07962ZM15.9995 10.4316L15.8234 10.6746L15.9994 10.802L16.1754 10.6746L15.9995 10.4316ZM19.2471 8.07962L19.0712 7.83653L19.0711 7.83665L19.2471 8.07962ZM19.7118 8.058L19.56 8.31678L19.5602 8.3169L19.7118 8.058ZM24.8063 11.0402L24.6547 11.2991L24.6549 11.2992L24.8063 11.0402ZM24.8401 11.6745L24.6645 11.4313L24.6641 11.4315L24.8401 11.6745ZM21.8859 13.8134L21.71 13.5704L21.3962 13.7976L21.6947 14.0445L21.8859 13.8134ZM24.8608 16.2745L24.6696 16.5057L24.6699 16.506L24.8608 16.2745ZM24.827 16.879L24.6604 16.6295L24.66 16.6298L24.827 16.879ZM22.5459 18.4072L22.3789 18.1579L22.2459 18.247V18.4072H22.5459ZM22.3397 21.6674L22.4821 21.9315L22.4824 21.9313L22.3397 21.6674ZM16.2504 24.9493L16.3925 25.2134L16.3927 25.2134L16.2504 24.9493ZM16.0464 24.1708L15.9057 24.4358L16.0474 24.511L16.1887 24.4349L16.0464 24.1708ZM21.7288 21.1082L21.8712 21.3723L22.0288 21.2874V21.1082H21.7288ZM21.7288 18.954H22.0288V18.3921L21.5619 18.7047L21.7288 18.954ZM19.7325 20.2906L19.5656 20.0413L19.5645 20.0421L19.7325 20.2906ZM19.2263 20.2659L19.4177 20.0349L19.4176 20.0348L19.2263 20.2659ZM15.9995 17.5957L16.1907 17.3646L15.9994 17.2063L15.8082 17.3646L15.9995 17.5957ZM12.7737 20.2659L12.5824 20.0348L12.5823 20.0349L12.7737 20.2659ZM12.2675 20.2906L12.4355 20.0421L12.4344 20.0413L12.2675 20.2906ZM10.2723 18.955L10.4391 18.7057L9.97225 18.3932V18.955H10.2723ZM10.2723 21.1062H9.97225V21.2866L10.1316 21.3712L10.2723 21.1062ZM12.477 19.4843L12.31 19.7336L12.4959 19.8581L12.6683 19.7154L12.477 19.4843ZM15.2075 17.224L15.3988 17.4551L15.7087 17.1985L15.3744 16.9747L15.2075 17.224ZM10.7992 14.2726L10.9661 14.0234L10.7802 13.8989L10.6079 14.0415L10.7992 14.2726ZM8.06865 16.532L7.8774 16.3008L7.5674 16.5573L7.90171 16.7812L8.06865 16.532ZM19.523 19.4843L19.3317 19.7154L19.5041 19.8581L19.69 19.7336L19.523 19.4843ZM23.9314 16.532L24.0983 16.7812L24.4326 16.5573L24.1226 16.3008L23.9314 16.532ZM21.2008 14.2726L21.3921 14.0415L21.2198 13.8989L21.0339 14.0234L21.2008 14.2726ZM16.7925 17.224L16.6256 16.9747L16.2913 17.1985L16.6012 17.4551L16.7925 17.224ZM15.9995 16.8079L15.8326 17.0572L15.9995 17.169L16.1663 17.0572L15.9995 16.8079ZM20.471 13.8144L20.6379 14.0637L21.0358 13.7973L20.6226 13.5555L20.471 13.8144ZM15.9995 11.1978L16.151 10.9388L15.9995 10.8502L15.8479 10.9388L15.9995 11.1978ZM11.5279 13.8144L11.3764 13.5555L10.9631 13.7973L11.361 14.0637L11.5279 13.8144ZM10.797 13.3335L10.6211 13.5765L10.7796 13.6912L10.9485 13.5924L10.797 13.3335ZM15.1486 10.7879L15.3 11.0469L15.697 10.8146L15.3245 10.5449L15.1486 10.7879ZM12.4791 8.85504L12.6551 8.61205L12.4965 8.49725L12.3276 8.59612L12.4791 8.85504ZM8.12755 11.4017L7.97603 11.1427L7.57907 11.375L7.95167 11.6447L8.12755 11.4017ZM21.203 13.3335L21.0515 13.5924L21.2204 13.6912L21.3789 13.5765L21.203 13.3335ZM23.8724 11.4017L24.0483 11.6447L24.4209 11.375L24.024 11.1427L23.8724 11.4017ZM19.5209 8.85504L19.6724 8.59612L19.5035 8.49725L19.3449 8.61205L19.5209 8.85504ZM16.8514 10.7879L16.6755 10.5449L16.303 10.8146L16.7 11.0469L16.8514 10.7879ZM15.9884 24.6853L9.80305 21.4034L9.52183 21.9334L15.7072 25.2153L15.9884 24.6853ZM9.80251 21.4031C9.76733 21.3846 9.75408 21.3552 9.75408 21.3317H9.15408C9.15408 21.5884 9.3001 21.8164 9.52237 21.9337L9.80251 21.4031ZM9.75408 21.3317V18.4195H9.15408V21.3317H9.75408ZM9.75408 18.4195C9.75408 18.4195 9.75408 18.4195 9.75408 18.4195C9.75408 18.4195 9.75408 18.4195 9.75408 18.4195C9.75408 18.4195 9.75408 18.4195 9.75408 18.4195C9.75408 18.4195 9.75408 18.4195 9.75408 18.4194C9.75408 18.4194 9.75408 18.4194 9.75408 18.4194C9.75408 18.4194 9.75408 18.4194 9.75408 18.4194C9.75408 18.4194 9.75408 18.4194 9.75408 18.4194C9.75408 18.4194 9.75408 18.4194 9.75408 18.4194C9.75408 18.4194 9.75408 18.4194 9.75408 18.4194C9.75408 18.4194 9.75408 18.4193 9.75408 18.4193C9.75408 18.4193 9.75408 18.4193 9.75408 18.4193C9.75408 18.4193 9.75408 18.4193 9.75408 18.4193C9.75408 18.4193 9.75408 18.4193 9.75408 18.4193C9.75408 18.4193 9.75408 18.4193 9.75408 18.4193C9.75408 18.4193 9.75408 18.4193 9.75408 18.4192C9.75408 18.4192 9.75408 18.4192 9.75408 18.4192C9.75408 18.4192 9.75408 18.4192 9.75408 18.4192C9.75408 18.4192 9.75408 18.4192 9.75408 18.4192C9.75408 18.4192 9.75408 18.4192 9.75408 18.4192C9.75408 18.4192 9.75408 18.4192 9.75408 18.4192C9.75408 18.4191 9.75408 18.4191 9.75408 18.4191C9.75408 18.4191 9.75408 18.4191 9.75408 18.4191C9.75408 18.4191 9.75408 18.4191 9.75408 18.4191C9.75408 18.4191 9.75408 18.4191 9.75408 18.4191C9.75408 18.4191 9.75408 18.4191 9.75408 18.4191C9.75408 18.4191 9.75408 18.4191 9.75408 18.419C9.75408 18.419 9.75408 18.419 9.75408 18.419C9.75408 18.419 9.75408 18.419 9.75408 18.419C9.75408 18.419 9.75408 18.419 9.75408 18.419C9.75408 18.419 9.75408 18.419 9.75408 18.419C9.75408 18.419 9.75408 18.419 9.75408 18.419C9.75408 18.4189 9.75408 18.4189 9.75408 18.4189C9.75408 18.4189 9.75408 18.4189 9.75408 18.4189C9.75408 18.4189 9.75408 18.4189 9.75408 18.4189C9.75408 18.4189 9.75408 18.4189 9.75408 18.4189C9.75408 18.4189 9.75408 18.4189 9.75408 18.4189C9.75408 18.4188 9.75408 18.4188 9.75408 18.4188C9.75408 18.4188 9.75408 18.4188 9.75408 18.4188C9.75408 18.4188 9.75408 18.4188 9.75408 18.4188C9.75408 18.4188 9.75408 18.4188 9.75408 18.4188C9.75408 18.4188 9.75408 18.4188 9.75408 18.4188C9.75408 18.4188 9.75408 18.4187 9.75408 18.4187C9.75408 18.4187 9.75408 18.4187 9.75408 18.4187C9.75408 18.4187 9.75408 18.4187 9.75408 18.4187C9.75408 18.4187 9.75408 18.4187 9.75408 18.4187C9.75408 18.4187 9.75408 18.4187 9.75408 18.4187C9.75408 18.4187 9.75408 18.4187 9.75408 18.4186C9.75408 18.4186 9.75408 18.4186 9.75408 18.4186C9.75408 18.4186 9.75408 18.4186 9.75408 18.4186C9.75408 18.4186 9.75408 18.4186 9.75408 18.4186C9.75408 18.4186 9.75408 18.4186 9.75408 18.4186C9.75408 18.4186 9.75408 18.4186 9.75408 18.4186C9.75408 18.4185 9.75408 18.4185 9.75408 18.4185C9.75408 18.4185 9.75408 18.4185 9.75408 18.4185C9.75408 18.4185 9.75408 18.4185 9.75408 18.4185C9.75408 18.4185 9.75408 18.4185 9.75408 18.4185C9.75408 18.4185 9.75408 18.4185 9.75408 18.4185C9.75408 18.4184 9.75408 18.4184 9.75408 18.4184C9.75408 18.4184 9.75408 18.4184 9.75408 18.4184C9.75408 18.4184 9.75408 18.4184 9.75408 18.4184C9.75408 18.4184 9.75408 18.4184 9.75408 18.4184C9.75408 18.4184 9.75408 18.4184 9.75408 18.4184C9.75408 18.4184 9.75408 18.4183 9.75408 18.4183C9.75408 18.4183 9.75408 18.4183 9.75408 18.4183C9.75408 18.4183 9.75408 18.4183 9.75408 18.4183C9.75408 18.4183 9.75408 18.4183 9.75408 18.4183C9.75408 18.4183 9.75408 18.4183 9.75408 18.4183C9.75408 18.4183 9.75408 18.4182 9.75408 18.4182C9.75408 18.4182 9.75408 18.4182 9.75408 18.4182C9.75408 18.4182 9.75408 18.4182 9.75408 18.4182C9.75408 18.4182 9.75408 18.4182 9.75408 18.4182C9.75408 18.4182 9.75408 18.4182 9.75408 18.4182C9.75408 18.4182 9.75408 18.4181 9.75408 18.4181C9.75408 18.4181 9.75408 18.4181 9.75408 18.4181C9.75408 18.4181 9.75408 18.4181 9.75408 18.4181C9.75408 18.4181 9.75408 18.4181 9.75408 18.4181C9.75408 18.4181 9.75408 18.4181 9.75408 18.4181C9.75408 18.4181 9.75408 18.418 9.75408 18.418C9.75408 18.418 9.75408 18.418 9.75408 18.418C9.75408 18.418 9.75408 18.418 9.75408 18.418C9.75408 18.418 9.75408 18.418 9.75408 18.418C9.75408 18.418 9.75408 18.418 9.75408 18.418C9.75408 18.418 9.75408 18.4179 9.75408 18.4179C9.75408 18.4179 9.75408 18.4179 9.75408 18.4179C9.75408 18.4179 9.75408 18.4179 9.75408 18.4179C9.75408 18.4179 9.75408 18.4179 9.75408 18.4179C9.75408 18.4179 9.75408 18.4179 9.75408 18.4179C9.75408 18.4179 9.75408 18.4178 9.75408 18.4178C9.75408 18.4178 9.75408 18.4178 9.75408 18.4178C9.75408 18.4178 9.75408 18.4178 9.75408 18.4178C9.75408 18.4178 9.75408 18.4178 9.75408 18.4178C9.75408 18.4178 9.75408 18.4178 9.75408 18.4178C9.75408 18.4178 9.75408 18.4177 9.75408 18.4177C9.75408 18.4177 9.75408 18.4177 9.75408 18.4177C9.75408 18.4177 9.75408 18.4177 9.75408 18.4177C9.75408 18.4177 9.75408 18.4177 9.75408 18.4177C9.75408 18.4177 9.75408 18.4177 9.75408 18.4177C9.75408 18.4177 9.75408 18.4176 9.75408 18.4176C9.75408 18.4176 9.75408 18.4176 9.75408 18.4176C9.75408 18.4176 9.75408 18.4176 9.75408 18.4176C9.75408 18.4176 9.75408 18.4176 9.75408 18.4176C9.75408 18.4176 9.75408 18.4176 9.75408 18.4176C9.75408 18.4176 9.75408 18.4175 9.75408 18.4175C9.75408 18.4175 9.75408 18.4175 9.75408 18.4175C9.75408 18.4175 9.75408 18.4175 9.75408 18.4175C9.75408 18.4175 9.75408 18.4175 9.75408 18.4175C9.75408 18.4175 9.75408 18.4175 9.75408 18.4175C9.75408 18.4175 9.75408 18.4174 9.75408 18.4174C9.75408 18.4174 9.75408 18.4174 9.75408 18.4174C9.75408 18.4174 9.75408 18.4174 9.75408 18.4174C9.75408 18.4174 9.75408 18.4174 9.75408 18.4174C9.75408 18.4174 9.75408 18.4174 9.75408 18.4174C9.75408 18.4174 9.75408 18.4173 9.75408 18.4173C9.75408 18.4173 9.75408 18.4173 9.75408 18.4173C9.75408 18.4173 9.75408 18.4173 9.75408 18.4173C9.75408 18.4173 9.75408 18.4173 9.75408 18.4173C9.75408 18.4173 9.75408 18.4173 9.75408 18.4173C9.75408 18.4172 9.75408 18.4172 9.75408 18.4172C9.75408 18.4172 9.75408 18.4172 9.75408 18.4172C9.75408 18.4172 9.75408 18.4172 9.75408 18.4172C9.75408 18.4172 9.75408 18.4172 9.75408 18.4172C9.75408 18.4172 9.75408 18.4172 9.75408 18.4172C9.75408 18.4171 9.75408 18.4171 9.75408 18.4171C9.75408 18.4171 9.75408 18.4171 9.75408 18.4171C9.75408 18.4171 9.75408 18.4171 9.75408 18.4171C9.75408 18.4171 9.75408 18.4171 9.75408 18.4171C9.75408 18.4171 9.75408 18.4171 9.75408 18.417C9.75408 18.417 9.75408 18.417 9.75408 18.417C9.75408 18.417 9.75408 18.417 9.75408 18.417C9.75408 18.417 9.75408 18.417 9.75408 18.417C9.75408 18.417 9.75408 18.417 9.75408 18.417C9.75408 18.417 9.75408 18.417 9.75408 18.4169C9.75408 18.4169 9.75408 18.4169 9.75408 18.4169C9.75408 18.4169 9.75408 18.4169 9.75408 18.4169C9.75408 18.4169 9.75408 18.4169 9.75408 18.4169C9.75408 18.4169 9.75408 18.4169 9.75408 18.4169C9.75408 18.4169 9.75408 18.4168 9.75408 18.4168C9.75408 18.4168 9.75408 18.4168 9.75408 18.4168C9.75408 18.4168 9.75408 18.4168 9.75408 18.4168C9.75408 18.4168 9.75408 18.4168 9.75408 18.4168C9.75408 18.4168 9.75408 18.4168 9.75408 18.4168C9.75408 18.4167 9.75408 18.4167 9.75408 18.4167C9.75408 18.4167 9.75408 18.4167 9.75408 18.4167C9.75408 18.4167 9.75408 18.4167 9.75408 18.4167C9.75408 18.4167 9.75408 18.4167 9.75408 18.4167C9.75408 18.4167 9.75408 18.4167 9.75408 18.4167C9.75408 18.4166 9.75408 18.4166 9.75408 18.4166C9.75408 18.4166 9.75408 18.4166 9.75408 18.4166C9.75408 18.4166 9.75408 18.4166 9.75408 18.4166C9.75408 18.4166 9.75408 18.4166 9.75408 18.4166C9.75408 18.4166 9.75408 18.4166 9.75408 18.4165C9.75408 18.4165 9.75408 18.4165 9.75408 18.4165C9.75408 18.4165 9.75408 18.4165 9.75408 18.4165C9.75408 18.4165 9.75408 18.4165 9.75408 18.4165C9.75408 18.4165 9.75408 18.4165 9.75408 18.4165C9.75408 18.4165 9.75408 18.4164 9.75408 18.4164C9.75408 18.4164 9.75408 18.4164 9.75408 18.4164C9.75408 18.4164 9.75408 18.4164 9.75408 18.4164C9.75408 18.4164 9.75408 18.4164 9.75408 18.4164C9.75408 18.4164 9.75408 18.4164 9.75408 18.4164C9.75408 18.4163 9.75408 18.4163 9.75408 18.4163C9.75408 18.4163 9.75408 18.4163 9.75408 18.4163C9.75408 18.4163 9.75408 18.4163 9.75408 18.4163C9.75408 18.4163 9.75408 18.4163 9.75408 18.4163C9.75408 18.4163 9.75408 18.4163 9.75408 18.4162C9.75408 18.4162 9.75408 18.4162 9.75408 18.4162C9.75408 18.4162 9.75408 18.4162 9.75408 18.4162C9.75408 18.4162 9.75408 18.4162 9.75408 18.4162C9.75408 18.4162 9.75408 18.4162 9.75408 18.4162C9.75408 18.4162 9.75408 18.4161 9.75408 18.4161C9.75408 18.4161 9.75408 18.4161 9.75408 18.4161C9.75408 18.4161 9.75408 18.4161 9.75408 18.4161C9.75408 18.4161 9.75408 18.4161 9.75408 18.4161C9.75408 18.4161 9.75408 18.4161 9.75408 18.4161C9.75408 18.416 9.75408 18.416 9.75408 18.416C9.75408 18.416 9.75408 18.416 9.75408 18.416C9.75408 18.416 9.75408 18.416 9.75408 18.416C9.75408 18.416 9.75408 18.416 9.75408 18.416C9.75408 18.416 9.75408 18.416 9.75408 18.4159C9.75408 18.4159 9.75408 18.4159 9.75408 18.4159C9.75408 18.4159 9.75408 18.4159 9.75408 18.4159C9.75408 18.4159 9.75408 18.4159 9.75408 18.4159C9.75408 18.4159 9.75408 18.4159 9.75408 18.4159C9.75408 18.4159 9.75408 18.4158 9.75408 18.4158C9.75408 18.4158 9.75408 18.4158 9.75408 18.4158C9.75408 18.4158 9.75408 18.4158 9.75408 18.4158C9.75408 18.4158 9.75408 18.4158 9.75408 18.4158C9.75408 18.4158 9.75408 18.4158 9.75408 18.4158C9.75408 18.4157 9.75408 18.4157 9.75408 18.4157C9.75408 18.4157 9.75408 18.4157 9.75408 18.4157C9.75408 18.4157 9.75408 18.4157 9.75408 18.4157C9.75408 18.4157 9.75408 18.4157 9.75408 18.4157C9.75408 18.4157 9.75408 18.4157 9.75408 18.4156C9.75408 18.4156 9.75408 18.4156 9.75408 18.4156C9.75408 18.4156 9.75408 18.4156 9.75408 18.4156C9.75408 18.4156 9.75408 18.4156 9.75408 18.4156C9.75408 18.4156 9.75408 18.4156 9.75408 18.4156C9.75408 18.4156 9.75408 18.4155 9.75408 18.4155C9.75408 18.4155 9.75408 18.4155 9.75408 18.4155C9.75408 18.4155 9.75408 18.4155 9.75408 18.4155C9.75408 18.4155 9.75408 18.4155 9.75408 18.4155C9.75408 18.4155 9.75408 18.4155 9.75408 18.4154C9.75408 18.4154 9.75408 18.4154 9.75408 18.4154C9.75408 18.4154 9.75408 18.4154 9.75408 18.4154C9.75408 18.4154 9.75408 18.4154 9.75408 18.4154C9.75408 18.4154 9.75408 18.4154 9.75408 18.4154C9.75408 18.4154 9.75408 18.4153 9.75408 18.4153C9.75408 18.4153 9.75408 18.4153 9.75408 18.4153C9.75408 18.4153 9.75408 18.4153 9.75408 18.4153C9.75408 18.4153 9.75408 18.4153 9.75408 18.4153C9.75408 18.4153 9.75408 18.4153 9.75408 18.4153C9.75408 18.4152 9.75408 18.4152 9.75408 18.4152C9.75408 18.4152 9.75408 18.4152 9.75408 18.4152C9.75408 18.4152 9.75408 18.4152 9.75408 18.4152C9.75408 18.4152 9.75408 18.4152 9.75408 18.4152C9.75408 18.4152 9.75408 18.4151 9.75408 18.4151C9.75408 18.4151 9.75408 18.4151 9.75408 18.4151C9.75408 18.4151 9.75408 18.4151 9.75408 18.4151C9.75408 18.4151 9.75408 18.4151 9.75408 18.4151C9.75408 18.4151 9.75408 18.4151 9.75408 18.4151C9.75408 18.415 9.75408 18.415 9.75408 18.415C9.75408 18.415 9.75408 18.415 9.75408 18.415C9.75408 18.415 9.75408 18.415 9.75408 18.415C9.75408 18.415 9.75408 18.415 9.75408 18.415C9.75408 18.415 9.75408 18.4149 9.75408 18.4149C9.75408 18.4149 9.75408 18.4149 9.75408 18.4149C9.75408 18.4149 9.75408 18.4149 9.75408 18.4149C9.75408 18.4149 9.75408 18.4149 9.75408 18.4149C9.75408 18.4149 9.75408 18.4149 9.75408 18.4149C9.75408 18.4148 9.75408 18.4148 9.75408 18.4148C9.75408 18.4148 9.75408 18.4148 9.75408 18.4148C9.75408 18.4148 9.75408 18.4148 9.75408 18.4148C9.75408 18.4148 9.75408 18.4148 9.75408 18.4148C9.75408 18.4148 9.75408 18.4147 9.75408 18.4147C9.75408 18.4147 9.75408 18.4147 9.75408 18.4147C9.75408 18.4147 9.75408 18.4147 9.75408 18.4147C9.75408 18.4147 9.75408 18.4147 9.75408 18.4147C9.75408 18.4147 9.75408 18.4147 9.75408 18.4146C9.75408 18.4146 9.75408 18.4146 9.75408 18.4146C9.75408 18.4146 9.75408 18.4146 9.75408 18.4146C9.75408 18.4146 9.75408 18.4146 9.75408 18.4146C9.75408 18.4146 9.75408 18.4146 9.75408 18.4146C9.75408 18.4146 9.75408 18.4145 9.75408 18.4145C9.75408 18.4145 9.75408 18.4145 9.75408 18.4145C9.75408 18.4145 9.75408 18.4145 9.75408 18.4145C9.75408 18.4145 9.75408 18.4145 9.75408 18.4145C9.75408 18.4145 9.75408 18.4145 9.75408 18.4144C9.75408 18.4144 9.75408 18.4144 9.75408 18.4144C9.75408 18.4144 9.75408 18.4144 9.75408 18.4144C9.75408 18.4144 9.75408 18.4144 9.75408 18.4144C9.75408 18.4144 9.75408 18.4144 9.75408 18.4144C9.75408 18.4144 9.75408 18.4143 9.75408 18.4143C9.75408 18.4143 9.75408 18.4143 9.75408 18.4143C9.75408 18.4143 9.75408 18.4143 9.75408 18.4143C9.75408 18.4143 9.75408 18.4143 9.75408 18.4143C9.75408 18.4143 9.75408 18.4143 9.75408 18.4142C9.75408 18.4142 9.75408 18.4142 9.75408 18.4142C9.75408 18.4142 9.75408 18.4142 9.75408 18.4142C9.75408 18.4142 9.75408 18.4142 9.75408 18.4142C9.75408 18.4142 9.75408 18.4142 9.75408 18.4142C9.75408 18.4141 9.75408 18.4141 9.75408 18.4141C9.75408 18.4141 9.75408 18.4141 9.75408 18.4141C9.75408 18.4141 9.75408 18.4141 9.75408 18.4141C9.75408 18.4141 9.75408 18.4141 9.75408 18.4141C9.75408 18.4141 9.75408 18.414 9.75408 18.414C9.75408 18.414 9.75408 18.414 9.75408 18.414C9.75408 18.414 9.75408 18.414 9.75408 18.414C9.75408 18.414 9.75408 18.414 9.75408 18.414C9.75408 18.414 9.75408 18.414 9.75408 18.4139C9.75408 18.4139 9.75408 18.4139 9.75408 18.4139C9.75408 18.4139 9.75408 18.4139 9.75408 18.4139C9.75408 18.4139 9.75408 18.4139 9.75408 18.4139C9.75408 18.4139 9.75408 18.4139 9.75408 18.4139C9.75408 18.4139 9.75408 18.4138 9.75408 18.4138C9.75408 18.4138 9.75408 18.4138 9.75408 18.4138C9.75408 18.4138 9.75408 18.4138 9.75408 18.4138C9.75408 18.4138 9.75408 18.4138 9.75408 18.4138C9.75408 18.4138 9.75408 18.4138 9.75408 18.4137C9.75408 18.4137 9.75408 18.4137 9.75408 18.4137C9.75408 18.4137 9.75408 18.4137 9.75408 18.4137C9.75408 18.4137 9.75408 18.4137 9.75408 18.4137C9.75408 18.4137 9.75408 18.4137 9.75408 18.4137C9.75408 18.4136 9.75408 18.4136 9.75408 18.4136C9.75408 18.4136 9.75408 18.4136 9.75408 18.4136C9.75408 18.4136 9.75408 18.4136 9.75408 18.4136C9.75408 18.4136 9.75408 18.4136 9.75408 18.4136C9.75408 18.4136 9.75408 18.4135 9.75408 18.4135C9.75408 18.4135 9.75408 18.4135 9.75408 18.4135C9.75408 18.4135 9.75408 18.4135 9.75408 18.4135C9.75408 18.4135 9.75408 18.4135 9.75408 18.4135C9.75408 18.4135 9.75408 18.4135 9.75408 18.4134C9.75408 18.4134 9.75408 18.4134 9.75408 18.4134C9.75408 18.4134 9.75408 18.4134 9.75408 18.4134C9.75408 18.4134 9.75408 18.4134 9.75408 18.4134C9.75408 18.4134 9.75408 18.4134 9.75408 18.4134C9.75408 18.4133 9.75408 18.4133 9.75408 18.4133C9.75408 18.4133 9.75408 18.4133 9.75408 18.4133C9.75408 18.4133 9.75408 18.4133 9.75408 18.4133C9.75408 18.4133 9.75408 18.4133 9.75408 18.4133C9.75408 18.4133 9.75408 18.4132 9.75408 18.4132C9.75408 18.4132 9.75408 18.4132 9.75408 18.4132C9.75408 18.4132 9.75408 18.4132 9.75408 18.4132C9.75408 18.4132 9.75408 18.4132 9.75408 18.4132C9.75408 18.4132 9.75408 18.4132 9.75408 18.4131C9.75408 18.4131 9.75408 18.4131 9.75408 18.4131C9.75408 18.4131 9.75408 18.4131 9.75408 18.4131C9.75408 18.4131 9.75408 18.4131 9.75408 18.4131C9.75408 18.4131 9.75408 18.4131 9.75408 18.4131C9.75408 18.413 9.75408 18.413 9.75408 18.413C9.75408 18.413 9.75408 18.413 9.75408 18.413C9.75408 18.413 9.75408 18.413 9.75408 18.413C9.75408 18.413 9.75408 18.413 9.75408 18.413C9.75408 18.413 9.75408 18.4129 9.75408 18.4129C9.75408 18.4129 9.75408 18.4129 9.75408 18.4129C9.75408 18.4129 9.75408 18.4129 9.75408 18.4129C9.75408 18.4129 9.75408 18.4129 9.75408 18.4129C9.75408 18.4129 9.75408 18.4129 9.75408 18.4128C9.75408 18.4128 9.75408 18.4128 9.75408 18.4128C9.75408 18.4128 9.75408 18.4128 9.75408 18.4128C9.75408 18.4128 9.75408 18.4128 9.75408 18.4128C9.75408 18.4128 9.75408 18.4128 9.75408 18.4128C9.75408 18.4127 9.75408 18.4127 9.75408 18.4127C9.75408 18.4127 9.75408 18.4127 9.75408 18.4127C9.75408 18.4127 9.75408 18.4127 9.75408 18.4127C9.75408 18.4127 9.75408 18.4127 9.75408 18.4127C9.75408 18.4127 9.75408 18.4126 9.75408 18.4126C9.75408 18.4126 9.75408 18.4126 9.75408 18.4126C9.75408 18.4126 9.75408 18.4126 9.75408 18.4126C9.75408 18.4126 9.75408 18.4126 9.75408 18.4126C9.75408 18.4126 9.75408 18.4125 9.75408 18.4125C9.75408 18.4125 9.75408 18.4125 9.75408 18.4125C9.75408 18.4125 9.75408 18.4125 9.75408 18.4125C9.75408 18.4125 9.75408 18.4125 9.75408 18.4125C9.75408 18.4125 9.75408 18.4125 9.75408 18.4124C9.75408 18.4124 9.75408 18.4124 9.75408 18.4124C9.75408 18.4124 9.75408 18.4124 9.75408 18.4124C9.75408 18.4124 9.75408 18.4124 9.75408 18.4124C9.75408 18.4124 9.75408 18.4124 9.75408 18.4124C9.75408 18.4123 9.75408 18.4123 9.75408 18.4123C9.75408 18.4123 9.75408 18.4123 9.75408 18.4123C9.75408 18.4123 9.75408 18.4123 9.75408 18.4123C9.75408 18.4123 9.75408 18.4123 9.75408 18.4123C9.75408 18.4123 9.75408 18.4122 9.75408 18.4122C9.75408 18.4122 9.75408 18.4122 9.75408 18.4122C9.75408 18.4122 9.75408 18.4122 9.75408 18.4122C9.75408 18.4122 9.75408 18.4122 9.75408 18.4122C9.75408 18.4122 9.75408 18.4122 9.75408 18.4121C9.75408 18.4121 9.75408 18.4121 9.75408 18.4121C9.75408 18.4121 9.75408 18.4121 9.75408 18.4121C9.75408 18.4121 9.75408 18.4121 9.75408 18.4121C9.75408 18.4121 9.75408 18.4121 9.75408 18.412C9.75408 18.412 9.75408 18.412 9.75408 18.412C9.75408 18.412 9.75408 18.412 9.75408 18.412C9.75408 18.412 9.75408 18.412 9.75408 18.412C9.75408 18.412 9.75408 18.412 9.75408 18.412C9.75408 18.4119 9.75408 18.4119 9.75408 18.4119C9.75408 18.4119 9.75408 18.4119 9.75408 18.4119C9.75408 18.4119 9.75408 18.4119 9.75408 18.4119C9.75408 18.4119 9.75408 18.4119 9.75408 18.4119C9.75408 18.4119 9.75408 18.4118 9.75408 18.4118C9.75408 18.4118 9.75408 18.4118 9.75408 18.4118C9.75408 18.4118 9.75408 18.4118 9.75408 18.4118C9.75408 18.4118 9.75408 18.4118 9.75408 18.4118C9.75408 18.4118 9.75408 18.4117 9.75408 18.4117C9.75408 18.4117 9.75408 18.4117 9.75408 18.4117C9.75408 18.4117 9.75408 18.4117 9.75408 18.4117C9.75408 18.4117 9.75408 18.4117 9.75408 18.4117C9.75408 18.4117 9.75408 18.4117 9.75408 18.4116C9.75408 18.4116 9.75408 18.4116 9.75408 18.4116C9.75408 18.4116 9.75408 18.4116 9.75408 18.4116C9.75408 18.4116 9.75408 18.4116 9.75408 18.4116C9.75408 18.4116 9.75408 18.4116 9.75408 18.4116C9.75408 18.4115 9.75408 18.4115 9.75408 18.4115C9.75408 18.4115 9.75408 18.4115 9.75408 18.4115C9.75408 18.4115 9.75408 18.4115 9.75408 18.4115C9.75408 18.4115 9.75408 18.4115 9.75408 18.4115C9.75408 18.4115 9.75408 18.4114 9.75408 18.4114C9.75408 18.4114 9.75408 18.4114 9.75408 18.4114C9.75408 18.4114 9.75408 18.4114 9.75408 18.4114C9.75408 18.4114 9.75408 18.4114 9.75408 18.4114C9.75408 18.4114 9.75408 18.4113 9.75408 18.4113C9.75408 18.4113 9.75408 18.4113 9.75408 18.4113C9.75408 18.4113 9.75408 18.4113 9.75408 18.4113C9.75408 18.4113 9.75408 18.4113 9.75408 18.4113C9.75408 18.4113 9.75408 18.4113 9.75408 18.4112C9.75408 18.4112 9.75408 18.4112 9.75408 18.4112C9.75408 18.4112 9.75408 18.4112 9.75408 18.4112C9.75408 18.4112 9.75408 18.4112 9.75408 18.4112C9.75408 18.4112 9.75408 18.4112 9.75408 18.4111C9.75408 18.4111 9.75408 18.4111 9.75408 18.4111C9.75408 18.4111 9.75408 18.4111 9.75408 18.4111C9.75408 18.4111 9.75408 18.4111 9.75408 18.4111C9.75408 18.4111 9.75408 18.4111 9.75408 18.4111C9.75408 18.411 9.75408 18.411 9.75408 18.411C9.75408 18.411 9.75408 18.411 9.75408 18.411C9.75408 18.411 9.75408 18.411 9.75408 18.411C9.75408 18.411 9.75408 18.411 9.75408 18.411C9.75408 18.411 9.75408 18.4109 9.75408 18.4109C9.75408 18.4109 9.75408 18.4109 9.75408 18.4109C9.75408 18.4109 9.75408 18.4109 9.75408 18.4109C9.75408 18.4109 9.75408 18.4109 9.75408 18.4109C9.75408 18.4109 9.75408 18.4108 9.75408 18.4108C9.75408 18.4108 9.75408 18.4108 9.75408 18.4108C9.75408 18.4108 9.75408 18.4108 9.75408 18.4108C9.75408 18.4108 9.75408 18.4108 9.75408 18.4108C9.75408 18.4108 9.75408 18.4108 9.75408 18.4107C9.75408 18.4107 9.75408 18.4107 9.75408 18.4107C9.75408 18.4107 9.75408 18.4107 9.75408 18.4107C9.75408 18.4107 9.75408 18.4107 9.75408 18.4107C9.75408 18.4107 9.75408 18.4107 9.75408 18.4106C9.75408 18.4106 9.75408 18.4106 9.75408 18.4106C9.75408 18.4106 9.75408 18.4106 9.75408 18.4106C9.75408 18.4106 9.75408 18.4106 9.75408 18.4106C9.75408 18.4106 9.75408 18.4106 9.75408 18.4106C9.75408 18.4105 9.75408 18.4105 9.75408 18.4105C9.75408 18.4105 9.75408 18.4105 9.75408 18.4105C9.75408 18.4105 9.75408 18.4105 9.75408 18.4105C9.75408 18.4105 9.75408 18.4105 9.75408 18.4105C9.75408 18.4104 9.75408 18.4104 9.75408 18.4104C9.75408 18.4104 9.75408 18.4104 9.75408 18.4104C9.75408 18.4104 9.75408 18.4104 9.75408 18.4104C9.75408 18.4104 9.75408 18.4104 9.75408 18.4104C9.75408 18.4104 9.75408 18.4103 9.75408 18.4103C9.75408 18.4103 9.75408 18.4103 9.75408 18.4103C9.75408 18.4103 9.75408 18.4103 9.75408 18.4103C9.75408 18.4103 9.75408 18.4103 9.75408 18.4103C9.75408 18.4103 9.75408 18.4102 9.75408 18.4102C9.75408 18.4102 9.75408 18.4102 9.75408 18.4102C9.75408 18.4102 9.75408 18.4102 9.75408 18.4102C9.75408 18.4102 9.75408 18.4102 9.75408 18.4102C9.75408 18.4102 9.75408 18.4102 9.75408 18.4101C9.75408 18.4101 9.75408 18.4101 9.75408 18.4101C9.75408 18.4101 9.75408 18.4101 9.75408 18.4101C9.75408 18.4101 9.75408 18.4101 9.75408 18.4101C9.75408 18.4101 9.75408 18.4101 9.75408 18.4101C9.75408 18.41 9.75408 18.41 9.75408 18.41C9.75408 18.41 9.75408 18.41 9.75408 18.41C9.75408 18.41 9.75408 18.41 9.75408 18.41C9.75408 18.41 9.75408 18.41 9.75408 18.41C9.75408 18.4099 9.75408 18.4099 9.75408 18.4099C9.75408 18.4099 9.75408 18.4099 9.75408 18.4099C9.75408 18.4099 9.75408 18.4099 9.75408 18.4099C9.75408 18.4099 9.75408 18.4099 9.75408 18.4099C9.75408 18.4099 9.75408 18.4098 9.75408 18.4098C9.75408 18.4098 9.75408 18.4098 9.75408 18.4098C9.75408 18.4098 9.75408 18.4098 9.75408 18.4098C9.75408 18.4098 9.75408 18.4098 9.75408 18.4098C9.75408 18.4098 9.75408 18.4097 9.75408 18.4097C9.75408 18.4097 9.75408 18.4097 9.75408 18.4097C9.75408 18.4097 9.75408 18.4097 9.75408 18.4097C9.75408 18.4097 9.75408 18.4097 9.75408 18.4097C9.75408 18.4097 9.75408 18.4096 9.75408 18.4096C9.75408 18.4096 9.75408 18.4096 9.75408 18.4096C9.75408 18.4096 9.75408 18.4096 9.75408 18.4096C9.75408 18.4096 9.75408 18.4096 9.75408 18.4096C9.75408 18.4096 9.75408 18.4096 9.75408 18.4095C9.75408 18.4095 9.75408 18.4095 9.75408 18.4095C9.75408 18.4095 9.75408 18.4095 9.75408 18.4095C9.75408 18.4095 9.75408 18.4095 9.75408 18.4095C9.75408 18.4095 9.75408 18.4095 9.75408 18.4094C9.75408 18.4094 9.75408 18.4094 9.75408 18.4094C9.75408 18.4094 9.75408 18.4094 9.75408 18.4094C9.75408 18.4094 9.75408 18.4094 9.75408 18.4094C9.75408 18.4094 9.75408 18.4094 9.75408 18.4094C9.75408 18.4093 9.75408 18.4093 9.75408 18.4093C9.75408 18.4093 9.75408 18.4093 9.75408 18.4093C9.75408 18.4093 9.75408 18.4093 9.75408 18.4093C9.75408 18.4093 9.75408 18.4093 9.75408 18.4093C9.75408 18.4092 9.75408 18.4092 9.75408 18.4092C9.75408 18.4092 9.75408 18.4092 9.75408 18.4092C9.75408 18.4092 9.75408 18.4092 9.75408 18.4092C9.75408 18.4092 9.75408 18.4092 9.75408 18.4092C9.75408 18.4092 9.75408 18.4091 9.75408 18.4091C9.75408 18.4091 9.75408 18.4091 9.75408 18.4091C9.75408 18.4091 9.75408 18.4091 9.75408 18.4091C9.75408 18.4091 9.75408 18.4091 9.75408 18.4091C9.75408 18.4091 9.75408 18.409 9.75408 18.409C9.75408 18.409 9.75408 18.409 9.75408 18.409C9.75408 18.409 9.75408 18.409 9.75408 18.409C9.75408 18.409 9.75408 18.409 9.75408 18.409C9.75408 18.409 9.75408 18.409 9.75408 18.4089C9.75408 18.4089 9.75408 18.4089 9.75408 18.4089C9.75408 18.4089 9.75408 18.4089 9.75408 18.4089C9.75408 18.4089 9.75408 18.4089 9.75408 18.4089C9.75408 18.4089 9.75408 18.4089 9.75408 18.4088C9.75408 18.4088 9.75408 18.4088 9.75408 18.4088C9.75408 18.4088 9.75408 18.4088 9.75408 18.4088C9.75408 18.4088 9.75408 18.4088 9.75408 18.4088C9.75408 18.4088 9.75408 18.4088 9.75408 18.4087C9.75408 18.4087 9.75408 18.4087 9.75408 18.4087C9.75408 18.4087 9.75408 18.4087 9.75408 18.4087C9.75408 18.4087 9.75408 18.4087 9.75408 18.4087C9.75408 18.4087 9.75408 18.4087 9.75408 18.4087C9.75408 18.4086 9.75408 18.4086 9.75408 18.4086C9.75408 18.4086 9.75408 18.4086 9.75408 18.4086C9.75408 18.4086 9.75408 18.4086 9.75408 18.4086C9.75408 18.4086 9.75408 18.4086 9.75408 18.4086C9.75408 18.4085 9.75408 18.4085 9.75408 18.4085C9.75408 18.4085 9.75408 18.4085 9.75408 18.4085C9.75408 18.4085 9.75408 18.4085 9.75408 18.4085C9.75408 18.4085 9.75408 18.4085 9.75408 18.4085C9.75408 18.4085 9.75408 18.4084 9.75408 18.4084C9.75408 18.4084 9.75408 18.4084 9.75408 18.4084C9.75408 18.4084 9.75408 18.4084 9.75408 18.4084C9.75408 18.4084 9.75408 18.4084 9.75408 18.4084C9.75408 18.4084 9.75408 18.4083 9.75408 18.4083C9.75408 18.4083 9.75408 18.4083 9.75408 18.4083C9.75408 18.4083 9.75408 18.4083 9.75408 18.4083C9.75408 18.4083 9.75408 18.4083 9.75408 18.4083C9.75408 18.4083 9.75408 18.4083 9.75408 18.4082C9.75408 18.4082 9.75408 18.4082 9.75408 18.4082C9.75408 18.4082 9.75408 18.4082 9.75408 18.4082H9.15408C9.15408 18.4082 9.15408 18.4082 9.15408 18.4082C9.15408 18.4082 9.15408 18.4082 9.15408 18.4082C9.15408 18.4083 9.15408 18.4083 9.15408 18.4083C9.15408 18.4083 9.15408 18.4083 9.15408 18.4083C9.15408 18.4083 9.15408 18.4083 9.15408 18.4083C9.15408 18.4083 9.15408 18.4083 9.15408 18.4083C9.15408 18.4083 9.15408 18.4084 9.15408 18.4084C9.15408 18.4084 9.15408 18.4084 9.15408 18.4084C9.15408 18.4084 9.15408 18.4084 9.15408 18.4084C9.15408 18.4084 9.15408 18.4084 9.15408 18.4084C9.15408 18.4084 9.15408 18.4085 9.15408 18.4085C9.15408 18.4085 9.15408 18.4085 9.15408 18.4085C9.15408 18.4085 9.15408 18.4085 9.15408 18.4085C9.15408 18.4085 9.15408 18.4085 9.15408 18.4085C9.15408 18.4085 9.15408 18.4085 9.15408 18.4086C9.15408 18.4086 9.15408 18.4086 9.15408 18.4086C9.15408 18.4086 9.15408 18.4086 9.15408 18.4086C9.15408 18.4086 9.15408 18.4086 9.15408 18.4086C9.15408 18.4086 9.15408 18.4086 9.15408 18.4087C9.15408 18.4087 9.15408 18.4087 9.15408 18.4087C9.15408 18.4087 9.15408 18.4087 9.15408 18.4087C9.15408 18.4087 9.15408 18.4087 9.15408 18.4087C9.15408 18.4087 9.15408 18.4087 9.15408 18.4087C9.15408 18.4088 9.15408 18.4088 9.15408 18.4088C9.15408 18.4088 9.15408 18.4088 9.15408 18.4088C9.15408 18.4088 9.15408 18.4088 9.15408 18.4088C9.15408 18.4088 9.15408 18.4088 9.15408 18.4088C9.15408 18.4089 9.15408 18.4089 9.15408 18.4089C9.15408 18.4089 9.15408 18.4089 9.15408 18.4089C9.15408 18.4089 9.15408 18.4089 9.15408 18.4089C9.15408 18.4089 9.15408 18.4089 9.15408 18.4089C9.15408 18.409 9.15408 18.409 9.15408 18.409C9.15408 18.409 9.15408 18.409 9.15408 18.409C9.15408 18.409 9.15408 18.409 9.15408 18.409C9.15408 18.409 9.15408 18.409 9.15408 18.409C9.15408 18.409 9.15408 18.4091 9.15408 18.4091C9.15408 18.4091 9.15408 18.4091 9.15408 18.4091C9.15408 18.4091 9.15408 18.4091 9.15408 18.4091C9.15408 18.4091 9.15408 18.4091 9.15408 18.4091C9.15408 18.4091 9.15408 18.4092 9.15408 18.4092C9.15408 18.4092 9.15408 18.4092 9.15408 18.4092C9.15408 18.4092 9.15408 18.4092 9.15408 18.4092C9.15408 18.4092 9.15408 18.4092 9.15408 18.4092C9.15408 18.4092 9.15408 18.4092 9.15408 18.4093C9.15408 18.4093 9.15408 18.4093 9.15408 18.4093C9.15408 18.4093 9.15408 18.4093 9.15408 18.4093C9.15408 18.4093 9.15408 18.4093 9.15408 18.4093C9.15408 18.4093 9.15408 18.4093 9.15408 18.4094C9.15408 18.4094 9.15408 18.4094 9.15408 18.4094C9.15408 18.4094 9.15408 18.4094 9.15408 18.4094C9.15408 18.4094 9.15408 18.4094 9.15408 18.4094C9.15408 18.4094 9.15408 18.4094 9.15408 18.4094C9.15408 18.4095 9.15408 18.4095 9.15408 18.4095C9.15408 18.4095 9.15408 18.4095 9.15408 18.4095C9.15408 18.4095 9.15408 18.4095 9.15408 18.4095C9.15408 18.4095 9.15408 18.4095 9.15408 18.4095C9.15408 18.4096 9.15408 18.4096 9.15408 18.4096C9.15408 18.4096 9.15408 18.4096 9.15408 18.4096C9.15408 18.4096 9.15408 18.4096 9.15408 18.4096C9.15408 18.4096 9.15408 18.4096 9.15408 18.4096C9.15408 18.4096 9.15408 18.4097 9.15408 18.4097C9.15408 18.4097 9.15408 18.4097 9.15408 18.4097C9.15408 18.4097 9.15408 18.4097 9.15408 18.4097C9.15408 18.4097 9.15408 18.4097 9.15408 18.4097C9.15408 18.4097 9.15408 18.4098 9.15408 18.4098C9.15408 18.4098 9.15408 18.4098 9.15408 18.4098C9.15408 18.4098 9.15408 18.4098 9.15408 18.4098C9.15408 18.4098 9.15408 18.4098 9.15408 18.4098C9.15408 18.4098 9.15408 18.4099 9.15408 18.4099C9.15408 18.4099 9.15408 18.4099 9.15408 18.4099C9.15408 18.4099 9.15408 18.4099 9.15408 18.4099C9.15408 18.4099 9.15408 18.4099 9.15408 18.4099C9.15408 18.4099 9.15408 18.4099 9.15408 18.41C9.15408 18.41 9.15408 18.41 9.15408 18.41C9.15408 18.41 9.15408 18.41 9.15408 18.41C9.15408 18.41 9.15408 18.41 9.15408 18.41C9.15408 18.41 9.15408 18.41 9.15408 18.4101C9.15408 18.4101 9.15408 18.4101 9.15408 18.4101C9.15408 18.4101 9.15408 18.4101 9.15408 18.4101C9.15408 18.4101 9.15408 18.4101 9.15408 18.4101C9.15408 18.4101 9.15408 18.4101 9.15408 18.4101C9.15408 18.4102 9.15408 18.4102 9.15408 18.4102C9.15408 18.4102 9.15408 18.4102 9.15408 18.4102C9.15408 18.4102 9.15408 18.4102 9.15408 18.4102C9.15408 18.4102 9.15408 18.4102 9.15408 18.4102C9.15408 18.4102 9.15408 18.4103 9.15408 18.4103C9.15408 18.4103 9.15408 18.4103 9.15408 18.4103C9.15408 18.4103 9.15408 18.4103 9.15408 18.4103C9.15408 18.4103 9.15408 18.4103 9.15408 18.4103C9.15408 18.4103 9.15408 18.4104 9.15408 18.4104C9.15408 18.4104 9.15408 18.4104 9.15408 18.4104C9.15408 18.4104 9.15408 18.4104 9.15408 18.4104C9.15408 18.4104 9.15408 18.4104 9.15408 18.4104C9.15408 18.4104 9.15408 18.4104 9.15408 18.4105C9.15408 18.4105 9.15408 18.4105 9.15408 18.4105C9.15408 18.4105 9.15408 18.4105 9.15408 18.4105C9.15408 18.4105 9.15408 18.4105 9.15408 18.4105C9.15408 18.4105 9.15408 18.4105 9.15408 18.4106C9.15408 18.4106 9.15408 18.4106 9.15408 18.4106C9.15408 18.4106 9.15408 18.4106 9.15408 18.4106C9.15408 18.4106 9.15408 18.4106 9.15408 18.4106C9.15408 18.4106 9.15408 18.4106 9.15408 18.4106C9.15408 18.4107 9.15408 18.4107 9.15408 18.4107C9.15408 18.4107 9.15408 18.4107 9.15408 18.4107C9.15408 18.4107 9.15408 18.4107 9.15408 18.4107C9.15408 18.4107 9.15408 18.4107 9.15408 18.4107C9.15408 18.4108 9.15408 18.4108 9.15408 18.4108C9.15408 18.4108 9.15408 18.4108 9.15408 18.4108C9.15408 18.4108 9.15408 18.4108 9.15408 18.4108C9.15408 18.4108 9.15408 18.4108 9.15408 18.4108C9.15408 18.4108 9.15408 18.4109 9.15408 18.4109C9.15408 18.4109 9.15408 18.4109 9.15408 18.4109C9.15408 18.4109 9.15408 18.4109 9.15408 18.4109C9.15408 18.4109 9.15408 18.4109 9.15408 18.4109C9.15408 18.4109 9.15408 18.411 9.15408 18.411C9.15408 18.411 9.15408 18.411 9.15408 18.411C9.15408 18.411 9.15408 18.411 9.15408 18.411C9.15408 18.411 9.15408 18.411 9.15408 18.411C9.15408 18.411 9.15408 18.411 9.15408 18.4111C9.15408 18.4111 9.15408 18.4111 9.15408 18.4111C9.15408 18.4111 9.15408 18.4111 9.15408 18.4111C9.15408 18.4111 9.15408 18.4111 9.15408 18.4111C9.15408 18.4111 9.15408 18.4111 9.15408 18.4111C9.15408 18.4112 9.15408 18.4112 9.15408 18.4112C9.15408 18.4112 9.15408 18.4112 9.15408 18.4112C9.15408 18.4112 9.15408 18.4112 9.15408 18.4112C9.15408 18.4112 9.15408 18.4112 9.15408 18.4112C9.15408 18.4113 9.15408 18.4113 9.15408 18.4113C9.15408 18.4113 9.15408 18.4113 9.15408 18.4113C9.15408 18.4113 9.15408 18.4113 9.15408 18.4113C9.15408 18.4113 9.15408 18.4113 9.15408 18.4113C9.15408 18.4113 9.15408 18.4114 9.15408 18.4114C9.15408 18.4114 9.15408 18.4114 9.15408 18.4114C9.15408 18.4114 9.15408 18.4114 9.15408 18.4114C9.15408 18.4114 9.15408 18.4114 9.15408 18.4114C9.15408 18.4114 9.15408 18.4115 9.15408 18.4115C9.15408 18.4115 9.15408 18.4115 9.15408 18.4115C9.15408 18.4115 9.15408 18.4115 9.15408 18.4115C9.15408 18.4115 9.15408 18.4115 9.15408 18.4115C9.15408 18.4115 9.15408 18.4115 9.15408 18.4116C9.15408 18.4116 9.15408 18.4116 9.15408 18.4116C9.15408 18.4116 9.15408 18.4116 9.15408 18.4116C9.15408 18.4116 9.15408 18.4116 9.15408 18.4116C9.15408 18.4116 9.15408 18.4116 9.15408 18.4116C9.15408 18.4117 9.15408 18.4117 9.15408 18.4117C9.15408 18.4117 9.15408 18.4117 9.15408 18.4117C9.15408 18.4117 9.15408 18.4117 9.15408 18.4117C9.15408 18.4117 9.15408 18.4117 9.15408 18.4117C9.15408 18.4117 9.15408 18.4118 9.15408 18.4118C9.15408 18.4118 9.15408 18.4118 9.15408 18.4118C9.15408 18.4118 9.15408 18.4118 9.15408 18.4118C9.15408 18.4118 9.15408 18.4118 9.15408 18.4118C9.15408 18.4118 9.15408 18.4119 9.15408 18.4119C9.15408 18.4119 9.15408 18.4119 9.15408 18.4119C9.15408 18.4119 9.15408 18.4119 9.15408 18.4119C9.15408 18.4119 9.15408 18.4119 9.15408 18.4119C9.15408 18.4119 9.15408 18.4119 9.15408 18.412C9.15408 18.412 9.15408 18.412 9.15408 18.412C9.15408 18.412 9.15408 18.412 9.15408 18.412C9.15408 18.412 9.15408 18.412 9.15408 18.412C9.15408 18.412 9.15408 18.412 9.15408 18.412C9.15408 18.4121 9.15408 18.4121 9.15408 18.4121C9.15408 18.4121 9.15408 18.4121 9.15408 18.4121C9.15408 18.4121 9.15408 18.4121 9.15408 18.4121C9.15408 18.4121 9.15408 18.4121 9.15408 18.4121C9.15408 18.4122 9.15408 18.4122 9.15408 18.4122C9.15408 18.4122 9.15408 18.4122 9.15408 18.4122C9.15408 18.4122 9.15408 18.4122 9.15408 18.4122C9.15408 18.4122 9.15408 18.4122 9.15408 18.4122C9.15408 18.4122 9.15408 18.4123 9.15408 18.4123C9.15408 18.4123 9.15408 18.4123 9.15408 18.4123C9.15408 18.4123 9.15408 18.4123 9.15408 18.4123C9.15408 18.4123 9.15408 18.4123 9.15408 18.4123C9.15408 18.4123 9.15408 18.4123 9.15408 18.4124C9.15408 18.4124 9.15408 18.4124 9.15408 18.4124C9.15408 18.4124 9.15408 18.4124 9.15408 18.4124C9.15408 18.4124 9.15408 18.4124 9.15408 18.4124C9.15408 18.4124 9.15408 18.4124 9.15408 18.4124C9.15408 18.4125 9.15408 18.4125 9.15408 18.4125C9.15408 18.4125 9.15408 18.4125 9.15408 18.4125C9.15408 18.4125 9.15408 18.4125 9.15408 18.4125C9.15408 18.4125 9.15408 18.4125 9.15408 18.4125C9.15408 18.4125 9.15408 18.4126 9.15408 18.4126C9.15408 18.4126 9.15408 18.4126 9.15408 18.4126C9.15408 18.4126 9.15408 18.4126 9.15408 18.4126C9.15408 18.4126 9.15408 18.4126 9.15408 18.4126C9.15408 18.4126 9.15408 18.4127 9.15408 18.4127C9.15408 18.4127 9.15408 18.4127 9.15408 18.4127C9.15408 18.4127 9.15408 18.4127 9.15408 18.4127C9.15408 18.4127 9.15408 18.4127 9.15408 18.4127C9.15408 18.4127 9.15408 18.4127 9.15408 18.4128C9.15408 18.4128 9.15408 18.4128 9.15408 18.4128C9.15408 18.4128 9.15408 18.4128 9.15408 18.4128C9.15408 18.4128 9.15408 18.4128 9.15408 18.4128C9.15408 18.4128 9.15408 18.4128 9.15408 18.4128C9.15408 18.4129 9.15408 18.4129 9.15408 18.4129C9.15408 18.4129 9.15408 18.4129 9.15408 18.4129C9.15408 18.4129 9.15408 18.4129 9.15408 18.4129C9.15408 18.4129 9.15408 18.4129 9.15408 18.4129C9.15408 18.4129 9.15408 18.413 9.15408 18.413C9.15408 18.413 9.15408 18.413 9.15408 18.413C9.15408 18.413 9.15408 18.413 9.15408 18.413C9.15408 18.413 9.15408 18.413 9.15408 18.413C9.15408 18.413 9.15408 18.413 9.15408 18.4131C9.15408 18.4131 9.15408 18.4131 9.15408 18.4131C9.15408 18.4131 9.15408 18.4131 9.15408 18.4131C9.15408 18.4131 9.15408 18.4131 9.15408 18.4131C9.15408 18.4131 9.15408 18.4131 9.15408 18.4131C9.15408 18.4132 9.15408 18.4132 9.15408 18.4132C9.15408 18.4132 9.15408 18.4132 9.15408 18.4132C9.15408 18.4132 9.15408 18.4132 9.15408 18.4132C9.15408 18.4132 9.15408 18.4132 9.15408 18.4132C9.15408 18.4132 9.15408 18.4133 9.15408 18.4133C9.15408 18.4133 9.15408 18.4133 9.15408 18.4133C9.15408 18.4133 9.15408 18.4133 9.15408 18.4133C9.15408 18.4133 9.15408 18.4133 9.15408 18.4133C9.15408 18.4133 9.15408 18.4133 9.15408 18.4134C9.15408 18.4134 9.15408 18.4134 9.15408 18.4134C9.15408 18.4134 9.15408 18.4134 9.15408 18.4134C9.15408 18.4134 9.15408 18.4134 9.15408 18.4134C9.15408 18.4134 9.15408 18.4134 9.15408 18.4134C9.15408 18.4135 9.15408 18.4135 9.15408 18.4135C9.15408 18.4135 9.15408 18.4135 9.15408 18.4135C9.15408 18.4135 9.15408 18.4135 9.15408 18.4135C9.15408 18.4135 9.15408 18.4135 9.15408 18.4135C9.15408 18.4135 9.15408 18.4136 9.15408 18.4136C9.15408 18.4136 9.15408 18.4136 9.15408 18.4136C9.15408 18.4136 9.15408 18.4136 9.15408 18.4136C9.15408 18.4136 9.15408 18.4136 9.15408 18.4136C9.15408 18.4136 9.15408 18.4136 9.15408 18.4137C9.15408 18.4137 9.15408 18.4137 9.15408 18.4137C9.15408 18.4137 9.15408 18.4137 9.15408 18.4137C9.15408 18.4137 9.15408 18.4137 9.15408 18.4137C9.15408 18.4137 9.15408 18.4137 9.15408 18.4137C9.15408 18.4138 9.15408 18.4138 9.15408 18.4138C9.15408 18.4138 9.15408 18.4138 9.15408 18.4138C9.15408 18.4138 9.15408 18.4138 9.15408 18.4138C9.15408 18.4138 9.15408 18.4138 9.15408 18.4138C9.15408 18.4138 9.15408 18.4139 9.15408 18.4139C9.15408 18.4139 9.15408 18.4139 9.15408 18.4139C9.15408 18.4139 9.15408 18.4139 9.15408 18.4139C9.15408 18.4139 9.15408 18.4139 9.15408 18.4139C9.15408 18.4139 9.15408 18.4139 9.15408 18.4139C9.15408 18.414 9.15408 18.414 9.15408 18.414C9.15408 18.414 9.15408 18.414 9.15408 18.414C9.15408 18.414 9.15408 18.414 9.15408 18.414C9.15408 18.414 9.15408 18.414 9.15408 18.414C9.15408 18.414 9.15408 18.4141 9.15408 18.4141C9.15408 18.4141 9.15408 18.4141 9.15408 18.4141C9.15408 18.4141 9.15408 18.4141 9.15408 18.4141C9.15408 18.4141 9.15408 18.4141 9.15408 18.4141C9.15408 18.4141 9.15408 18.4141 9.15408 18.4142C9.15408 18.4142 9.15408 18.4142 9.15408 18.4142C9.15408 18.4142 9.15408 18.4142 9.15408 18.4142C9.15408 18.4142 9.15408 18.4142 9.15408 18.4142C9.15408 18.4142 9.15408 18.4142 9.15408 18.4142C9.15408 18.4143 9.15408 18.4143 9.15408 18.4143C9.15408 18.4143 9.15408 18.4143 9.15408 18.4143C9.15408 18.4143 9.15408 18.4143 9.15408 18.4143C9.15408 18.4143 9.15408 18.4143 9.15408 18.4143C9.15408 18.4143 9.15408 18.4144 9.15408 18.4144C9.15408 18.4144 9.15408 18.4144 9.15408 18.4144C9.15408 18.4144 9.15408 18.4144 9.15408 18.4144C9.15408 18.4144 9.15408 18.4144 9.15408 18.4144C9.15408 18.4144 9.15408 18.4144 9.15408 18.4144C9.15408 18.4145 9.15408 18.4145 9.15408 18.4145C9.15408 18.4145 9.15408 18.4145 9.15408 18.4145C9.15408 18.4145 9.15408 18.4145 9.15408 18.4145C9.15408 18.4145 9.15408 18.4145 9.15408 18.4145C9.15408 18.4145 9.15408 18.4146 9.15408 18.4146C9.15408 18.4146 9.15408 18.4146 9.15408 18.4146C9.15408 18.4146 9.15408 18.4146 9.15408 18.4146C9.15408 18.4146 9.15408 18.4146 9.15408 18.4146C9.15408 18.4146 9.15408 18.4146 9.15408 18.4146C9.15408 18.4147 9.15408 18.4147 9.15408 18.4147C9.15408 18.4147 9.15408 18.4147 9.15408 18.4147C9.15408 18.4147 9.15408 18.4147 9.15408 18.4147C9.15408 18.4147 9.15408 18.4147 9.15408 18.4147C9.15408 18.4147 9.15408 18.4148 9.15408 18.4148C9.15408 18.4148 9.15408 18.4148 9.15408 18.4148C9.15408 18.4148 9.15408 18.4148 9.15408 18.4148C9.15408 18.4148 9.15408 18.4148 9.15408 18.4148C9.15408 18.4148 9.15408 18.4148 9.15408 18.4149C9.15408 18.4149 9.15408 18.4149 9.15408 18.4149C9.15408 18.4149 9.15408 18.4149 9.15408 18.4149C9.15408 18.4149 9.15408 18.4149 9.15408 18.4149C9.15408 18.4149 9.15408 18.4149 9.15408 18.4149C9.15408 18.4149 9.15408 18.415 9.15408 18.415C9.15408 18.415 9.15408 18.415 9.15408 18.415C9.15408 18.415 9.15408 18.415 9.15408 18.415C9.15408 18.415 9.15408 18.415 9.15408 18.415C9.15408 18.415 9.15408 18.415 9.15408 18.4151C9.15408 18.4151 9.15408 18.4151 9.15408 18.4151C9.15408 18.4151 9.15408 18.4151 9.15408 18.4151C9.15408 18.4151 9.15408 18.4151 9.15408 18.4151C9.15408 18.4151 9.15408 18.4151 9.15408 18.4151C9.15408 18.4151 9.15408 18.4152 9.15408 18.4152C9.15408 18.4152 9.15408 18.4152 9.15408 18.4152C9.15408 18.4152 9.15408 18.4152 9.15408 18.4152C9.15408 18.4152 9.15408 18.4152 9.15408 18.4152C9.15408 18.4152 9.15408 18.4152 9.15408 18.4153C9.15408 18.4153 9.15408 18.4153 9.15408 18.4153C9.15408 18.4153 9.15408 18.4153 9.15408 18.4153C9.15408 18.4153 9.15408 18.4153 9.15408 18.4153C9.15408 18.4153 9.15408 18.4153 9.15408 18.4153C9.15408 18.4153 9.15408 18.4154 9.15408 18.4154C9.15408 18.4154 9.15408 18.4154 9.15408 18.4154C9.15408 18.4154 9.15408 18.4154 9.15408 18.4154C9.15408 18.4154 9.15408 18.4154 9.15408 18.4154C9.15408 18.4154 9.15408 18.4154 9.15408 18.4154C9.15408 18.4155 9.15408 18.4155 9.15408 18.4155C9.15408 18.4155 9.15408 18.4155 9.15408 18.4155C9.15408 18.4155 9.15408 18.4155 9.15408 18.4155C9.15408 18.4155 9.15408 18.4155 9.15408 18.4155C9.15408 18.4155 9.15408 18.4156 9.15408 18.4156C9.15408 18.4156 9.15408 18.4156 9.15408 18.4156C9.15408 18.4156 9.15408 18.4156 9.15408 18.4156C9.15408 18.4156 9.15408 18.4156 9.15408 18.4156C9.15408 18.4156 9.15408 18.4156 9.15408 18.4156C9.15408 18.4157 9.15408 18.4157 9.15408 18.4157C9.15408 18.4157 9.15408 18.4157 9.15408 18.4157C9.15408 18.4157 9.15408 18.4157 9.15408 18.4157C9.15408 18.4157 9.15408 18.4157 9.15408 18.4157C9.15408 18.4157 9.15408 18.4157 9.15408 18.4158C9.15408 18.4158 9.15408 18.4158 9.15408 18.4158C9.15408 18.4158 9.15408 18.4158 9.15408 18.4158C9.15408 18.4158 9.15408 18.4158 9.15408 18.4158C9.15408 18.4158 9.15408 18.4158 9.15408 18.4158C9.15408 18.4158 9.15408 18.4159 9.15408 18.4159C9.15408 18.4159 9.15408 18.4159 9.15408 18.4159C9.15408 18.4159 9.15408 18.4159 9.15408 18.4159C9.15408 18.4159 9.15408 18.4159 9.15408 18.4159C9.15408 18.4159 9.15408 18.4159 9.15408 18.4159C9.15408 18.416 9.15408 18.416 9.15408 18.416C9.15408 18.416 9.15408 18.416 9.15408 18.416C9.15408 18.416 9.15408 18.416 9.15408 18.416C9.15408 18.416 9.15408 18.416 9.15408 18.416C9.15408 18.416 9.15408 18.416 9.15408 18.4161C9.15408 18.4161 9.15408 18.4161 9.15408 18.4161C9.15408 18.4161 9.15408 18.4161 9.15408 18.4161C9.15408 18.4161 9.15408 18.4161 9.15408 18.4161C9.15408 18.4161 9.15408 18.4161 9.15408 18.4161C9.15408 18.4161 9.15408 18.4162 9.15408 18.4162C9.15408 18.4162 9.15408 18.4162 9.15408 18.4162C9.15408 18.4162 9.15408 18.4162 9.15408 18.4162C9.15408 18.4162 9.15408 18.4162 9.15408 18.4162C9.15408 18.4162 9.15408 18.4162 9.15408 18.4162C9.15408 18.4163 9.15408 18.4163 9.15408 18.4163C9.15408 18.4163 9.15408 18.4163 9.15408 18.4163C9.15408 18.4163 9.15408 18.4163 9.15408 18.4163C9.15408 18.4163 9.15408 18.4163 9.15408 18.4163C9.15408 18.4163 9.15408 18.4163 9.15408 18.4164C9.15408 18.4164 9.15408 18.4164 9.15408 18.4164C9.15408 18.4164 9.15408 18.4164 9.15408 18.4164C9.15408 18.4164 9.15408 18.4164 9.15408 18.4164C9.15408 18.4164 9.15408 18.4164 9.15408 18.4164C9.15408 18.4164 9.15408 18.4165 9.15408 18.4165C9.15408 18.4165 9.15408 18.4165 9.15408 18.4165C9.15408 18.4165 9.15408 18.4165 9.15408 18.4165C9.15408 18.4165 9.15408 18.4165 9.15408 18.4165C9.15408 18.4165 9.15408 18.4165 9.15408 18.4165C9.15408 18.4166 9.15408 18.4166 9.15408 18.4166C9.15408 18.4166 9.15408 18.4166 9.15408 18.4166C9.15408 18.4166 9.15408 18.4166 9.15408 18.4166C9.15408 18.4166 9.15408 18.4166 9.15408 18.4166C9.15408 18.4166 9.15408 18.4166 9.15408 18.4167C9.15408 18.4167 9.15408 18.4167 9.15408 18.4167C9.15408 18.4167 9.15408 18.4167 9.15408 18.4167C9.15408 18.4167 9.15408 18.4167 9.15408 18.4167C9.15408 18.4167 9.15408 18.4167 9.15408 18.4167C9.15408 18.4167 9.15408 18.4167 9.15408 18.4168C9.15408 18.4168 9.15408 18.4168 9.15408 18.4168C9.15408 18.4168 9.15408 18.4168 9.15408 18.4168C9.15408 18.4168 9.15408 18.4168 9.15408 18.4168C9.15408 18.4168 9.15408 18.4168 9.15408 18.4168C9.15408 18.4168 9.15408 18.4169 9.15408 18.4169C9.15408 18.4169 9.15408 18.4169 9.15408 18.4169C9.15408 18.4169 9.15408 18.4169 9.15408 18.4169C9.15408 18.4169 9.15408 18.4169 9.15408 18.4169C9.15408 18.4169 9.15408 18.4169 9.15408 18.4169C9.15408 18.417 9.15408 18.417 9.15408 18.417C9.15408 18.417 9.15408 18.417 9.15408 18.417C9.15408 18.417 9.15408 18.417 9.15408 18.417C9.15408 18.417 9.15408 18.417 9.15408 18.417C9.15408 18.417 9.15408 18.417 9.15408 18.417C9.15408 18.4171 9.15408 18.4171 9.15408 18.4171C9.15408 18.4171 9.15408 18.4171 9.15408 18.4171C9.15408 18.4171 9.15408 18.4171 9.15408 18.4171C9.15408 18.4171 9.15408 18.4171 9.15408 18.4171C9.15408 18.4171 9.15408 18.4171 9.15408 18.4172C9.15408 18.4172 9.15408 18.4172 9.15408 18.4172C9.15408 18.4172 9.15408 18.4172 9.15408 18.4172C9.15408 18.4172 9.15408 18.4172 9.15408 18.4172C9.15408 18.4172 9.15408 18.4172 9.15408 18.4172C9.15408 18.4172 9.15408 18.4172 9.15408 18.4173C9.15408 18.4173 9.15408 18.4173 9.15408 18.4173C9.15408 18.4173 9.15408 18.4173 9.15408 18.4173C9.15408 18.4173 9.15408 18.4173 9.15408 18.4173C9.15408 18.4173 9.15408 18.4173 9.15408 18.4173C9.15408 18.4173 9.15408 18.4174 9.15408 18.4174C9.15408 18.4174 9.15408 18.4174 9.15408 18.4174C9.15408 18.4174 9.15408 18.4174 9.15408 18.4174C9.15408 18.4174 9.15408 18.4174 9.15408 18.4174C9.15408 18.4174 9.15408 18.4174 9.15408 18.4174C9.15408 18.4174 9.15408 18.4175 9.15408 18.4175C9.15408 18.4175 9.15408 18.4175 9.15408 18.4175C9.15408 18.4175 9.15408 18.4175 9.15408 18.4175C9.15408 18.4175 9.15408 18.4175 9.15408 18.4175C9.15408 18.4175 9.15408 18.4175 9.15408 18.4175C9.15408 18.4175 9.15408 18.4176 9.15408 18.4176C9.15408 18.4176 9.15408 18.4176 9.15408 18.4176C9.15408 18.4176 9.15408 18.4176 9.15408 18.4176C9.15408 18.4176 9.15408 18.4176 9.15408 18.4176C9.15408 18.4176 9.15408 18.4176 9.15408 18.4176C9.15408 18.4176 9.15408 18.4177 9.15408 18.4177C9.15408 18.4177 9.15408 18.4177 9.15408 18.4177C9.15408 18.4177 9.15408 18.4177 9.15408 18.4177C9.15408 18.4177 9.15408 18.4177 9.15408 18.4177C9.15408 18.4177 9.15408 18.4177 9.15408 18.4177C9.15408 18.4177 9.15408 18.4178 9.15408 18.4178C9.15408 18.4178 9.15408 18.4178 9.15408 18.4178C9.15408 18.4178 9.15408 18.4178 9.15408 18.4178C9.15408 18.4178 9.15408 18.4178 9.15408 18.4178C9.15408 18.4178 9.15408 18.4178 9.15408 18.4178C9.15408 18.4178 9.15408 18.4179 9.15408 18.4179C9.15408 18.4179 9.15408 18.4179 9.15408 18.4179C9.15408 18.4179 9.15408 18.4179 9.15408 18.4179C9.15408 18.4179 9.15408 18.4179 9.15408 18.4179C9.15408 18.4179 9.15408 18.4179 9.15408 18.4179C9.15408 18.4179 9.15408 18.418 9.15408 18.418C9.15408 18.418 9.15408 18.418 9.15408 18.418C9.15408 18.418 9.15408 18.418 9.15408 18.418C9.15408 18.418 9.15408 18.418 9.15408 18.418C9.15408 18.418 9.15408 18.418 9.15408 18.418C9.15408 18.418 9.15408 18.4181 9.15408 18.4181C9.15408 18.4181 9.15408 18.4181 9.15408 18.4181C9.15408 18.4181 9.15408 18.4181 9.15408 18.4181C9.15408 18.4181 9.15408 18.4181 9.15408 18.4181C9.15408 18.4181 9.15408 18.4181 9.15408 18.4181C9.15408 18.4181 9.15408 18.4182 9.15408 18.4182C9.15408 18.4182 9.15408 18.4182 9.15408 18.4182C9.15408 18.4182 9.15408 18.4182 9.15408 18.4182C9.15408 18.4182 9.15408 18.4182 9.15408 18.4182C9.15408 18.4182 9.15408 18.4182 9.15408 18.4182C9.15408 18.4182 9.15408 18.4183 9.15408 18.4183C9.15408 18.4183 9.15408 18.4183 9.15408 18.4183C9.15408 18.4183 9.15408 18.4183 9.15408 18.4183C9.15408 18.4183 9.15408 18.4183 9.15408 18.4183C9.15408 18.4183 9.15408 18.4183 9.15408 18.4183C9.15408 18.4183 9.15408 18.4184 9.15408 18.4184C9.15408 18.4184 9.15408 18.4184 9.15408 18.4184C9.15408 18.4184 9.15408 18.4184 9.15408 18.4184C9.15408 18.4184 9.15408 18.4184 9.15408 18.4184C9.15408 18.4184 9.15408 18.4184 9.15408 18.4184C9.15408 18.4184 9.15408 18.4184 9.15408 18.4185C9.15408 18.4185 9.15408 18.4185 9.15408 18.4185C9.15408 18.4185 9.15408 18.4185 9.15408 18.4185C9.15408 18.4185 9.15408 18.4185 9.15408 18.4185C9.15408 18.4185 9.15408 18.4185 9.15408 18.4185C9.15408 18.4185 9.15408 18.4185 9.15408 18.4186C9.15408 18.4186 9.15408 18.4186 9.15408 18.4186C9.15408 18.4186 9.15408 18.4186 9.15408 18.4186C9.15408 18.4186 9.15408 18.4186 9.15408 18.4186C9.15408 18.4186 9.15408 18.4186 9.15408 18.4186C9.15408 18.4186 9.15408 18.4186 9.15408 18.4186C9.15408 18.4187 9.15408 18.4187 9.15408 18.4187C9.15408 18.4187 9.15408 18.4187 9.15408 18.4187C9.15408 18.4187 9.15408 18.4187 9.15408 18.4187C9.15408 18.4187 9.15408 18.4187 9.15408 18.4187C9.15408 18.4187 9.15408 18.4187 9.15408 18.4187C9.15408 18.4187 9.15408 18.4188 9.15408 18.4188C9.15408 18.4188 9.15408 18.4188 9.15408 18.4188C9.15408 18.4188 9.15408 18.4188 9.15408 18.4188C9.15408 18.4188 9.15408 18.4188 9.15408 18.4188C9.15408 18.4188 9.15408 18.4188 9.15408 18.4188C9.15408 18.4188 9.15408 18.4188 9.15408 18.4189C9.15408 18.4189 9.15408 18.4189 9.15408 18.4189C9.15408 18.4189 9.15408 18.4189 9.15408 18.4189C9.15408 18.4189 9.15408 18.4189 9.15408 18.4189C9.15408 18.4189 9.15408 18.4189 9.15408 18.4189C9.15408 18.4189 9.15408 18.4189 9.15408 18.419C9.15408 18.419 9.15408 18.419 9.15408 18.419C9.15408 18.419 9.15408 18.419 9.15408 18.419C9.15408 18.419 9.15408 18.419 9.15408 18.419C9.15408 18.419 9.15408 18.419 9.15408 18.419C9.15408 18.419 9.15408 18.419 9.15408 18.419C9.15408 18.4191 9.15408 18.4191 9.15408 18.4191C9.15408 18.4191 9.15408 18.4191 9.15408 18.4191C9.15408 18.4191 9.15408 18.4191 9.15408 18.4191C9.15408 18.4191 9.15408 18.4191 9.15408 18.4191C9.15408 18.4191 9.15408 18.4191 9.15408 18.4191C9.15408 18.4191 9.15408 18.4191 9.15408 18.4192C9.15408 18.4192 9.15408 18.4192 9.15408 18.4192C9.15408 18.4192 9.15408 18.4192 9.15408 18.4192C9.15408 18.4192 9.15408 18.4192 9.15408 18.4192C9.15408 18.4192 9.15408 18.4192 9.15408 18.4192C9.15408 18.4192 9.15408 18.4192 9.15408 18.4192C9.15408 18.4193 9.15408 18.4193 9.15408 18.4193C9.15408 18.4193 9.15408 18.4193 9.15408 18.4193C9.15408 18.4193 9.15408 18.4193 9.15408 18.4193C9.15408 18.4193 9.15408 18.4193 9.15408 18.4193C9.15408 18.4193 9.15408 18.4193 9.15408 18.4193C9.15408 18.4193 9.15408 18.4194 9.15408 18.4194C9.15408 18.4194 9.15408 18.4194 9.15408 18.4194C9.15408 18.4194 9.15408 18.4194 9.15408 18.4194C9.15408 18.4194 9.15408 18.4194 9.15408 18.4194C9.15408 18.4194 9.15408 18.4194 9.15408 18.4194C9.15408 18.4194 9.15408 18.4194 9.15408 18.4194C9.15408 18.4195 9.15408 18.4195 9.15408 18.4195C9.15408 18.4195 9.15408 18.4195 9.15408 18.4195C9.15408 18.4195 9.15408 18.4195 9.15408 18.4195C9.15408 18.4195 9.15408 18.4195 9.15408 18.4195H9.75408ZM9.62114 18.159L7.34007 16.6298L7.00597 17.1282L9.28703 18.6574L9.62114 18.159ZM7.33957 16.6295C7.31068 16.6102 7.30126 16.5866 7.3002 16.5674C7.29914 16.5484 7.30571 16.5261 7.33007 16.506L6.94833 16.0431C6.592 16.3369 6.62606 16.8746 7.00648 17.1285L7.33957 16.6295ZM7.33048 16.5056L10.3043 14.0445L9.92171 13.5823L6.94793 16.0434L7.33048 16.5056ZM10.289 13.5704L7.33591 11.4316L6.98396 11.9175L9.93701 14.0563L10.289 13.5704ZM7.33548 11.4313C7.30659 11.4104 7.29899 11.386 7.3001 11.3652C7.30122 11.3442 7.31184 11.3187 7.34507 11.2992L7.04243 10.7812C6.61501 11.0308 6.57858 11.625 6.98439 11.9178L7.33548 11.4313ZM7.34531 11.2991L12.4398 8.3169L12.1367 7.79909L7.04219 10.7813L7.34531 11.2991ZM12.44 8.31678C12.4822 8.29205 12.5391 8.29516 12.5771 8.32271L12.9288 7.83653C12.6963 7.66842 12.3823 7.65506 12.1365 7.79921L12.44 8.31678ZM12.5769 8.32257L15.8234 10.6746L16.1755 10.1887L12.929 7.83668L12.5769 8.32257ZM16.1754 10.6746L19.423 8.32259L19.0711 7.83665L15.8235 10.1886L16.1754 10.6746ZM19.4229 8.32271C19.4609 8.29516 19.5178 8.29205 19.56 8.31678L19.8635 7.79921C19.6177 7.65506 19.3037 7.66842 19.0712 7.83653L19.4229 8.32271ZM19.5602 8.3169L24.6547 11.2991L24.9578 10.7813L19.8633 7.79909L19.5602 8.3169ZM24.6549 11.2992C24.6882 11.3187 24.6988 11.3442 24.6999 11.3652C24.701 11.386 24.6934 11.4104 24.6645 11.4313L25.0156 11.9178C25.4214 11.625 25.385 11.0308 24.9576 10.7812L24.6549 11.2992ZM24.6641 11.4315L21.71 13.5704L22.0619 14.0564L25.016 11.9175L24.6641 11.4315ZM21.6947 14.0445L24.6696 16.5057L25.052 16.0434L22.0772 13.5822L21.6947 14.0445ZM24.6699 16.506C24.6943 16.5261 24.7009 16.5484 24.6998 16.5674C24.6987 16.5866 24.6893 16.6102 24.6604 16.6295L24.9935 17.1285C25.3739 16.8746 25.408 16.3369 25.0517 16.0431L24.6699 16.506ZM24.66 16.6298L22.3789 18.1579L22.7129 18.6564L24.994 17.1282L24.66 16.6298ZM22.2459 18.4072C22.2459 18.4212 22.2468 18.4326 22.2476 18.4399C22.2479 18.4436 22.2483 18.4467 22.2485 18.4488C22.2488 18.4507 22.249 18.4524 22.2491 18.4527C22.2492 18.4535 22.2491 18.4528 22.249 18.4519C22.2488 18.4508 22.2486 18.4488 22.2483 18.4461C22.2478 18.4409 22.247 18.4315 22.247 18.4195H22.847C22.847 18.4055 22.8461 18.394 22.8454 18.3868C22.845 18.3831 22.8446 18.38 22.8444 18.3779C22.8441 18.376 22.8439 18.3743 22.8439 18.374C22.8438 18.3732 22.8439 18.3739 22.844 18.3748C22.8441 18.3759 22.8444 18.3779 22.8446 18.3806C22.8451 18.3858 22.8459 18.3952 22.8459 18.4072H22.2459ZM22.247 18.4195V21.3317H22.847V18.4195H22.247ZM22.247 21.3317C22.247 21.3528 22.2347 21.3831 22.1971 21.4035L22.4824 21.9313C22.7 21.8137 22.847 21.5886 22.847 21.3317H22.247ZM22.1974 21.4033L16.108 24.6852L16.3927 25.2134L22.4821 21.9315L22.1974 21.4033ZM16.1082 24.6851C16.0715 24.7049 16.0251 24.7049 15.989 24.6856L15.7066 25.215C15.9214 25.3296 16.1805 25.3276 16.3925 25.2134L16.1082 24.6851ZM16.1887 24.4349L21.8712 21.3723L21.5865 20.8442L15.904 23.9067L16.1887 24.4349ZM22.0288 21.1082V18.954H21.4288V21.1082H22.0288ZM21.5619 18.7047L19.5656 20.0413L19.8994 20.5399L21.8957 19.2033L21.5619 18.7047ZM19.5645 20.0421C19.5211 20.0714 19.4581 20.0683 19.4177 20.0349L19.0349 20.4969C19.2804 20.7003 19.6362 20.7178 19.9005 20.5391L19.5645 20.0421ZM19.4176 20.0348L16.1907 17.3646L15.8082 17.8268L19.0351 20.497L19.4176 20.0348ZM15.8082 17.3646L12.5824 20.0348L12.965 20.497L16.1907 17.8268L15.8082 17.3646ZM12.5823 20.0349C12.5419 20.0683 12.4789 20.0714 12.4355 20.0421L12.0995 20.5391C12.3638 20.7178 12.7196 20.7003 12.9651 20.4969L12.5823 20.0349ZM12.4344 20.0413L10.4391 18.7057L10.1054 19.2043L12.1006 20.5399L12.4344 20.0413ZM9.97225 18.955V21.1062H10.5723V18.955H9.97225ZM10.1316 21.3712L15.9057 24.4358L16.187 23.9058L10.4129 20.8412L10.1316 21.3712ZM12.6683 19.7154L15.3988 17.4551L15.0162 16.9929L12.2857 19.2532L12.6683 19.7154ZM15.3744 16.9747L10.9661 14.0234L10.6323 14.5219L15.0406 17.4733L15.3744 16.9747ZM10.6079 14.0415L7.8774 16.3008L8.2599 16.7631L10.9904 14.5038L10.6079 14.0415ZM7.90171 16.7812L12.31 19.7336L12.6439 19.235L8.23558 16.2827L7.90171 16.7812ZM19.69 19.7336L24.0983 16.7812L23.7644 16.2827L19.3561 19.235L19.69 19.7336ZM24.1226 16.3008L21.3921 14.0415L21.0096 14.5038L23.7401 16.7631L24.1226 16.3008ZM21.0339 14.0234L16.6256 16.9747L16.9594 17.4733L21.3677 14.5219L21.0339 14.0234ZM16.6012 17.4551L19.3317 19.7154L19.7143 19.2532L16.9838 16.9929L16.6012 17.4551ZM16.1663 17.0572L20.6379 14.0637L20.3041 13.5651L15.8326 16.5586L16.1663 17.0572ZM20.6226 13.5555L16.151 10.9388L15.8479 11.4567L20.3195 14.0733L20.6226 13.5555ZM15.8479 10.9388L11.3764 13.5555L11.6794 14.0733L16.151 11.4567L15.8479 10.9388ZM11.361 14.0637L15.8326 17.0572L16.1663 16.5586L11.6948 13.5651L11.361 14.0637ZM10.9485 13.5924L15.3 11.0469L14.9971 10.529L10.6455 13.0746L10.9485 13.5924ZM15.3245 10.5449L12.6551 8.61205L12.3032 9.09803L14.9726 11.0309L15.3245 10.5449ZM12.3276 8.59612L7.97603 11.1427L8.27908 11.6606L12.6307 9.11396L12.3276 8.59612ZM7.95167 11.6447L10.6211 13.5765L10.9729 13.0905L8.30344 11.1586L7.95167 11.6447ZM21.3789 13.5765L24.0483 11.6447L23.6966 11.1586L21.0271 13.0905L21.3789 13.5765ZM24.024 11.1427L19.6724 8.59612L19.3693 9.11396L23.7209 11.6606L24.024 11.1427ZM19.3449 8.61205L16.6755 10.5449L17.0274 11.0309L19.6968 9.09803L19.3449 8.61205ZM16.7 11.0469L21.0515 13.5924L21.3545 13.0746L17.0029 10.529L16.7 11.0469Z" fill="black" fill-opacity="0.3" mask="url(#path-2-outside-1_43761_40536)"/>
</svg>
