<svg width="16" height="16" viewBox="0 0 16 16" fill="none" xmlns="http://www.w3.org/2000/svg">
<path d="M7.98124 0C3.58358 0 0 3.57312 0 7.95795C0 12.3428 3.58358 15.9159 7.98124 15.9159C12.3789 15.9159 15.9625 12.3428 15.9625 7.95795C15.9625 3.57312 12.3789 0 7.98124 0ZM10.8465 6.83588L8.03712 9.63708C7.9174 9.75645 7.76574 9.81215 7.6141 9.81215C7.46246 9.81215 7.30283 9.75645 7.1911 9.63708L5.7864 8.23648C5.54696 8.0057 5.54696 7.62371 5.7864 7.39293C6.01786 7.16215 6.40095 7.16215 6.63241 7.39293L7.6141 8.37177L10.0005 5.99234C10.232 5.76156 10.6071 5.76156 10.8465 5.99234C11.078 6.22312 11.078 6.6051 10.8465 6.83588Z" fill="#0AC26C"/>
</svg>
