<svg width="32" height="32" viewBox="0 0 32 32" fill="none" xmlns="http://www.w3.org/2000/svg">
<rect width="32" height="32" rx="16" fill="black" fill-opacity="0.06"/>
<path d="M13.0745 8L7 18.5189L9.4981 23L21.9562 22.9975L25 17.9165L18.8584 8.01518L13.0745 8ZM8.49249 18.5298L13.4572 9.93117L14.9302 12.4533L9.89004 21.0368L8.49249 18.5298ZM15.6807 13.7381L17.7504 17.2817L13.6003 17.2812L15.6807 13.7381ZM21.2097 21.7186L11.0083 21.7206L12.8802 18.5601L18.4974 18.5608L18.5032 18.571L23.0996 18.5637L21.2097 21.7186ZM19.2533 17.2819L14.8387 9.72329L14.5808 9.28176L18.1239 9.29208L23.08 17.2823L19.2533 17.2819Z" fill="black" fill-opacity="0.3"/>
</svg>
