<svg width="32" height="32" viewBox="0 0 32 32" fill="none" xmlns="http://www.w3.org/2000/svg">
<rect width="32" height="32" rx="16" fill="white" fill-opacity="0.1"/>
<path d="M13.0745 7.8526L7 18.5783L9.4981 23.1474L21.9562 23.1449L25 17.964L18.8584 7.86808L13.0745 7.8526ZM8.49249 18.5893L13.4572 9.82173L14.9302 12.3934L9.89004 21.1456L8.49249 18.5893ZM15.6807 13.7035L17.7504 17.3167L13.6003 17.3162L15.6807 13.7035ZM21.2097 21.8408L11.0083 21.8429L12.8802 18.6203L18.4974 18.621L18.5032 18.6313L23.0996 18.6239L21.2097 21.8408ZM19.2533 17.3169L14.8387 9.60975L14.5808 9.15955L18.1239 9.17007L23.08 17.3173L19.2533 17.3169Z" fill="white" fill-opacity="0.3"/>
</svg>
