<svg width="28" height="28" viewBox="0 0 28 28" fill="none" xmlns="http://www.w3.org/2000/svg">
<path fill-rule="evenodd" clip-rule="evenodd" d="M0.285877 13.9999C0.285876 21.5741 6.42597 27.7142 14.0002 27.7142C21.5744 27.7142 27.7144 21.5741 27.7144 13.9999C27.7144 6.42574 21.5744 0.285644 14.0002 0.285644C6.42597 0.285644 0.285877 6.42574 0.285877 13.9999ZM17.9828 10.4949C17.7038 10.1887 17.2295 10.1666 16.9233 10.4456C16.6171 10.7246 16.595 11.1989 16.874 11.5051L18.3018 13.0722L8.00005 13.0722C7.58583 13.0722 7.25005 13.408 7.25005 13.8222C7.25005 13.8362 7.25043 13.8501 7.25119 13.864C7.25101 13.8676 7.25086 13.8712 7.25074 13.8749C7.25045 13.8835 7.2503 13.8921 7.2503 13.9007C7.2503 14.3149 7.58609 14.6507 8.0003 14.6507L18.3428 14.6507L16.8652 16.3324C16.5918 16.6436 16.6225 17.1175 16.9337 17.3909C17.2448 17.6643 17.7187 17.6336 17.9921 17.3225L20.5635 14.3957C20.6956 14.2453 20.7596 14.0518 20.7489 13.8591C20.7585 13.6633 20.6911 13.4674 20.5542 13.3171L17.9828 10.4949Z" fill="#41CC5D"/>
</svg>
