<svg xmlns="http://www.w3.org/2000/svg" viewBox="0 0 50 50"><defs><style>.cls-1{fill:none;}.cls-2{fill:#5b5b5b;}</style></defs><g id="Layer_2" data-name="Layer 2"><g id="Layer_1-2" data-name="Layer 1"><path class="cls-1" d="M22.36,29a9.81,9.81,0,0,1-18.75-3.3A21.41,21.41,0,0,0,4.75,32a1.59,1.59,0,0,0,.07.2c.07.21.15.42.23.62s.11.29.17.43.11.26.17.39.19.42.29.63a.8.8,0,0,0,.08.16,20.93,20.93,0,0,0,1.42,2.48A13.29,13.29,0,0,0,13.4,38.4,13.43,13.43,0,0,0,26,29.68a9.92,9.92,0,0,0-1.15-2.15A13.19,13.19,0,0,1,22.36,29Z"/><path class="cls-1" d="M26,29.68A9.81,9.81,0,0,1,10.36,40.61a21.71,21.71,0,0,0,5.24,3.63l.18.09.62.28.41.17.4.16.65.25.17.06a22.5,22.5,0,0,0,2.76.74A13.38,13.38,0,0,0,29,27.64a9.68,9.68,0,0,0-2.33-.71A14,14,0,0,1,26,29.68Z"/><path class="cls-1" d="M20.32,26A9.81,9.81,0,0,1,9.39,10.36a21.48,21.48,0,0,0-3.63,5.25,1.3,1.3,0,0,0-.08.17c-.1.21-.2.42-.29.63s-.12.26-.17.39l-.17.42c-.08.21-.16.42-.23.63a1.59,1.59,0,0,0-.07.2A21.73,21.73,0,0,0,4,20.79a13.52,13.52,0,0,0,3.31,5.48,13.46,13.46,0,0,0,15,2.71,9.68,9.68,0,0,0,.71-2.33A14,14,0,0,1,20.32,26Z"/><path class="cls-1" d="M24.05,20.33a9.8,9.8,0,0,1-.66-3.54,9.81,9.81,0,0,1,16.25-7.4A21.71,21.71,0,0,0,34.4,5.76l-.18-.09-.62-.28-.41-.17-.4-.16-.65-.25L32,4.75A21,21,0,0,0,29.2,4a13.46,13.46,0,0,0-5.47,3.31,13.31,13.31,0,0,0-3.92,9.47A13.5,13.5,0,0,0,21,22.36a9.76,9.76,0,0,0,2.34.71A13.11,13.11,0,0,1,24.05,20.33Z"/><path class="cls-1" d="M21,22.36A9.81,9.81,0,0,1,24.32,3.61,21.87,21.87,0,0,0,18,4.75l-.17.06-.65.25-.4.16-.41.17-.62.28-.18.09a22.14,22.14,0,0,0-2.46,1.42A13.29,13.29,0,0,0,11.6,13.4,13.43,13.43,0,0,0,20.32,26a9.62,9.62,0,0,0,2.14-1.15A13.65,13.65,0,0,1,21,22.36Z"/><path class="cls-1" d="M29.67,24.05a9.8,9.8,0,0,1,3.54-.66,9.7,9.7,0,0,1,6.93,2.88,9.81,9.81,0,0,1,.47,13.37,21.08,21.08,0,0,0,3.63-5.26.8.8,0,0,0,.08-.16c.1-.2.2-.42.29-.63s.12-.26.17-.39.11-.28.17-.43.16-.41.23-.62a1.59,1.59,0,0,0,.07-.2A21.73,21.73,0,0,0,46,29.21a13.52,13.52,0,0,0-3.31-5.48,13.31,13.31,0,0,0-9.47-3.92A13.5,13.5,0,0,0,27.64,21a9.76,9.76,0,0,0-.71,2.34A13.11,13.11,0,0,1,29.67,24.05Z"/><path class="cls-1" d="M36.6,15.19a9.82,9.82,0,0,1,9.79,9.13,21.74,21.74,0,0,0-1.14-6.27,1.59,1.59,0,0,0-.07-.2c-.07-.21-.15-.42-.23-.63l-.17-.42c-.05-.13-.11-.26-.17-.39s-.19-.43-.29-.63a1.3,1.3,0,0,0-.08-.17,20.8,20.8,0,0,0-1.42-2.47,13.37,13.37,0,0,0-18.77,7.19,9.34,9.34,0,0,0,1.15,2.13A13.65,13.65,0,0,1,27.64,21,9.83,9.83,0,0,1,36.6,15.19Z"/><path class="cls-1" d="M29,27.64a9.81,9.81,0,0,1-3.3,18.75A21.74,21.74,0,0,0,32,45.25l.19-.06.64-.25.4-.16.41-.17.62-.28.18-.09a21.49,21.49,0,0,0,2.46-1.42,13.37,13.37,0,0,0-7.19-18.77,10.05,10.05,0,0,0-2.14,1.15A13.19,13.19,0,0,1,29,27.64Z"/><path class="cls-2" d="M50,24.31a25.06,25.06,0,0,0-1.34-7.44l-.08-.21c-.08-.25-.18-.5-.28-.75s-.12-.32-.19-.47-.13-.32-.2-.48-.21-.48-.33-.72l-.1-.21a24.92,24.92,0,0,0-4.78-6.71l-.5-.47A24.73,24.73,0,0,0,36,2.54l-.21-.1c-.24-.12-.48-.22-.72-.33l-.48-.2-.47-.19c-.25-.1-.5-.2-.75-.28l-.21-.08A24.85,24.85,0,0,0,25,0l-.69,0a25.06,25.06,0,0,0-7.44,1.34l-.21.08c-.25.08-.5.18-.75.28l-.47.19-.48.2c-.24.11-.48.21-.72.33l-.21.1A24.92,24.92,0,0,0,7.32,7.32l-.47.5A24.91,24.91,0,0,0,2.54,14l-.1.21c-.12.24-.22.48-.33.72s-.14.32-.2.48-.13.31-.19.47-.2.5-.28.75l-.08.21A24.85,24.85,0,0,0,0,25c0,.23,0,.46,0,.69a25.11,25.11,0,0,0,1.34,7.44l.08.21c.08.25.18.5.28.75s.12.32.19.48l.2.47c.11.24.21.48.33.72l.1.21a24.92,24.92,0,0,0,4.78,6.71l.5.47A24.91,24.91,0,0,0,14,47.46l.21.1.72.33.47.2.48.19c.25.1.5.2.75.28l.21.08A24.9,24.9,0,0,0,25,50l.69,0a25.11,25.11,0,0,0,7.44-1.34l.21-.08c.25-.08.5-.18.75-.28l.48-.19.47-.2.72-.33.21-.1A24.87,24.87,0,0,0,47.46,36l.1-.21c.12-.24.22-.48.33-.72l.2-.47c.07-.16.13-.32.19-.48s.2-.5.28-.75l.08-.21A24.9,24.9,0,0,0,50,25C50,24.77,50,24.54,50,24.31Zm-16.77-4.5a13.31,13.31,0,0,1,9.47,3.92A13.52,13.52,0,0,1,46,29.21,21.73,21.73,0,0,1,45.25,32a1.59,1.59,0,0,1-.07.2c-.07.21-.15.42-.23.62s-.11.29-.17.43-.11.26-.17.39-.19.43-.29.63a.8.8,0,0,1-.08.16,21.08,21.08,0,0,1-3.63,5.26,9.81,9.81,0,0,0-.47-13.37,9.7,9.7,0,0,0-6.93-2.88,9.8,9.8,0,0,0-3.54.66,13.37,13.37,0,0,1,7.19,18.77,21.49,21.49,0,0,1-2.46,1.42l-.18.09-.62.28-.41.17-.4.16-.64.25-.19.06a21.74,21.74,0,0,1-6.28,1.14A9.81,9.81,0,0,0,29,27.64,13.38,13.38,0,0,1,20.79,46,22.5,22.5,0,0,1,18,45.25l-.17-.06-.65-.25-.4-.16-.41-.17-.62-.28-.18-.09a21.71,21.71,0,0,1-5.24-3.63A9.81,9.81,0,0,0,26,29.68,13.43,13.43,0,0,1,13.4,38.4a13.29,13.29,0,0,1-6.22-1.54,20.93,20.93,0,0,1-1.42-2.48.8.8,0,0,1-.08-.16c-.1-.21-.2-.42-.29-.63s-.12-.26-.17-.39-.11-.28-.17-.43-.16-.41-.23-.62a1.59,1.59,0,0,1-.07-.2,21.41,21.41,0,0,1-1.14-6.27A9.81,9.81,0,0,0,22.36,29,13.38,13.38,0,0,1,4,20.79a21.73,21.73,0,0,1,.74-2.74,1.59,1.59,0,0,1,.07-.2c.07-.21.15-.42.23-.63l.17-.42c0-.13.11-.26.17-.39s.19-.42.29-.63a1.3,1.3,0,0,1,.08-.17,21.48,21.48,0,0,1,3.63-5.25A9.81,9.81,0,0,0,20.32,26,13.43,13.43,0,0,1,11.6,13.4a13.29,13.29,0,0,1,1.54-6.22A22.14,22.14,0,0,1,15.6,5.76l.18-.09.62-.28.41-.17.4-.16.65-.25L18,4.75a21.87,21.87,0,0,1,6.29-1.14A9.81,9.81,0,0,0,21,22.36a13.5,13.5,0,0,1-1.2-5.57,13.31,13.31,0,0,1,3.92-9.47A13.46,13.46,0,0,1,29.2,4,21,21,0,0,1,32,4.75l.17.06.65.25.4.16.41.17.62.28.18.09a21.71,21.71,0,0,1,5.24,3.63A9.81,9.81,0,0,0,24.05,20.33a13.37,13.37,0,0,1,18.77-7.19,20.8,20.8,0,0,1,1.42,2.47,1.3,1.3,0,0,1,.08.17c.1.2.2.42.29.63s.12.26.17.39l.17.42c.08.21.16.42.23.63a1.59,1.59,0,0,1,.07.2,21.74,21.74,0,0,1,1.14,6.27A9.81,9.81,0,0,0,27.64,21,13.5,13.5,0,0,1,33.21,19.81Z"/><path class="cls-2" d="M24.05,20.33a13.11,13.11,0,0,0-.7,2.74A9.76,9.76,0,0,1,21,22.36a13.65,13.65,0,0,0,1.45,2.44A9.62,9.62,0,0,1,20.32,26a14,14,0,0,0,2.75.7A9.68,9.68,0,0,1,22.36,29a13.19,13.19,0,0,0,2.44-1.45A9.92,9.92,0,0,1,26,29.68a14,14,0,0,0,.7-2.75,9.68,9.68,0,0,1,2.33.71,13.19,13.19,0,0,0-1.45-2.44,10.05,10.05,0,0,1,2.14-1.15,13.11,13.11,0,0,0-2.74-.7A9.76,9.76,0,0,1,27.64,21a13.65,13.65,0,0,0-2.44,1.45A9.34,9.34,0,0,1,24.05,20.33Z"/></g></g></svg>