<svg width="44" height="44" viewBox="0 0 44 44" fill="none" xmlns="http://www.w3.org/2000/svg">
<path fill-rule="evenodd" clip-rule="evenodd" d="M15.3333 10.713C13.8606 10.713 12.6667 11.9277 12.6667 13.4261V29.7043C12.6667 31.2027 13.8606 32.4174 15.3333 32.4174H28.6667C30.1394 32.4174 31.3333 31.2027 31.3333 29.7043V21.5188C31.3333 20.0461 30.1394 18.8522 28.6667 18.8522C25.7211 18.8522 23.3333 16.4228 23.3333 13.4261C23.3333 11.9277 22.1187 10.713 20.6203 10.713H15.3333ZM26.2288 11.5077C26.1417 11.4191 26 11.4851 26 11.6092V13.4261C26 14.9245 27.1939 16.1391 28.6667 16.1391H30.4466C30.5725 16.1391 30.6405 15.9962 30.5523 15.9064L26.2288 11.5077ZM10 13.4261C10 10.4293 12.3878 8 15.3333 8H24.3431C25.7576 8 27.1142 8.57168 28.1144 9.58926L32.4379 13.988C33.4381 15.0056 34 16.3857 34 17.8248V29.7043C34 32.7011 31.6122 35.1304 28.6667 35.1304H15.3333C12.3878 35.1304 10 32.7011 10 29.7043V13.4261ZM20.6667 16.1391C20.6667 16.8883 20.0593 17.4957 19.3101 17.4957H18.0232C17.274 17.4957 16.6667 16.8883 16.6667 16.1391C16.6667 15.3899 17.274 14.7826 18.0232 14.7826H19.3101C20.0593 14.7826 20.6667 15.3899 20.6667 16.1391ZM27.3333 21.5652C27.3333 22.3144 26.726 22.9217 25.9768 22.9217H18.0232C17.274 22.9217 16.6667 22.3144 16.6667 21.5652C16.6667 20.816 17.274 20.2087 18.0232 20.2087H25.9768C26.726 20.2087 27.3333 20.816 27.3333 21.5652ZM27.3333 26.9913C27.3333 27.7405 26.726 28.3478 25.9768 28.3478H18.0232C17.274 28.3478 16.6667 27.7405 16.6667 26.9913C16.6667 26.2421 17.274 25.6348 18.0232 25.6348H25.9768C26.726 25.6348 27.3333 26.2421 27.3333 26.9913Z" fill="#579AF2"/>
</svg>
