<svg width="16" height="16" viewBox="0 0 16 16" fill="none" xmlns="http://www.w3.org/2000/svg">
<path d="M13.3334 6.66668C13.3334 8.66668 12.2667 10.4 10.6667 11.2667C10.6667 11.2667 10.5 13 10.3334 13.6667C10 15 6.00002 15 5.66669 13.6667C5.49952 12.998 5.33335 11.2667 5.33335 11.2667C3.73335 10.4 2.66669 8.66668 2.66669 6.66668C2.66669 3.73334 5.06669 1.33334 8.00002 1.33334C10.9334 1.33334 13.3334 3.73334 13.3334 6.66668Z" stroke="#8C9BAB" stroke-width="1.5" stroke-miterlimit="10" stroke-linecap="round" stroke-linejoin="round"/>
<path d="M10 12.3333C8.5 12.3333 8 12.3333 6 12.3333" stroke="#8C9BAB" stroke-width="1.5" stroke-miterlimit="10" stroke-linecap="round" stroke-linejoin="round"/>
<path d="M8.44446 4.66666L6.66669 6.66666H9.33335L7.55558 8.66666" stroke="#8C9BAB" stroke-width="1.5" stroke-linecap="round" stroke-linejoin="round"/>
</svg>
